<?xml version="1.0" encoding="UTF-8"?>
<svg id="Layer_1" data-name="Layer 1" xmlns="http://www.w3.org/2000/svg" viewBox="0 0 192 108">
  <defs>
    <style>
      .cls-1 {
        fill: #ecabce;
      }
    </style>
  </defs>
  <g>
    <path class="cls-1" d="M58.5,11.25l1.5.8c-3.7,49.2,69.65,52.33,69.89,2.79l1.35-2.08c4.37-.97,8.67-1.58,13.44-1.69,3.15-.07,6.28-1.47,9.4-.13l.89,4.35,10.48,27.91c2.07,5.51,4.62,10.15,5.52,16.21.58,3.93,4.77,12.01,6.85,17.17.83,2.06,3.78,12.57,4.09,13.3l3.14,7.49-.53,1.5c-58.69-.19-117.39-.38-176.1-.57l-.92-1.5c.76-5.05,1.5-10.35,3.38-15.5l10.23-27.98,15.66-44.29c5.86.15,10.84,1.11,16.09,1.64l5.65.58Z"/>
    <path d="M7.51,96.8l177.55.57c2.1,0,4.12,1.48,4.47,3.53.26,1.51-1.75,4.79-4.1,4.79l-178.34.06c-2.98,0-4.41-3.4-4.01-5.33.44-2.12,2.21-3.53,4.42-3.63Z"/>
    <path d="M131.25,12.75c1.08,11.12-2.41,21.33-10.46,29.2-7.16,6.99-15.56,9.98-25.55,10.01s-19.36-2.84-26.62-10.41c-6.15-6.41-10.06-14.2-10.09-23.59l-.03-6.71c-.55-2.85.48-6.44,3.89-7.26s6.93.35,10.34.62l11.24.88c4.56.36,8.27.33,12.81.02l11.94-.81c5.18-.35,15.21-2.56,20.67-.47,2.91,1.12,1.58,5.62,1.86,8.52ZM124.9,7.48c-19.5,4.57-39.68,5.12-60.38,1.79-3.21,12.65,2.57,25.74,14.23,32.95,9.14,5.65,20.65,6,30.6.57,12.18-6.64,19.27-21.78,15.55-35.31Z"/>
  </g>
  <polyline class="cls-1" points="58.54 11.24 58.05 11.49 58.28 9.9 58.33 9.53 58.72 6.72 38.28 4.22 36.76 9.12"/>
  <polyline class="cls-1" points="58.45 11.23 58.13 9.9 57.62 12.27"/>
  <polyline class="cls-1" points="154.11 10.96 152.53 4.21 143.12 4.94 136.36 5.55 132.7 5.96 131.38 6.23 131.36 7.21 131.34 8.23 131.32 9.51 131.31 10.23 131.29 11.04 131.28 11.76 131.28 12.15 131.27 12.7 131.51 13.26"/>
  <line class="cls-1" x1="138.68" y1="15.53" x2="140.64" y2="15.02"/>
</svg>