<?xml version="1.0" encoding="UTF-8"?>
<svg id="Layer_1" data-name="Layer 1" xmlns="http://www.w3.org/2000/svg" viewBox="0 0 306 324">
  <defs>
    <style>
      .cls-1 {
        fill: #e34589;
      }

      .cls-2 {
        fill: #080102;
      }

      .cls-3 {
        fill: #0c0b0b;
      }

      .cls-4 {
        fill: #ee4990;
      }

      .cls-5 {
        fill: #060303;
      }

      .cls-6 {
        fill: #e2488a;
      }

      .cls-7 {
        fill: #e0528e;
      }

      .cls-8 {
        fill: #110304;
      }

      .cls-9 {
        fill: #e9478c;
      }

      .cls-10 {
        fill: #28080e;
      }

      .cls-11 {
        fill: #2e0910;
      }

      .cls-12 {
        fill: #0c0506;
      }

      .cls-13 {
        fill: #e0578e;
      }

      .cls-14 {
        fill: #f04992;
      }

      .cls-15 {
        fill: #ed4a90;
      }

      .cls-16 {
        fill: #22070b;
      }

      .cls-17 {
        fill: #040102;
      }

      .cls-18 {
        fill: #26080d;
      }

      .cls-19 {
        fill: #0b0407;
      }

      .cls-20 {
        fill: #250507;
      }

      .cls-21 {
        fill: #26090c;
      }

      .cls-22 {
        fill: #010101;
      }

      .cls-23 {
        fill: #23080a;
      }

      .cls-24 {
        fill: #d8ad3b;
      }

      .cls-25 {
        fill: #f14c8f;
      }

      .cls-26 {
        fill: #f7bf0f;
      }

      .cls-27 {
        fill: #090a0a;
      }

      .cls-28 {
        fill: #ef4f95;
      }

      .cls-29 {
        fill: #030404;
      }

      .cls-30 {
        fill: #e64b8e;
      }

      .cls-31 {
        fill: #f24f96;
      }

      .cls-32 {
        fill: #300910;
      }

      .cls-33 {
        fill: #0a0201;
      }

      .cls-34 {
        fill: #030302;
      }

      .cls-35 {
        fill: #ef4c90;
      }

      .cls-36 {
        fill: #d45889;
      }

      .cls-37 {
        fill: #ef4b93;
      }

      .cls-38 {
        fill: #f6bd0e;
      }

      .cls-39 {
        fill: #ec4890;
      }

      .cls-40 {
        fill: #3f131e;
      }

      .cls-41 {
        fill: #e2548c;
      }

      .cls-42 {
        fill: #4d1824;
      }

      .cls-43 {
        fill: #ec4a90;
      }

      .cls-44 {
        fill: #1e0407;
      }

      .cls-45 {
        fill: #360f13;
      }

      .cls-46 {
        fill: #2b0c14;
      }

      .cls-47 {
        fill: #2a0c11;
      }

      .cls-48 {
        fill: #22090a;
      }

      .cls-49 {
        fill: #d7568d;
      }

      .cls-50 {
        fill: #070302;
      }

      .cls-51 {
        fill: #060506;
      }

      .cls-52 {
        fill: #080809;
      }

      .cls-53 {
        fill: #0e0405;
      }

      .cls-54 {
        fill: #f15398;
      }

      .cls-55 {
        fill: #e3538e;
      }

      .cls-56 {
        fill: #0c0c0b;
      }

      .cls-57 {
        fill: #f14b92;
      }

      .cls-58 {
        fill: #100407;
      }

      .cls-59 {
        fill: #f14b93;
      }

      .cls-60 {
        fill: #ee4890;
      }

      .cls-61 {
        fill: #150307;
      }

      .cls-62 {
        fill: #dc5891;
      }

      .cls-63 {
        fill: #ee5095;
      }

      .cls-64 {
        fill: #070102;
      }

      .cls-65 {
        fill: #1b0507;
      }

      .cls-66 {
        fill: #f14e93;
      }

      .cls-67 {
        fill: #d65287;
      }

      .cls-68 {
        fill: #060607;
      }

      .cls-69 {
        fill: #0a0203;
      }

      .cls-70 {
        fill: #e04889;
      }

      .cls-71 {
        fill: #ee5192;
      }

      .cls-72 {
        fill: #060202;
      }

      .cls-73 {
        fill: #dfb536;
      }

      .cls-74 {
        fill: #020302;
      }

      .cls-75 {
        fill: #23080b;
      }

      .cls-76 {
        fill: #250709;
      }

      .cls-77 {
        fill: #050202;
      }

      .cls-78 {
        fill: #0c0708;
      }

      .cls-79 {
        fill: #e4488d;
      }

      .cls-80 {
        fill: #27080c;
      }

      .cls-81 {
        fill: #0d0402;
      }

      .cls-82 {
        fill: #030203;
      }

      .cls-83 {
        fill: #d4528d;
      }

      .cls-84 {
        fill: #24080b;
      }

      .cls-85 {
        fill: #e6518d;
      }

      .cls-86 {
        fill: #260b12;
      }

      .cls-87 {
        fill: #de4f8b;
      }

      .cls-88 {
        fill: #0a0c0b;
      }

      .cls-89 {
        fill: #080101;
      }

      .cls-90 {
        fill: #f24a93;
      }

      .cls-91 {
        fill: #f1c84a;
      }

      .cls-92 {
        fill: #f15397;
      }

      .cls-93 {
        fill: #e95190;
      }

      .cls-94 {
        fill: #080607;
      }

      .cls-95 {
        fill: #280b11;
      }

      .cls-96 {
        fill: #f04c93;
      }

      .cls-97 {
        fill: #090203;
      }

      .cls-98 {
        fill: #1c0406;
      }

      .cls-99 {
        fill: #1a070c;
      }

      .cls-100 {
        fill: #e94a8e;
      }

      .cls-101 {
        fill: #090908;
      }

      .cls-102 {
        fill: #0d0203;
      }

      .cls-103 {
        fill: #1a060b;
      }

      .cls-104 {
        fill: #da4885;
      }

      .cls-105 {
        fill: #0e0d0d;
      }

      .cls-106 {
        fill: #636363;
      }

      .cls-107 {
        fill: #e04a8a;
      }

      .cls-108 {
        fill: #ef4c94;
      }

      .cls-109 {
        fill: #27080a;
      }

      .cls-110 {
        fill: #c14f7e;
      }

      .cls-111 {
        fill: #0d0303;
      }

      .cls-112 {
        fill: #ee5997;
      }

      .cls-113 {
        fill: #e34e8c;
      }

      .cls-114 {
        fill: #0b0102;
      }

      .cls-115 {
        fill: #ecb921;
      }

      .cls-116 {
        fill: #de4987;
      }

      .cls-117 {
        fill: #eb4a90;
      }

      .cls-118 {
        fill: #eb498f;
      }

      .cls-119 {
        fill: #ee4a8a;
      }

      .cls-120 {
        fill: #c74e87;
      }

      .cls-121 {
        fill: #ee4c92;
      }

      .cls-122 {
        fill: #2a070e;
      }

      .cls-123 {
        fill: #050607;
      }

      .cls-124 {
        fill: #f24a91;
      }

      .cls-125 {
        fill: #e65992;
      }

      .cls-126 {
        fill: #d55d8c;
      }

      .cls-127 {
        fill: #120607;
      }

      .cls-128 {
        fill: #180405;
      }

      .cls-129 {
        fill: #030303;
      }

      .cls-130 {
        fill: #050706;
      }

      .cls-131 {
        fill: #0b0103;
      }

      .cls-132 {
        fill: #da4f88;
      }

      .cls-133 {
        fill: #db5b91;
      }

      .cls-134 {
        fill: #230a0d;
      }

      .cls-135 {
        fill: #ef4991;
      }

      .cls-136 {
        fill: #010000;
      }

      .cls-137 {
        fill: #d3518a;
      }

      .cls-138 {
        fill: #0e100f;
      }

      .cls-139 {
        fill: #010100;
      }

      .cls-140 {
        fill: #de538c;
      }

      .cls-141 {
        fill: #190609;
      }

      .cls-142 {
        fill: #09090a;
      }

      .cls-143 {
        fill: #0e0809;
      }

      .cls-144 {
        fill: #ec5692;
      }

      .cls-145 {
        fill: #110406;
      }

      .cls-146 {
        fill: #040202;
      }

      .cls-147 {
        fill: #050100;
      }

      .cls-148 {
        fill: #e05b91;
      }

      .cls-149 {
        fill: #070103;
      }

      .cls-150 {
        fill: #e4508e;
      }

      .cls-151 {
        fill: #090403;
      }

      .cls-152 {
        fill: #edb822;
      }

      .cls-153 {
        fill: #e9bd43;
      }

      .cls-154 {
        fill: #0e0204;
      }

      .cls-155 {
        fill: #df4885;
      }

      .cls-156 {
        fill: #e0498a;
      }

      .cls-157 {
        fill: #0e0303;
      }

      .cls-158 {
        fill: #ef4890;
      }

      .cls-159 {
        fill: #000100;
      }

      .cls-160 {
        fill: #ed4a91;
      }

      .cls-161 {
        fill: #0e0302;
      }

      .cls-162 {
        fill: #060708;
      }

      .cls-163 {
        fill: #f04a92;
      }

      .cls-164 {
        fill: #0a0c0e;
      }

      .cls-165 {
        fill: #0e0607;
      }

      .cls-166 {
        fill: #d94885;
      }

      .cls-167 {
        fill: #f04b95;
      }

      .cls-168 {
        fill: #e9458d;
      }

      .cls-169 {
        fill: #d5548a;
      }

      .cls-170 {
        fill: #5f5d5f;
      }

      .cls-171 {
        fill: #f04a91;
      }

      .cls-172 {
        fill: #020101;
      }

      .cls-173 {
        fill: #df4f8a;
      }

      .cls-174 {
        fill: #d34e88;
      }

      .cls-175 {
        fill: #040404;
      }

      .cls-176 {
        fill: #e65290;
      }

      .cls-177 {
        fill: #080705;
      }

      .cls-178 {
        fill: #f8c011;
      }

      .cls-179 {
        fill: #f15092;
      }

      .cls-180 {
        fill: #060204;
      }

      .cls-181 {
        fill: #f14c92;
      }

      .cls-182 {
        fill: #070707;
      }

      .cls-183 {
        fill: #0b0304;
      }

      .cls-184 {
        fill: #e4458a;
      }

      .cls-185 {
        fill: #010001;
      }

      .cls-186 {
        fill: #ee4b90;
      }

      .cls-187 {
        fill: #2a0a10;
      }

      .cls-188 {
        fill: #ef4c92;
      }

      .cls-189 {
        fill: #e2ba44;
      }

      .cls-190 {
        fill: #090b0b;
      }

      .cls-191 {
        fill: #120102;
      }

      .cls-192 {
        fill: #200508;
      }

      .cls-193 {
        fill: #020206;
      }

      .cls-194 {
        fill: #eb4b8e;
      }

      .cls-195 {
        fill: #0c0a0b;
      }

      .cls-196 {
        fill: #21070b;
      }

      .cls-197 {
        fill: #040507;
      }

      .cls-198 {
        fill: #2a0a0e;
      }

      .cls-199 {
        fill: #df558a;
      }

      .cls-200 {
        fill: #d65286;
      }

      .cls-201 {
        fill: #060605;
      }

      .cls-202 {
        fill: #020203;
      }

      .cls-203 {
        fill: #25070a;
      }

      .cls-204 {
        fill: #e9c256;
      }

      .cls-205 {
        fill: #050705;
      }

      .cls-206 {
        fill: #f15095;
      }

      .cls-207 {
        fill: #d8538b;
      }

      .cls-208 {
        fill: #da598f;
      }

      .cls-209 {
        fill: #ea4b8f;
      }

      .cls-210 {
        fill: #f14c93;
      }
    </style>
  </defs>
  <path d="M99.75,100.87c1.82.42,1.96,3.51,1.25,5.13-.33,4.94.67,8.94,3,12,1.63,1.99,4.67,7.92,3.02,9.83-1.75,1.2-4.08.97-6.02.17-.58,1.44-1.4,1.42-2,0-2.95-2.18-6.61-2.51-11-1-.19.57-.4,1.02-.67,1.06-4.91.7-11.43,1.34-16.34,1.36-.3,0-.61-.56-.91-1.29-8.18,2.36-16.05,4.03-11.1-7.08-1.6-2.73-1.34-4.32.78-4.77,4.28-1.24,8.59-2.99,13.24-2.28l4.31-.25c1.29,3.8,3.21,4.7,5.57.78,3.12-.31,4.49-1.15,4.12-2.53-.03-.95-.77-2.16-1-3,.35-3.06,2.01-5.59,4.97-7.61,2.6-2.76,4.69-3.29,6.29-1.59,1.36-1.78,1.91-.85,2.49,1.07Z"/>
  <path class="cls-136" d="M280.08,144.17c.58.02.55.63-.08,1.83-2.87,3.99-4.67,9.14-9,11.97-3.21,1.54-6.08,3.77-8.6,6.69-4.15,4.33-6.46,4.89-6.25,6.71.06.5.4,1.17.85,1.63,3.57,2.35,2.25,8.4-1.98,8.08-1.39,5.72-13.62.78-14.4-3.5-5.93-6.9-4-13.14,5.79-18.72,7.71-2.14,12.61-6.28,14.7-12.43l3.96-5.44c4.87-9.52,11.22-3.78,15,3.17Z"/>
  <path d="M99.98,214.06c.43-.66.72-.32.86,1.02-.11,3.55-.72,7.19-1.84,10.92-.09,1.09-.21,1.74-1.28,1.27-2.17,6.5-3.03,13.46-2.59,20.87-1.57,5.65-4.24,12.58-11.03,11.86-.31.88-.68.86-1.1,0-4.18-12.93-1.34-26.72,1-40,.05-2.02.99-2.02,1.81-.13l1.04-2.62c-2.97-8.37,10.27-10.38,13.12-3.19Z"/>
  <path class="cls-22" d="M173.97,250.86c2.21-.65,2.79.32,1.72,2.92-.34,2.5.57,4.69,2.71,6.57-2.94,3.34-5.65,6.82-8.13,10.44,2.11,2.43.55,4.63-1.17,6.88-1.75,3.96-5,5.62-8.1,8.19-.9.64-1.54.69-1.9.15-3.46-.37-4.9-1.34-4.33-2.92-3.34,1.32-3.88-2.3-3.02-5.19-2.28-2.45,1.81-7.15,4.44-8.38,5.58-4.1,9.27-9.01,11.06-14.76,2.66-4.06,4.9-5.36,6.72-3.9Z"/>
  <path class="cls-185" d="M282.07,105.01c.32-2.06,1.25-2.05,2.78.03,4.26,10.43,4.5,23.13-.82,32.99-1.14,1.6-1.75,1.05-.96-.83-8.07-1.71-10.08-10.92-11.07-18.2-.58-1.16-.67-2.55.41-3.24.86-3.67,2.37-7.24,4.54-10.69,1.26-1.54,2.96-1.57,5.12-.06Z"/>
  <path class="cls-159" d="M32,181.13c.16-.9,1.07-1.06,2.73-.47l4.54,5.29c1.99-1.45,4.67,1.01,2.75,2.9,2.45,1.04,5.76,5.88,3.98,8.14.75,1.99-.07,3.53-2.46,4.62.31,2.93-1.73,4.1-6.11,3.52-6.49-4.45-12.76-9.6-15.39-17.14-2.16-6.14,4.64-10.91,9.97-6.86Z"/>
  <path class="cls-22" d="M36.78,142.16c-1.67,1.48-2.63,2.92-2.86,4.32-.62,5.95-2.76,10.96-6.44,15.03-.67,7.69-1.43,11.53-8.77,14.85-.91-.81-1.46-1.94-1.65-3.39-3.4-7.85,2.57-26.57,8.03-33.93,1.22-.64,2.86-.32,4.93.96,1.19-1.09,2.44-1.76,3.75-2,2.95-1.56,6.13,2.03,3.01,4.16Z"/>
  <path class="cls-159" d="M125,31c2.01-.44,3.79-.35,5.34.27,3.56.13,6.86,9.54,3.22,10.96l-9.58-.13c-.24,1.79-1.23,3.47-2.97,5.04-.16,1.38-1.93,1.56-3.03.86-2.04.92-4.47,1.17-7.3.74l-2.24,5.39c-.31,2.43-.99,3.79-2.04,4.07-2.51-.48-3.97-3.03-4.38-7.66-2.48-1.52-5.95-3.9-2-5.46.39-2.02,2.3-2.39,4.12-2.35-.57-2.13-.43-2.89,1.46-4.33-3.97,1.63,12.31-8.87,19.38-7.41Z"/>
  <path d="M97.65,79.9c1.5,1.81,1.11,5.82.35,8.1-.4,5.99-2.64,10.37-6.71,13.13-2.72,3.53-4.82,4.49-6.29,2.87-.67-3.44-2.29-27.75.26-30.11,4.86-5.08,11.87-.59,12.39,6.01Z"/>
  <path class="cls-72" d="M257.63,247.24l.19,2.37c-2.31,1.17-3.22,2.63-2.72,4.38,3.81,1.72,6.45,4.05,7.91,7.01-.21.33-.86.64-1,1-3.74,1.28-7.6,1.94-11.6,2.01.38,1.62-.76,2.66-3.41,3.11-1.37-.03-3.28,1.92-4.99.71-.52-4.74-2.7-8.05-8.26-7.89-4.31.13-6.45,2.4-5.7,6.81l-2.04,1.25c-.27,0-.78.14-1,0l-2.92-1.89c.68-3.21-.68-3.25-4.08-.11-1.31-.59-2.75-.5-4-1-4.45-4.66,3.5-7.92,7.95-8.72-2.78-1.45-3.66-3.09-2.63-4.94.33-.93,1.99-.14,2.69.66,3.54.35,7.19.92,10.93,1.7,7.33,1.08,13.69-.2,19.07-3.84-1.06-1.8,3.86-3.8,4.84-2.56l.78-.06Z"/>
  <path d="M273.87,239.9c2.6,2.79,3.41,5.69,2.44,8.71-2.51,5.56-7.65,10.13-13.3,12.4-1.57.52-2.32-.55-3.32-1.73-1.46-1.73-5.13-2.05-6.05-3.74-2.42-4.44,1.42-6.22,4-8.29,2.95-3.3,6.01-6.61,9.18-9.93l2.31.71c2.09-1.41,3.81-.15,4.75,1.88Z"/>
  <path class="cls-185" d="M132,284c.53-.99,1.26-.89,2,0,2.28-.87,6.43-.72,7.88.95,3.35.54,6.05,1.31,4.24,5.07,3.22-.52,2.31,3.37.09,4.58-1.38,1.02-2.62,2.22-4.99,2.71l-8.22,1.69-8-1c-.5-.05-1.33-.27-1.84-.18-1.55-.28-1.61-1.37-1.46-2.63-6.21-.68-7.1-8.4-.94-10.04,2.04.69,3.98.34,5.83-1.06.73-1.16,4.01-.62,5.41-.09Z"/>
  <path class="cls-185" d="M190.86,235.99c6.96,4.69,4.16,15.43-4.6,14.05l-2.26.86c-.4,1.72-1.06,2.41-2,2.09l-2.75-2.45c-2.64.48-2.76-1.47-1.25-3.55-2.3.55-2.59-3.2-1.98-5-1.51.02-1.46-1.58-.02-2,.83-1.93.84-4.07,0-6v-1c-.49-2.03.79-7.93,1.99-9.92.46-.76,12.89,11.04,13.17,11.89.09.28-.07.64-.3,1.02Z"/>
  <path class="cls-22" d="M266,181.07c4.51,3.05,7.91,7.82,9.85,12.89,3.36,6.42-2.28,15.45-8.78,9.09-.19.92-.52.92-.97.05-3.07-1.24-5.52-3.65-7.37-7.24l-4.31-10.51,1.61-1.54c-.76-2.82,2.6-4.81,4.23-2.27,1.97-.42,3.89-.57,5.75-.48Z"/>
  <path class="cls-185" d="M65.84,202.02c3.34-.48,7.11.87,10.16,1.98,1.41-.65,3.52-.45,3.17,1.28,2.35.7,3.1,4.26,1.42,5.85-6.29.24-9.38,2.4-9.26,6.48l-1.34.39c-5.24-.65-10.87-1.15-15.23-4.25-6.65-6.35-4.4-9.57,4.33-10.77-.07-2.51,5.28-2.56,6.74-.96Z"/>
  <path class="cls-136" d="M224.85,88.83c-1.38,1.27-3.33,1.99-5.85,2.17-.28.83-.62.82-1,0-.26,1.62-2.01,2.22-3,1-1.97.84-3.61.9-4.92.18-2.97-.41-5.74-1.15-8.31-2.23.78-1.72.16-3.49-.81-4.99-2.45,1.47-3.06.15-.87-1.7,3.87-3.94,13.28-6.49,17.91-8.26,7.94-.58,11.59,8.19,6.85,13.83Z"/>
  <path class="cls-139" d="M188.78,83.91c.4,1.01.62,2.17,1.22,3.09,6.57-.62,9.15,6.66,7.05,12.08,2.32,2.31-3.42,5.85-6.14,6.11-1.12,2.12-9.13,4.75-10.52,2.97-2.49-3.21-2.89-12.55-2.03-16.41.64-2.86,7.49-11.78,10.4-7.84Z"/>
  <path class="cls-136" d="M176.65,56.13c3.86,4.05,6.57,9.21,7.19,14.79.41,2.64-.51,2.69-1.78.37.39,7.78-8.61,13.98-11.84,4.94-1.58-2.54-2.42-4.9-2.54-7.09-.57-2.42-1.13-5.52-1.66-9.3-1.09-2.5,4.54-4.11,6.87-4.52,1.4-.24,2.96-.47,3.76.81Z"/>
  <path d="M106.42,58.2c1.09.19.55,1.38-.42,1.8-.55,2.07-1.55,3.76-3,5.07.52,1.72-1.11,4.28-2.8,3.23-6.72,6.73-11.39.99-9.05-6.3-1.83-.71-1.88-3.05-.15-7,1.39-4.17,3.22-6.32,6.38-9.22,1.07-.99,1.95-1.22,2.66-.7-.84,2.47,2.74,2.75,3.7,4.43,1.47,2.58.97,6.27,2.69,8.69Z"/>
  <path class="cls-82" d="M106.92,276c2.49,5.79,8.19,7.22,14.08,7,1.1-.96,5.55-.66,5.59,1.09-.74,1.09-.54,3.19-1.48,3.63-1.32.62-3.02-.74-4.22-.62-2.48.25-2.64,3.38-1.89,4.6,1.11,1.81,3.3,1.39,5.56,1.74.39,1.93-1.31,2.93-1.39,4.38-3.48.64-6.62-1.2-9.9-2.08-1.69-1.87-3.64-3.19-5.87-3.95l-1.17-2.13c-3.03-.8-5.97-1.91-8.83-3.32-.67-.91-2.51-1.94-2.99-3.05,1.11-2.03,3.39-2.91,6.83-2.64-.89-2.98-.41-6.62,2.73-7.65,1.73-1.27,2.87,1.53,2.94,3Z"/>
  <path class="cls-22" d="M99.95,266.11c.31-.88.68-.9,1.12-.08,2.13.21,5.89,4.17,3.07,5.76.85.51.79.92-.16,1.21.04,1.85-.92,3.53-1.44,5.55.9,1.28,2.81,1.69,3.17,3.5.24,1.24-1.43,1.68-2.12,1.74-.73.06-1.61-1.19-2.51-1.18-2.44.01-4.54,1.21-6.67.68-3.76-2.52-6.55-7.95-8.25-12.3l1.08-2.32c-1.85-10.47,7.78-7.15,12.71-2.57Z"/>
  <path class="cls-114" d="M188.78,82.95c.09.29-.11.67,0,.95-3.38.54-5.06,3.24-6.98,5.99-3.83,5.47-3.03,8.31-.39,16.94,3.11-.48,6.88-.08,9.52-1.64.89.16.87.45.03.87.65,2.1-4.78,5.41-6.75,5.04-3.42,2.49-5.16,1.79-5.2-2.1-1.12-1.35-1.78-3.35-2-6-2.03.32-2.18-2.69-1-4,1.13-2.84-.25-7.21-1.24-10.19-1.05-3.18-2.32-6.33-3.76-6.81-1.41-.27-1.45-1.53-.2-2.25-1.77-1.32-2.88-2.34-.59-3.53,1.89,2.08,3.63,3.25,6.27,1.92,5.83-2.91,1.84-6.08,5.57-6.86,1.76.53,2.84,2.14,3.26,4.83.49,2.21,1.65,4.49,3.46,6.84Z"/>
  <path class="cls-89" d="M42.02,142.96c-5.27,4.1-8.43,9.71-9.48,16.82-.64,1.3-1.12,2.05-2.54,1.22-3.01,7.91-2.33,14.28,2.04,19.13l-.04,1-4.71.4c-2.75.23-4.11,4.3-5.26,6.46-3.43-4.21-5.17-9.59-4.98-15.01.53.37.59.94,1.46,2.07.69-2.44,3.51-2.73,5.42-4.23,2.82-2.22,1.1-6.84,1.95-9.74,1.35-4.6,6.76-2.96,5.96-17.73,1.39-.69,3.4-1.65,4.94-1.17,1.68-1.96,4.87-3.34,7.28-1.97,2.51,1.32-.08,2.55-2.04,2.77Z"/>
  <path class="cls-22" d="M282.67,209.8c1.8,7.71,3.51,15.77.19,23.27-7.54,3.07-8.8-.11-10.99-6.95-.9-.29-.87-.64.04-1.05-1.16-5.3-1.62-12.42,3.33-15.61,2.67-1.72,6.37-3.29,7.44.34Z"/>
  <path class="cls-139" d="M213,249.07c1.98-1,5.15.48,6.31,2.28,1.43,1.87,3.58,2.89,5.61,4.85-2.95,5.06-9.32-.08-10.93,8.8l-10-4c-1.35-.89-2.02-2.51-1.99-4.84-12.66-9.75,3.1-9.98,10.99-7.09Z"/>
  <path class="cls-139" d="M267,82c3.77,2.42,7.36,5.21,9.87,8.95.19.47.31.92.21,1.32-.39,1.57-1.6,5.84-3.09,5.6l1.31,2.44c-4.76,3.74-10.28,1.92-16.56-5.46-5.66-5.15,1.96-13.48,8.26-12.86Z"/>
  <path class="cls-202" d="M146,32.01c1.14.39,2.87.67,4,.99,1.23,4.94-5.35,9.29-9.23,11.73l-1.05.87c-3.65-.76-7.33-1.03-11.03-.81-2.76,1.17-5.31,1.95-7.67,2.35.26-2.03,2.05-5.41-.13-6.87-1.12-.75-2.99-.7-3.33-2.09-.16-.66-.35-1.61.65-2.6,6.66,5.76,2.86,4.27,15.73,5.2l-3.6-9.51.26-.69c5.11.4,10.24.88,15.39,1.43Z"/>
  <path d="M161,39.25c1.38,1.72-.59,9.17-3.56,7.49.47,1.38-.69,2.18-3.49,2.38-1.18,2.68-6.25-.07-7.8-1.9-1.79,0-6.24-.51-5.38-2.49-.7-2.48,2.35-4.15,4.42-5.66,2.37-1.73,2.51-4.8,4.81-6.08,4.09,1.16,8.71,2.47,11,6.25Z"/>
  <path class="cls-29" d="M193.97,237.68c3.73,5.27,9.04,7.39,15.01,9.34.2-2.16,2.81-.19,4.02.98.87.31.86.66,0,1.07-1.96.89-4.27,1.2-6.23-.55-2.62.11-5.09.44-7.8,1.25,1.54,6.7,6.6,1.35,5.03,11.23-6.47-2.59-11.95-7.09-17.74-10.95,3.06-1.17,6.94-4.4,7.28-8.84.15-1.92-2.2-3.59-2.68-5.21-.08-1.49.45-1.27,1.35-.09,1.23-.72,2.51.45,1.76,1.77Z"/>
  <path class="cls-185" d="M250.9,75.05c4.28,1.19,4.83,2.43,2.38,5.94,1.1.33,2.19,1.16,2.03,2.35-.35,2.52-16.18,4.28-17.66,3.56-.26-.12-.41-.47-.53-.87-3.58-1.33-4.31-3.78-2.21-7.35-.39-2.13-.05-3.89,1.01-5.29,5.18-1.24,10.15.09,14.98,1.67Z"/>
  <path d="M44.1,127.93c3.36-.05,4.4.15,5.21,3.8l-5.25,8.46c-2.28,1.58-4.55,2.82-7.28,1.97.37-2.08-2.58-2.91-3.01-4.16-2.86.27-4.68-2.35-3.53-5,2.09-4.34,6.54-6.44,10.22-9.14,2.52-.88,4.8,1.66,3.65,4.07Z"/>
  <path class="cls-129" d="M59.76,116.28c-.4.51-.25,1.13.19,1.82,3.14,4.91-2.11,6.94-.4,9.86.6,1.04,6.6.29,10.53.16.34,1.38-.7,2.22-3.11,2.54l-14.3,2.81c-2.39,1.75-4.68,3.61-6.85,5.57.98,1.83-.19,2.49-1.76,1.14-.09-2.66,4.73-5.16,2.95-9.26-.46-1.06-1.65-2.09-2.91-3,.91-2.26,1.92-4.64,4.11-5.92,1.89-.45,3.55-1.72,4.99-3.82l6.56-1.9Z"/>
  <path class="cls-64" d="M98.73,262.72c1.64-.31,2.07,2.26,1.22,3.38-3.24-.36-6.67-1.13-9.87-3.14-1.85,1.96-1.03,4.1-.81,6.44.15,1.54-2.1,1.7-3.12,1.58-.48-1.23-1.25-2.62-1.15-3.99-.74-2.47-1.04-4.8-.9-7.01.42-2.1,3.11-2.04,4.58-3.32,12.75-11.18.75-23.37,9.05-29.41.68.24.78.59.67,1.18-1.9,10.51-4.45,24.57.34,34.27Z"/>
  <path class="cls-2" d="M282.67,209.8c-3.42-1.18-8.58,1.96-10.2,5.53-1.46,3.21.13,6.8-.57,9.73l-1.61.02c-.63-5.3-1.45-10.69-2.45-16.19-1.55-2.23-1.81-4.18-.77-5.85,1.48-.12,3-.04,4.85.35,5.21-3.16,1.35-7.48,3.93-9.45,4.72,3.78,5.54,10.35,6.83,15.85Z"/>
  <path class="cls-82" d="M235.92,73.38c1.39,2.95,1.61,6.39-.68,9.24.9,1.39,1.39,2.38,1.87,3.4-1.8.48-3.85.77-6.16.85l-4.68,1.93c-.23.93-.81.8-1.43.02-.46-3.61.89-9.36-2.36-11.24l-4.49-2.59c.98-.37,3-.69,4-1,3.75.45,7.75.12,12-1,.6-.06,1.34.52,1.92.38Z"/>
  <path class="cls-69" d="M259.15,81.22c.9-2.1,4.17-1.37,5.78-.06.91-.1,1.4.42,2.07.85-3.26,1.06-11.25,8.02-8.26,12.86-1.46,1.55-3.32.04-2.85-1.9-1.82-2.26-3.97-3.71-6.42-4.33-7.97-.38-15.7-.32-23.19.18,2.76-3.71,6.9-4.46,10.84-2.78,2.34,1,15.39-2.12,16.12-2.83.46-.45.44-1.45.05-2.21l1.53-1.82c.97,2.19,2.41,2.87,4.35,2.05Z"/>
  <path d="M242,267.82c-.2-.14-.74.03-1,.05-2.89,1.13-6.06.98-9,.13h-6c.21-2.19-.63-5.71,1.48-7.65,4.36-4.01,11.98-2.79,15.17,1.92,1.44,2.14.69,4.37-.64,5.56Z"/>
  <path class="cls-29" d="M178,247c.79,2.45,2.71,3.85,4,6-1.11,1.34-2.34,1.71-3.68,1.11-.44,1.42.32,2.54,2.28,3.35l-.72,3.54c-2.33,5.7-5.79,12.77-10.78,16.68,1.18-2.68.35-4.23-.75-6.79.54-4.56,5.76-7.55,8.52-10.65-3.58-4.48-.25-3.87-2.9-9.37-2.54-.5-.93-3.96,1.13-3.82,1.22-1.37,1.85-1.56,2.89-.04Z"/>
  <path class="cls-180" d="M59.1,202.98c-.76.46-1.75,1.55-3.22,1.75-2.45.34-3.97,2.77-2.75,5.01.81,1.49,1.43,2.7,1.64,4.01-1.16-.16-2.65-.13-3.77-.75-2.19-3.84-6.64-5.58-10.71-6.13-.74-.72-2-1.15-2.87-1.75.44-.68,1.06-1.28,1.65-1.58,1-.52,1.66.07,2.91.41.09-1.24-1.3-2.6-.49-3.28,1.69-1.42,3.39-2.21,4.5-3.68l2.51-.33c1.72,4.47,5.57,5.54,9.93,5.16l.67,1.17Z"/>
  <path class="cls-17" d="M100.2,68.29c-.36,4.05-1.22,7.91-2.55,11.6l-6.17-6.5c-1.74.41-4.27,1.49-6.22.49-1.15-2.21,1.07-4.67,1-6.66,1.09-2.18,2.35-4.28,3.77-6.3l1.12,1.07c.99,2.64,2.02,4.96,2.39,8.34,2.62-2.22,4.47-2.68,6.65-2.04Z"/>
  <path class="cls-74" d="M163.91,40.98c-1.34,4.25-.54,7.2,3.92,8.99,1.94-1.76,2.38-1.48,2.09,1.15,2.1.58,4.15,1.38,5.72,2.99.1.58.6,1.59,1.01,2.02l-10.63,3.71c-1.5-3.35-3.49-6.52-5.96-9.5-1.88-.89-2.75-2.09-2.62-3.6,1.69-2.25,2.14-5.1,3.56-7.49,1.06.26,2.33.64,2.91,1.73Z"/>
  <path class="cls-147" d="M81.17,205.38c2.22-.19,3.54.9,3.96,3.26,4.76-2.35,17.26-2.09,14.84,5.41-1.52-1.8-3.39-3.72-5.52-3.52-2.63.24-5.96.6-6.42,3.58-.36,2.32.5,5.44-2.23,5.75-1.59-.72-2.3-2.29-2.11-4.71-2.03-1.54-10.56-1.48-10.47,1.94,2.64.46,2.38,1.4-.23,1.9-1.1.04-2.01-.88-3-1,.02-11.22,13.58-3.05,9.17-12.72.05-1.61,1.62-1.51,2,.1Z"/>
  <path class="cls-201" d="M200.09,83.26c.15.57.32,1.37.87,1.7l1.24,3c1.47,2.06.76,4.35-2.14,6.87,2.6,1.51-1.34,3.9-3,4.25-1.66-1.73-1.15-4.05-1.6-6.35-.59-3-4.1-3.68-5.45-5.73l10.09-3.74Z"/>
  <path class="cls-2" d="M282.86,233.07c-.2.45-.23,1.29-.18,1.79-3.16,1.54-5.42,3.64-6.76,6.3l-2.06-1.27c-2.21.53-3.17-.52-4.75-1.88-.75-1.27-.58-2.85.5-4.72-.29-3.38.45-5.77,2.24-7.18,2.19.7,3.22,2.79,3.62,5.41,2.6,1.01,5.03,1.42,7.38,1.55Z"/>
  <path class="cls-123" d="M113.26,295.74c-6-1.62-12.16-4.35-15.87-9.4,2.33-1.76,4.14-.03,6.68.82,1.9.63,4.15.05,4.48,3.28,3.16.41,4.61,2.77,4.71,5.29Z"/>
  <path class="cls-130" d="M53.2,118.18c-.72,9.85-3.14,1.12-6.59,8.96-.44,1-1.49,1.15-2.51.78-1.52-1.09-2.69-2.42-3.65-4.07,3.87-2.84,8.11-4.33,12.74-5.67Z"/>
  <path class="cls-17" d="M97.26,99.8c-3.58.77-9.49,6.22-11.26,9.2.69-1.84-.69-3.39-1-5,2.46-.18,3.46-2.89,5.46-4.37,7.16-5.31,4.34-6.18,7.54-11.63.64,1.63.82,9.55.36,10.84-.14.4-.58.7-1.1.96Z"/>
  <path class="cls-131" d="M85.81,219.87c-.6.07-1.22.03-1.81.13-.25-.49-.88-.87-1.19-1.26-3.25-.77-6.44-1.32-9.58-1.64-.35-.24-.77-.61-1.06-.98-1.74-2.21,8.72-4.95,12.01-3.34,2.46,1.21,1.42,5.17,1.64,7.08Z"/>
  <path class="cls-51" d="M159.1,286.02c-3.12,2.04-6.21,4.34-9.25,6.88-.88.54-2.61,1.38-3.63,1.7.51-.96.59-3.52-.09-4.58-2.46-2.66,6.33-8.47,8.65-6.92,1.28,1.38,4.38.66,4.33,2.92Z"/>
  <path class="cls-193" d="M33.76,138.01c-.47,2.18-1.73,4.12-4.25,3.98-1.76-.1-3.18-1.62-4.44-2.94,1.58-2.13,2.11-5.29,5.16-6.04,1.36,1.4,3,3.45,3.53,5Z"/>
  <path class="cls-68" d="M73,114c.9-2.45,14.68.49,14-2l.98.68c1.37.96-2.92,1.41-4.7,4.58-1.07,1.89-3.22,2.13-5.19,1.28-1.15-.5-2.03-1.93-1.63-4-1.37-.41-2.4-.48-3.45-.54Z"/>
  <path class="cls-162" d="M282.68,234.86c.12,1.19-.78,2.15-.95,3.23l-.69,1.92c-1.28-.24-2.06,1.43-2.33,5.01-.09,1.38-1.9,2.58-2.4,3.58-.05-3.27-4.4-4.52-2.44-8.71,3.56-.86,3.9-7.13,8.81-5.04Z"/>
  <path class="cls-177" d="M277.96,93.17c.39,2.37,1.21,3.63,2.48,3.78l2.39,3.78c.34,1.27,1.48,2.99,2.02,4.31-.92,0-1.85-.09-2.78-.03-3.75.28-10.06-3.38-8.07-7.13.08-2.52,1.44-4.97,2.88-6.92.45.67.97,1.42,1.09,2.21Z"/>
  <path class="cls-205" d="M259.02,174.22c1.55,2.28,3.45,4.2,5.68,5.76.26.36.91.82,1.3,1.08-2.4-.11-3.92,1.25-4.75,4.06-1.17-1.25-.95-2.95-2.56-2.81-.83.07-1.79,1.06-2.66,1.5-2.71,1.08-3.28-1.16-1-2.74.74-2.96,4.88-5.06,1.98-8.08,1.01-.22,1.38.81,2.02,1.22Z"/>
  <path class="cls-138" d="M262,262c-.37.91-10.35,5.23-15.01,5.12.4-.53,1.46-.89,1.69-1.62.16-.54-1.77-1.84-1.33-2.19,6.76-4.05,8.24.47,14.65-1.3Z"/>
  <path class="cls-101" d="M182,253c.89-.46,1.21-1.79,2-2.09.07,3.78-2.76,6.78-4.12,10.09.5-1.98-1.14-2.3-2.57-3.42-2.07-1.63-1.08-5.12.96-6.95,1.27,1.07,2.23,2.27,3.73,2.38Z"/>
  <path class="cls-58" d="M183.84,70.91c4.04,2.47,3.62,7.76,4.94,12.04-1.04-1.67-2.87-2.04-5.48-2.51.91-3.39-.5-6.23-1.24-9.16l1.78-.37Z"/>
  <path class="cls-175" d="M100.04,45.09c-.91.09-1.78.48-2.66.7,2.92-2.68,4.38-5.78,8.24-7.37-.7,2.45,1.16,3.53,3.31,6.28-3.43-.11-6.07.1-8.89.39Z"/>
  <path class="cls-142" d="M51,213c-3.62-2.02-7.72-3.21-10.71-6.13.46-.21.12-1.46.5-1.32,4.15,1.58,10.93.74,10.21,7.44Z"/>
  <path class="cls-190" d="M172.81,51.01c-.5,1.1-1.46,1.14-2.89.11-.55-.49-1.65-.52-2.09-1.15-3.37-.69-6.86-6.22-2.86-7.72,3.21,2.12,6.81,5.04,7.84,8.75Z"/>
  <path class="cls-52" d="M146,32.01c-2.64.21-4.86,1.18-7.98,2.19-1.26-4.29-4.66-2.9-7.67-2.93-1.61-.01-3.78.06-5.34-.27,6.6-2.17,14.41-1.23,21,1.01Z"/>
  <path class="cls-3" d="M225,268c-2.09-1.33-4.81-1.01-7-2-.91-2.85,3.39-5.82,5.74-4.92.23,2.33-.19,5.26,1.26,6.92Z"/>
  <path class="cls-105" d="M159.1,286.02l1.9-.15c-2.94,2.43-7.24,6.5-11.15,7.03-.32-.61-.98-1.28-.78-2.14s2.09-.17,2.39-.62c1.94-2.94,4.42-3.87,7.64-4.12Z"/>
  <path class="cls-94" d="M256.83,77.14c.86,1.22,1.63,2.58,2.32,4.08-.19.36-.4.69-.65.97-1.21,1.34-2.97-1.38-5.23-1.21-.4-.77-1.35-1.23-.9-2.23.29-.66.52-1.24,1.27-2.09-1.02-.36-1.97-.87-2.74-1.61,2.28.75,4.05.32,5.94,2.09Z"/>
  <path class="cls-197" d="M91.15,62c-3.62.44-.54,5.57-4.9,5.23-.15-4.64,3.42-8.24,4.74-12.23.02,2.21-.66,4.84.15,7Z"/>
  <path class="cls-195" d="M264.93,81.15c-1.95.21-3.97,1.07-5.78.06-.95-.41-2.69-.23-3.17-1.62-.23-.67.47-1.77.84-2.46,2.23,1.22,6.8.49,8.1,4.02Z"/>
  <path class="cls-5" d="M164.97,42.25c-2.03,2.91,1.09,5.18,2.86,7.72-2.03,1.12-4.31-1.26-5.26-2.92-1.32-2.3-.23-4.32,1.33-6.08.21.4.69,1.03,1.06,1.28Z"/>
  <path class="cls-143" d="M82.81,218.74c-3.26.33-6.54.13-9.81.26l.23-1.9c1.85-1.87,4-1.41,6.35,0,1.1.66,3.13-.04,3.23,1.64Z"/>
  <path class="cls-56" d="M282.83,100.73c-1-.51-1.23-1.84-2.24-2.23-1.81,2.11-2.42-.17-2.96-.94-.9-1.29-1.03-3.68.33-4.39,2.57,1.78,4.09,4.65,4.86,7.56Z"/>
  <path class="cls-182" d="M271,157.97c-1.36.89-6.26,7.43-8.6,6.69,4.22-4.4.03-6.37,8.6-6.69Z"/>
  <path class="cls-164" d="M281.73,238.09c-.42,2.66-.83,5.39-3.02,6.93-.3-.53-.04-.66-.59-2.3-2.22-.3.18-3.94,1.28-5.07.76.08,1.72,1.12,2.34.44Z"/>
  <path class="cls-12" d="M283.07,137.2l.96.83c-1.5,2.79-2.13,5.33-4.03,7.97l.08-1.83c-1.28-2.39-2.22-4.79-2.82-7.2,1.3-1.79,3.24-1.71,5.82.22Z"/>
  <path class="cls-88" d="M234,73c-1.68,1.83-4.19.35-6.29,1.51.47,2.02,1.04,1.27,1.39.9,1.02-1.07,1.34,1.27.55,1.6-2.8-.23-5.27-1.92-7.65-3.01,3.3.02,8.48-1.49,12-1Z"/>
  <path class="cls-27" d="M264.7,179.98c-1.11.28-1.95,1.04-3.83,1.01.28-3.09-1.13-4.72-1.85-6.77,2.3,1.49,4.49,3.25,5.68,5.76Z"/>
  <path class="cls-5" d="M172.81,51.01c1.15.67,2.56,1.57,2.83,3.1-2.22-.22-4.08-1.53-5.72-2.99.96.13,1.94.12,2.89-.11Z"/>
  <path class="cls-78" d="M85,267c-2.11-1.7-1.29-4.81-2-7h1.1c.25,2.51,2.41,4.65.9,7Z"/>
  <path class="cls-106" d="M241,267.87c-2.08,2.03-6.71,1.78-9,.13,3,0,6,.08,9-.13Z"/>
  <path class="cls-170" d="M133,299c-2.57.53-5.93.56-8-1,2.65.45,6.06-1.16,8,1Z"/>
  <path class="cls-61" d="M103.2,107.95c3,6.78,5.22,13.82,6.66,21.13,1.18.41.69,1.6-.34,2.4-16.88-2.66-34.34-2.02-50.97,3.03l-1.54-.51c-2.64,1.8-5.79,3.58-8.83,4.75-.17,1.71-1.64,1.97-2.35.3,6.96-14.28,11.24-3.28,24.26-10.92,5.97-.19,12.19.64,17.92-1.13,4.4-1.5,8.06-1.17,11,1,.56.2,1.4-.01,2,0,1.9.75,4.23,1.03,6.02-.17.11-3.4-1.93-6.56-3.02-9.83-3-1.8-3.09-8.15-2-11-.15-1.93.61-1.93,1.14.02.92.03.89.36.06.93Z"/>
  <path class="cls-97" d="M103.2,68c-2.6,6.17-3.85,12.68-3.76,19.54.78,4.71.88,9.15.3,13.33-.8-.41-1.63-.78-2.49-1.07,0-.71-.83-1.85-.73-2.72,1.5-3.03,1.53-6.02,1.47-9.08-.05-2.71.12-5.42-.35-8.1,1.44-6.14-.8-5.67,2.55-11.6,1.59-.53,2.23-1.83,2.8-3.23.26-.62.6-.63,1-.07,2.06.23.85,2.76-.8,3Z"/>
  <path class="cls-95" d="M103,71c.38,1.13.4,3.48-1,4l-1,6c.88.33.88.67,0,1-.88,3.51-.87,7.48,0,11,.9.1.85.45,0,1l1,7c.89.33.89.67,0,1,.59,1.21,1.02,2.99,0,4-.28.87-.62.86-1,0,0-1.85-1.12-3.38-1.25-5.13-.45-6.09-2.48-29.32,3.46-32.87,1.54-.12.68,2.11-.2,3Z"/>
  <path class="cls-53" d="M102,107c-.82,3.98.8,7.39,2,11-.72,0-1.53-.07-2.04-.45-.66-.49-1.01-1.37-1-2.51l.04-9.05h1c.73.26.71.59,0,1Z"/>
  <path class="cls-53" d="M99,128c-3.53-1.29-7.28-1.05-11-1,3.27-1.01,9.43-3.98,11,1Z"/>
  <path class="cls-53" d="M107.02,127.83c-.07,2.16-5.29,1.68-6.02.17,2.01.05,4.01-.1,6.02-.17Z"/>
  <path class="cls-69" d="M240.62,177.58c-.34.36-.63.62-.74.56-1.67-.93-11.55-7.35-11.86-7.99-.15-.31-.11-.72-.01-1.15l.23-1.16c5.27-2.15,10.18-4.82,14.72-8.02-1.02-2.73.88-3.75,2.98-1.81,5.45-2.79,10.08-6.42,13.89-10.91-.77-.2-.83-.54-.18-.99,1.55-3.62,3.36-5.32,5.43-5.11.09,1.74-1.74,2.83-2.25,4.68-1.48,5.4-4.57,10.36-10.49,11.53-4.23.84-6.75,3.54-9.78,6.32-6.52,6-2.42,4.61-1.94,14.04Z"/>
  <path class="cls-102" d="M283.07,137.2c-1.34.75-2.76-.19-4.57.39.97,2.2,3.52,1.95,3.14,3.39-.32,1.21-1.16,2.16-1.57,3.19-1.71,2.28-5.38-5.32-8.18-6.26s-5.37,1.73-6.82,3.09c-2.24-.11.67-3.6,1.93-5-.88-.18-.85-.52,0-1l2.43-1.1c1.78-4.53,2.64-9.49,2.57-14.9,1.99,4.51,3.19,9.13,6.76,13.24l4.31,4.96Z"/>
  <path class="cls-69" d="M240.62,177.58c3.53,4.65,8.66,5.15,14.4,3.5l1,2.74c.76,2.09.93,4.52,2.08,6.9.86,1.79.37,3.61.62,5.14-1.58,1.55-3.01-.06-1.71-1.88-2.62-4.26-5.96-7.59-10.01-9.99-2.46.48-5.14-1.63-6.01-3.99-4.42-2.3-8.76-4.97-13-8-1.14-.55-1.77-.86-1-2-1.09-1.15-.54-1.55,1-1l12.62,8.58Z"/>
  <path class="cls-131" d="M89,205l10.83.93c4.01.92,2.15,6.27,1.01,9.14l-.86-1.02c.12-1.48-1.05-3.49-2.76-4.26-4.77-2.13-9.5-.2-14.12,1.92-.4-3.07-.25-5.11-1.93-6.34.57-2.06,5.94-1.58,7.83-.38Z"/>
  <path class="cls-44" d="M99,230c-1.72,10.62-1.69,20.52,0,31,1.1.34,1.1,1.76-.27,1.72-4.63-1.97-6.21-7.71-3.25-12.18,1.12-4.12.09-8.26.41-12.55.29-3.86,2.1-7.25,1.84-10.73.4-.29,1.05-.84,1.28-1.27,1.14.2,1.14,1.53,0,4Z"/>
  <path class="cls-128" d="M103,211c.26,4.13-.9,12.04-4,15-1.27-3.7,1.87-7.11,1.84-10.92-.01-1.82,1.25-5.83-.84-7.18-3.38-2.19-7.72-1-11-2.89,5.49-.5,11.04-1.06,16.63-1.68-.5,2.63-1.38,5.19-2.63,7.68Z"/>
  <path class="cls-154" d="M176,234c.86,1.88.87,4.12,0,6l.02,2c-.4,1.46-.22,3.01.53,4.64l-1.45.4c-.35,1.12-1.8,2.45-1.13,3.82-8.04,2.37-4.55,9.78-10.93,14.05l-6.86,4.6c-.58-.1-.5-.34.09-.67-1.62-.64-.54-1.91.94-1.75-.21-2,1.66-3.89,3.55-4.13,1.57-1.88,2.98-3.87,4.22-5.98-1.84-.77.01-4.79,2-4,.83-2.07,1.83-3.07,3-3l3-4c-.56-2.05-.21-6.09,1-8-.36-1.35.57-4.48,2-5v1Z"/>
  <path class="cls-149" d="M154.77,283.09c-2.6,2.7-6.57,3.84-8.65,6.92-1.07-1.66-2.72-3.88-4.24-5.07l6.88-3.45c.71-2.55,1.71-3.75,2.99-3.59,1.08,1.63,1.67,3.73,3.02,5.19Z"/>
  <path class="cls-8" d="M156.19,269.52c-2.72,1.83-3.77,5.12-4.44,8.38-1.69.68-1.06,3.1-2.16,4.62-1.77,2.44-5.28,2.4-7.71,2.42-2.56-.48-5.3-1.09-7.88-.95-.75-1.03-.11-1.23,1.07-1.47,7.18.04,11.46-.65,14.98-7.52-1.73-1.51-1.52-2.07.77-2.13,1.84-2.85,3.66-4.19,5.47-4.03l-.09.67Z"/>
  <path class="cls-33" d="M273.99,97.87c1.98,3.15,5.5,4.53,8.07,7.13-6.65.38-2.92,5.59-9.65,10.76-1.31-2.72-2.28-5.96-2.91-9.69-1.66-1.48-3.15-3.06-4.47-4.76-2.36-.37-6.67-4.51-6.3-6.45,3.81-.31,5.89,7.14,10.66,6.18,2.2-.44,4.51-.48,4.59-3.16Z"/>
  <path class="cls-109" d="M272.41,115.76c-.18,1.07-.34,2.15-.41,3.24-.23,3.65,1.65,18.55-5,16-.85-.29-.87-.63-.06-1.01.32-.86.65-.84,1.01.04,2.52-10.06,3.66-21.01-3.34-29.68l.61-1.44c-1.12-.89-1.18-1.42-.18-1.6,1.11,1.11,3.06,1.17,4.59,2.23,4.18,2.88.53,8.57,2.78,12.22Z"/>
  <path class="cls-131" d="M43.92,188.87c2.05-.36,3.68,1.21,2.06,3l3.29,2.91c.15-.9.41-.87.77.02,2.29,3.36,6.08,4.63,9.97,4.89.61-2.07,5.3-.64,5.98,1.22.82.44.76.81-.15,1.11-2.05-.6-4.74.97-6.74.96l-5.22.4c-3.24.25-5.43-4.29-7.89-6.4-1.29-1.1-.99-3.13-1.41-4.77-.38-1.49-2.13-2.12-2.57-3.37.56-1.94,1.4-1.93,1.9.03Z"/>
  <path class="cls-116" d="M41.09,184.19c2.58-2.06,4.99-.23,3.84,2.85,2.37,1.65,1.64,2.36-1.02,1.84-.63-.05-1.27-.06-1.9-.03-.45-1.27-1.52-2.38-2.75-2.9-1.23-1.02-1.34-1.72-.34-2.1.41-.78,1.13-.66,2.17.34Z"/>
  <path class="cls-191" d="M34.88,179.86c1.54-2.37,4.17,2.21,4.05,3.98.19.69.31,1.39.34,2.1-4.72-2.01-2.12-5.25-7.27-4.81-4.29-3.37-6.45-7.71-4.41-13.2,1.03-2.75.13-5.25,2.41-6.93l1.33.32c-1.32,6.22-1.89,14.22,3.55,18.54Z"/>
  <path class="cls-175" d="M118,48c.87.28.86.62,0,1-4.92,1.86-7.33,4.98-10.08,9.05,1.36,1.48.05,4.12-1.92,2.95-.47-.25-.43-.59,0-1l.42-1.8c1.97.56-.79-11.63,4.95-11.61,2.46,0,4.45,2.15,6.63,1.41Z"/>
  <path class="cls-103" d="M140.77,44.73c1.05,1.97,3.96,1.3,5.38,2.49.59.4.54.76-.13,1.09-1.76.32-3.81-.09-6.15-1.22-4.56-.89-9.18-.92-13.86-.09-1.59,1.37-4.86,2.65-7,2-.29.7-.63.68-1,0v-1c.95-.32,2.21-.34,3.03-.86l4.24-2.69c4.46-2.83,10.5.31,15.5.29Z"/>
  <path class="cls-183" d="M266.09,203.1c.3.06.67-.03.97-.05,7.87,12.32.45,16.4,4.84,22.02-.08.33-.04.71-.04,1.05.03,4.05.62,9.2-2.75,11.9l-11.49,9.23c-.25.05-.53,0-.78.06-1.2-1.52.83-2.49,2.34-3.21l-.58-1.33c3.38-2.51,5.34-5.13,7.34-8.76,2.78-11.27,1.4-21.2-4.14-29.79l.2-1.2c.02-2.01,1.38-1.98,4.09.1Z"/>
  <path class="cls-76" d="M252.01,249.86c-1.35,1.31-2.63,4.63-5.17,4.83-24.51,1.87-19.5-2.77-24.84-2.69-.87-.28-.86-.62,0-1l.56-.93c8.63,2.31,17.86,2.46,26.44-.07.67-1.14,2.8-1.96,3.01-.14Z"/>
  <path class="cls-166" d="M259.19,244.08c-.9.98-1.71,2.04-2.34,3.21-1.79.46-3.5,1.27-4.84,2.56l-3.01.14c-.87-.28-.86-.62,0-1-.9-1.13-.21-1.6,2.07-1.4-.39-2.97,2.15-3.43,3.92-1.49,1.8-3.05,3.2-3.73,4.2-2.03Z"/>
  <path class="cls-127" d="M222,251v1c-.7.01-1.96-.62-2.69-.66-1.75-.86-4.18-2.25-6.31-2.28v-1.07h1c1.85-2.41,6.54,1.18,8,3Z"/>
  <path class="cls-98" d="M134,284c-.65.04-1.36-.01-2,0-.87-.28-.86-.62,0-1,1.03-1.88,6.68-2.3,9-2l3.95-2.17c-1.07-2.74,2.55-5.43,5.09-3.82.04,2.74-1.48,5.27-3.1,6.6-4.52,3.68-12.18-.48-12.95,2.39Z"/>
  <path class="cls-10" d="M106.16,272.09c1.68.6,3.21,1.76,4.6,3.48,3.78,3.67,9.37,4.84,15.06,5.96,2.62-.01,4.68.48,6.17,1.46v1l-5.41.09c-1.24-1.87-4.1-.64-5.59-1.09-5.82.35-11.66-1.27-14.08-7-1.08-.38-1.34-3-2.94-3,0-.38.26-.85.16-1.21,1.08-2.54,1.74-2.44,2.03.3Z"/>
  <path class="cls-145" d="M191.97,234.85c.81.15.88.51.24,1.06l-1.35.09c-.78-2.62-3.9-3.03-5.87-4.95-2.44-2.38-3.54-5.74-6.73-7-1.36,3.16-1.22,6.35-2.26,8.96l-2,5c-.28.87-.62.86-1,0-.51-.29-.9-.56-.86-.72.99-4.27,2.56-10.01,4.86-13.28-.94-1.79-.54-3.53,1.85-2.6,3.95,4.37,8.4,8.09,13.37,11.18l-.25,2.27Z"/>
  <path class="cls-22" d="M178,247c-.86.76-2.02.81-2.89.04.51-1.63-.24-3.61.92-5.04-.6,2.05,1.43,3.32,1.98,5Z"/>
  <path class="cls-22" d="M176,240v-6c1.68,1.25,1.68,4.75,0,6Z"/>
  <path class="cls-2" d="M266.09,203.1c-1.36-.27-2.77-.65-4.09-.1-1.33.36-2.14-2.18-1.36-3.26-1.87-.47-3.91-2.63-1.92-3.88,2.86,1.96,4.76,4.97,7.37,7.24Z"/>
  <path class="cls-187" d="M106,205c.87.28.86.62,0,1-.41,3.04-1.41,4.71-3,5-.5-2.49,1.62-4.06,2.27-7.27-6.04,1-11.05,1.65-16.27,1.27-2.02-1.17-5.66.75-7.83.38-.6-.1-1.46.16-2-.1-1-.55-1.99-1.2-3.17-1.28-.87-.28-.86-.62,0-1,.11-.82.44-1.35,1.15-1.4,9.73,1.91,19.58,2.2,29.55.87,1.37.93.82,2-.7,2.53Z"/>
  <path class="cls-128" d="M69,201c1.39-2,6.72-.57,7,2v1c-3.45-.24-6.95-.71-10.16-1.98l.15-1.11c.42-1.17,2.22-.91,3,.09Z"/>
  <path class="cls-157" d="M210.08,92.18c1.64-.12,3.28-.18,4.92-.18.07.49.09.89-.06.97-2.53,1.37-6.13,2.37-8.94,3.03.57,1.16-.98,1.91-2,1-1.85,1.01-3.18,2.1-4,3.29,1.4,2.39-3.72,5.15-6.02,4.58-.39,1.46-2.03,2.72-3.03,1.19l-.03-.87c2.66-1.57,5.18-3.24,6.14-6.11.49-1.47,2.85-2.49,3-4.25.56-3.41,7.35-4.78,10.02-2.65Z"/>
  <path class="cls-77" d="M210.08,92.18c-3.49.27-6.55,2.19-10.02,2.65l-.62-2.49c-.54-2.18,4.11-.97,1.52-7.38,1.32.8,1.07,3.51,3,4.04,2.64.72,5.36.67,6.12,3.19Z"/>
  <path class="cls-83" d="M229,90c.87.28.86.62,0,1-.5,3.25-6.01,4.57-8,2-1.51.96-2.51.96-3,0-2.25-.11-2.25-.78,0-2,.23-.1.72,0,1,0,1.93-.55,4.08-1.05,6-1,.43-.98,3.34-1.09,4,0Z"/>
  <path class="cls-84" d="M218,93c-2.06,2.07-6.09,3.21-9,3-1.6.78-2.6.78-3,0l9-4c.81-.36,2.31-.2,3-1v2Z"/>
  <path class="cls-69" d="M224.85,88.83c1.75.08,1.83.56.15,1.17-1.61,1.54-3.94,1.01-6,1,1.5-1.54,3.92-1.34,5.85-2.17Z"/>
  <path class="cls-111" d="M153.95,49.12c5.38-2.68,8.94,4.3,10.73,8.72,1.32,3.27,2.32,7.99,3,11.3,1.26,2.18,2.34,4.64,2.54,7.09-2.52,1.36-4.05-4.38-4.14-6.39-1.88-1.65-4.87-5.94-6.06-8.55-.1-.22.32-.67.88-1.19-2.39-3.04-4.78-5.79-8.01-7.98-2.06.95-5.98-1.77-6.87-3.8l.13-1.09c2.33,1.96,5.27,1.08,7.8,1.9Z"/>
  <path class="cls-5" d="M157.44,46.74c5.5,1.83,7.65,7.77,8.57,13.09s4.34,9.99,1.66,9.3c-3.23-5.58-2.17-16.26-13.72-20.01-.24-.92.29-1.56.81-1.82.88-.44,2.11-.21,2.68-.56Z"/>
  <path class="cls-17" d="M106,61c2.09,1.23.23,4.8-2,4l-1,.07c.74-1.82,1.5-3.8,3-5.07-.07.32.02.67,0,1Z"/>
  <path class="cls-99" d="M121,283c-5.33,2.71-13.41-.86-14.08-7,1.84.65,2.25,3.44,4.13,4l9.95,3Z"/>
  <path class="cls-155" d="M108.18,271.19c-.06,2.5-.14,2.55-2.01.91-.66-.2-1.34-.3-2.03-.3-.58-2.13-1.78-3.99-3.07-5.76-.97-.3-1.39-2.59-.19-3.04,3.19-.48,9.56,4.87,7.3,8.2Z"/>
  <path class="cls-42" d="M100.87,262.99l.19,3.04c-.37-.02-.75.12-1.12.08-.18-1.2-.58-2.35-1.22-3.38-.07-.54.39-1.2.27-1.72-.59-1.86.2-2.03,1.21-.26,2.55.27,2.49.53.66,2.26Z"/>
  <path class="cls-11" d="M176,99c-.51-1.5-.79-3.26-.85-5.28-2.55.25-3.11-4.82-1.97-6.74-2.28,0-3.14-3.2-2.18-4.98.3-.1.65-.23,1.32-.55,2.22,2.27,6.84,16.71,3.68,17.55Z"/>
  <path class="cls-137" d="M193.85,106.89c1.58,3.21-5.95,6.96-8.72,5.97-.37,3.04-1.09,3.54-3.13,1.14-.62-.3-.6-.63,0-1-.24-.87.49-1.5,2.2-1.9,2.09-1.91,4.86-2.89,6.75-5.04l3.03-1.19c1.72-.2,1.68.48-.13,2.02Z"/>
  <path class="cls-87" d="M170.22,76.22c.1,1.18.36,2.36.59,3.53-.23,1.18-.84,1.18-1.85.02-4,1.36-5.96-6.16-3.76-8.84-.57-1.37-.57-1.65.89-1.1,1.07,2.01,2.6,4.7,4.14,6.39Z"/>
  <path class="cls-200" d="M179,109c.18,1.75,1.18,3.08,3,4v1c2.44,1.38,1.69,2.56-1.01,2.05-2.85,4.54-3.81-1.76-4.15-4.89-2.46-.9-2.04-2.2.16-3.16-1.34-2.42-1.34-4.09,0-5,1.33,1.79,1.94,3.99,2,6Z"/>
  <path class="cls-148" d="M176,99c-.22,1.28.23,2.97,1,4,.42,1.52-.56,3.53,0,5-3.87.95-3.79-3.75-2.38-6.25-1.18-1.97-2.03-7.39.53-8.03.71,1.76,1.2,3.28.85,5.28Z"/>
  <path class="cls-13" d="M170.8,79.75c.14.71-.06,1.58.2,2.25.66,1.7,1.28,3.41,2.18,4.98.2,2.79-1.18,2.82-2.23.28-1.38,1.24-1.77.69-1.07-1.01-2.69-.27-3.92-5.84-.93-6.49-.39-.64-.11-.89.5-.76.57.12,1,.45,1.35.73Z"/>
  <path class="cls-134" d="M184.2,111.1c-.72.66-1.21,1.55-2.2,1.9-.88.31-1.42,1.37-2.85.95l-.15-4.95c.85.51.73,2.59,1.52,2.59,1.26,0,2.69-.78,3.68-.48Z"/>
  <path class="cls-65" d="M42.02,142.96l.31.94c-2.65,3.09-4.83,6.48-6.53,10.15,1.24,1.86-.04,7.39-2.8,6.96-1.24,4.6-1.46,9.45.15,14,2.65-.46,3.59,3.23,1.72,4.86-2.78.24-5.15-1.68-5.09-4.96l.22-13.9c6.57-4.84.1-14.56,12.02-18.04Z"/>
  <path class="cls-49" d="M48.17,138.75c1.23-.81,1.87-.73,1.91.24.97,2.8-1.35,5.23-4.09,3.7-1.34,1.53-2.7,2.66-4.07,3.41.1.45.14.87-.03,1.17-1.2,2.19-4.09,7.18-6.09,6.77.25-4.35,3.73-7.6,6.22-11.08.68-.95,2.09-1.24,2.04-2.77.55-.38,1.14-.89,1.76-1.14.7-.28,1.63-.39,2.35-.3Z"/>
  <path class="cls-21" d="M194.7,235.23c.56-.22,1.07-.36,1.41-.17,1.82.99,13.44,7.67,13.7,8.44.16.47.19.98.19,1.5,2.46-.91,3.41.74,4,3h-1c-1.29,0-2.74-1.17-4.02-.98-5.77-1.91-11.53-4.03-15.01-9.34-.76-.1-1.29-1.3-1.76-1.77-.23-.23-.06-.78-.24-1.06,1.25-2.15,2.12-2.03,2.73.39Z"/>
  <path class="cls-145" d="M208.98,247.02c-4.58.67-15.94-4.66-15.01-9.34,2.28.31,3.58,2.24,5.47,3.82,3,2.52,7.14,2.79,9.54,5.52Z"/>
  <path class="cls-20" d="M255.88,92.96c-2.83-.12-7.57-1.2-9.8-3.06-5.17-.77-10.99-.8-16.08.1-.3.59-.63.58-1,0h-4l-.15-1.17c.38-.16,1.02.03,1.43-.02l6.67-.85c5.08-.65,10.1-.12,15.09-1.02,4.47-.81,7.16,2.27,7.85,6.03Z"/>
  <path class="cls-133" d="M246.08,89.9c3.48-.02,6.51,2.03,9.8,3.06.92.42,1.41,2.01,2.85,1.9,1.59,2.58,4.17,4.33,6.3,6.45l.18,1.6c-.99,1.42-2.06.74-3.19-2.06-2.22.88-6.7-2.73-6.75-5.02l-10.92-2.59c-2.19.18-3.61-.46-4.29-1.92-.96,2.56-1.76,2.35-2.07-.33-2.26,2.38-7.56,3.12-9,0v-1h1c5.09-.94,10.85-.83,16.08-.1Z"/>
  <path class="cls-181" d="M123.91,63.95c-3.29.76-6.66.08-10.09-2.05-2.76.3-3.14-.32-1.63-2.63-2.92-7.27,3.28-6.11,7.65-2.15,11.73-3.25,12.35,9.09,5.03,7.47-.35-.08-.66-.33-.96-.64Z"/>
  <path class="cls-181" d="M149.94,70.8c2.07-7.16,10.28-2.55,5.72,4.04,1.5,2.98.82,5.79-2.03,8.43,3.8,4.04,9.25,11.49,7.37,16.84.71,7.58-9.28,5.26-4.63-1.98-.97-2.25-1.35-1.82-1.16,1.29l-1.6,3.31c2.37.48,3.13,1.93,2.18,4.13-1.82,4.2-6.74,8.72-10.54,4.36-3.54,4.12-8.2,7.88-13.38,9.53-1.87-1.32-4.04-1.4-6.49-.25-3.11-1.21-5.98-1.09-8.62.37-2.92-2.53-5.86-4.11-8.83-4.71l-1.54-.3-3.2-7.91c-.03-.31,0-.63-.06-.93-.47-1.37-.85-3.04-1.14-5.02,0-.33.05-.67,0-1l-1-7c-.05-.33,0-.67,0-1-.88-3.52-.88-7.48,0-11l3.02-1.14c-.59-1.47,0-2.9,1.79-4.31,6.06,1.16,10.85-.34,16.54-2.23-7.21-2.83-5.98-11.48,1.56-10.37,1.61-.09,3.32.09,5.14.55,4.59-1.87,8.79-1.74,12.59.39,3.81-1.6,5.59.23,5.32,5.49-1.49,4.9.56,3.27,2.98.42Z"/>
  <path class="cls-207" d="M109.86,129.08c-.65-1.74-.27-1.77,1.14-.08,2.75,1.81-.39,7.75-2.81,3.24-5.63-.06-11.46-.35-17.48-.87l-10.8.47c-.43,1.69-1.79,2.38-4.08,2.08-5.56.79-11.35,1.31-17.36,1.57-.95,1.72-1.71,1.48-1.52-.47-.86-.33-.83-.66.04-1.01,12.82-3.23,25.96-6.52,39.51-4.52,1.71.25,12.73,1.39,12.71,1.4.49-.25.7-1.04.64-1.8Z"/>
  <path class="cls-93" d="M107.94,116.15c3.44-.14,3.99,7.09,2.93,9.86.24.82.29,1.82.13,2.99l-1.14.08c-3.15-6.56-5.89-13.8-6.66-21.13,2.96,1.33,3.58,5.33,4.74,8.2Z"/>
  <path class="cls-132" d="M57,134l-.04,1.01c1.2,2.84-4.85,6.18-6.88,3.98l-1.91-.24c2.28-2.34,5.61-3.94,8.83-4.75Z"/>
  <path class="cls-104" d="M103.14,107.02l-1.14-.02c.07-.32,0-.67,0-1v-4c1.69.99.87,3.35,1.14,5.02Z"/>
  <path class="cls-104" d="M109.81,58.13c3.27,2.41-2.36,12.33-5.74,12.87-.3.87-.66.86-1.07,0l.2-3c.07-1,.79-1.94.8-3,1.27-.95,1.92-2.43,2-4,1-.66,1.68-1.76,1.92-2.95.66-1.37,1.3-1.71,1.92-1.02.86.34.84.71-.03,1.1Z"/>
  <path class="cls-181" d="M104.07,71l2.03,1.09c-1.2,1.28-2.23,2.92-3.1,4.91,2.81.32,1.69,2.53,0,4-.28.87-.62.86-1,0-.81-1.65-.81-3.65,0-6,.64-.93-.63-3.3,1-4h1.07Z"/>
  <path class="cls-104" d="M101,93c-1.09,1.8-1.97-10.56,0-11v11Z"/>
  <path class="cls-39" d="M103,81c.17-.91.51-.94,1.02-.14.25,1.5.04,3.73-1.81,3.97-.58-.63.03-3.11-1.21-2.83,0-.33.04-.67,0-1,.28-.87.62-.86,1,0h1Z"/>
  <path class="cls-104" d="M102,101c-2.04-1.6-.65-4.68-1-7,2.04,1.6.65,4.68,1,7Z"/>
  <path class="cls-104" d="M102,81h-1c-.24-2.21-.25-4.2,1-6v6Z"/>
  <path class="cls-15" d="M246.85,150.03c1.73-3.09,5.34.34,5.51,2.9-1.08,1.99-3.22,3.68-6.43,5.08l-2.98,1.81c-5.26,3.35-10.72,6.41-16.36,9.18l.41,1c.36.62.7,1.34,1,2-3.63,4.57-11.56-3.67-4.29-7.07-1.02-2.34-.7-4.38,2.13-3.96l6.79-3.67c-.32-4.13.8-6.16,3.35-6.08.25-1.79,1.57-1.74,3.97.16-.64-2.37,6.99-4.53,6.9-1.36Z"/>
  <path class="cls-117" d="M265.04,132.2c1.58-2.64,2.67-.73,1.9,1.79.09.31.03.69.06,1.01s0,.67,0,1c-2.51,3.25-4.96,6.62-7.35,10.11.07.33.09.67.18.99-.36.99-.98,1.78-1.94,1.2-7.14-6.49-3.84-22.02,7.16-16.11Z"/>
  <path class="cls-80" d="M245.93,158.01c1.57-2.16,4.55-3.06,6.43-5.08-1.06-3.06,2.78-5.27,5.52-4.62.33-.61,1.49-.69,1.94-1.2.87,3.03-11.08,10.63-13.89,10.91Z"/>
  <path class="cls-16" d="M242.95,159.82c-2.67,5.04-11.58,5.81-14.95,9.18l-1,1c-.4-.19-1.21.18-1.54-.04-.4-.26-.83-1.03-.46-1.45-.26.3,16.1-7.56,17.95-8.68Z"/>
  <path class="cls-6" d="M265.07,141l-5.43,5.11c.37-1.81,1.85-3.19,1.75-5.54.74-.64,1.66-.77,2.99-1.27-.16-2.01,1.03-2.98,2.61-3.3-.03,1.85-2.02,3.13-1.93,5Z"/>
  <path class="cls-48" d="M257.02,193.98c-.69,1.95-2.07,1.16-1.7-.87-2.91-.82-5.68-2.74-8.32-5.74l.21-2.47c-.6-.11-.64-.42-.2-.9,7.53,2.59,4.02-.24,10.01,9.99Z"/>
  <path class="cls-36" d="M241,180v1c-.21.85-.91,1.94-1.45,1.71-3.05-1.31-9.97-5.9-12.03-8.32-.45-.53.07-1.62.48-2.38,4.98,1.15,8.76,5.21,13,8Z"/>
  <path class="cls-173" d="M257.02,193.98c.37.8.99,1.39,1.71,1.88.24,1.41,1.29,2.63,1.92,3.88.36,2.79-.14,2.43-1.67.23-3.01,1.49-6.28-1.98-4.77-4.94-1.61-1.73-1.16-1.98,1.12-1.93.32.47,1.25.54,1.7.87Z"/>
  <path class="cls-67" d="M247.01,183.99l.2.9c-.58,2.95-3.55,2.07-3.96-.71-2.78,1.83-4.85-.98-2.25-3.19.03-.33,0-.67,0-1,2.05,1.35,3.66,3.19,6.01,3.99Z"/>
  <path class="cls-199" d="M99.16,242.01l1.07,1.73c-.49,4.52,0,9.08,1.45,13.67l-1.46,3.32-1.21.26c-2.39-10.16-3.17-21.08,0-31,.28-.87.62-.86,1,0,2.58,2.32,1.33,9.48-.84,12.01Z"/>
  <path class="cls-169" d="M106,207c1.74,3.14,1.67,4.41-.19,3.82l-1.61,4.18c2.21,1.78,1.76,3.82-1.2,4,.31,4.12-.69,7.12-3,9,2.54.49,2.4,1.08,0,2h-1c-.11-1.03.34-3.02,0-4,3.34-6.18,2.12-12.22,4-15,1.81-1.17,1.42-3.66,3-5,.9.1.85.45,0,1Z"/>
  <path class="cls-140" d="M177,224l-4,14c.44,1.45.46,3.37-1,4-.91,2.45-1.91,4.78-3,7-.33,1.42-1,2.75-2,4-1.34.94-1.82,2.45-2,4-.77,1.8-1.5,2.18-2.2,1.13-.68-.18-.7-.48-.11-.91l-1.41-2.11c3.77-6.75,6.7-13.88,8.78-21.4l2.67-1.8c-1.88-3.14-.57-8.29,3.27-8.9.68-.91,1.01-.58,1,1Z"/>
  <path class="cls-55" d="M162.8,258.13c1.58,1.38-.64,3.6-2.02,4.85-.85,1.56-2.45,2.77-3.55,4.13-2.09,2.09-2.81,1.25-1.01-1.02-1.45-1.37-1.07-2.24.92-2.1,0-2.68,2.47-9.36,5.56-6.77-.08.27.13.62.11.91Z"/>
  <path class="cls-192" d="M173,246c-.75,1.33-1.41,1.66-2,1-.69-1.31-.36-2.97,1-5,.02-1.4.23-2.8,1-4h1c.07,2.86.19,5.42-1,8Z"/>
  <path class="cls-107" d="M157.23,267.1c-.42.52-.86,1.07-.94,1.75-2.34.7-3,3.65-5.47,4.03-3.72-1.86,2.3-8.47,5.4-6.79-.48.67.6.8,1.01,1.02Z"/>
  <path class="cls-198" d="M160.78,262.98c.82-1.51,1.67-3.15,2.02-4.85l2.2-1.13c-.31,2.58-1.67,5.16-4.22,5.98Z"/>
  <path class="cls-145" d="M170,250c-.87-.28-.86-.62,0-1-.92-.74-.3-2.53,1-2l2-1c-.8,1.73-.83,3.24-3,4Z"/>
  <path class="cls-192" d="M170,249v1c-1.22.43-1.54,2.77-3,3,.15-1.55.73-3.05,2-4,.28-.87.62-.86,1,0Z"/>
  <path class="cls-176" d="M150.81,272.88c.04.57-.36,1.73-.77,2.13-1.34,1.32-3.99,2.33-5.09,3.82-1.05,1.02-2.63,2.07-3.95,1.17-1.19.79-3.6,1.46-5.03.96-2.43-2.16-1.11-4.46,1.99-3.86,1.38-1.68,4.94-3.93,7.11-3.18-1.5-3.74,5.73-5.19,5.74-1.05Z"/>
  <path class="cls-63" d="M267.95,134.03l-1.01-.04c-.23-.76-1.1-1.68-1.9-1.79-2.01-.04-2.48-.93-2.88-2.63-2.02.83-8.92-6.12-8.87-7.76.05-1.51,1.79-2.6,2.96-3.32-1.09-1.43-1.14-2.38.69-3.46,1.01-1.72,2.38-1.2,4.13,1.54,2.48-1.47,4.77-2.26,6.88-2.37.76-.11,1.37-.15,1.46.04,1.75,3.92-.24,15.37-1.45,19.77Z"/>
  <path class="cls-125" d="M265.21,102.91c3.96,5.39,6.57,10.84,5.87,18.14-.44,4.64.38,9.91-3.14,12.98l-.12-5.2c-.12-5.08,2.24-10.17.12-14.61-3.2.39-4.85-6.16-4.75-9.04-2.89.63-3.66-2.96-1.17-4.32.65,1.01,2.27,1.39,3.19,2.06Z"/>
  <path class="cls-150" d="M50.05,189.97l2.13-.79,6.8,5.52c2.9.31,4.38,1.42,4.43,3.33.95-1.22,4.65-.71,4.72,1.35,1.89-.95,2.51.19.87,1.61-.86-.24-2.26.33-3-.09-1.72-1.16-4.2-.72-5.98-1.22-3.47.03-8.37-1.7-9.97-4.89-.21-.1-.53,0-.77-.02l-3.29-2.91c-.56-1.04-1.7-1.81-2.06-3l1.02-1.84c2.93-1.51,5.18-.25,5.12,2.93Z"/>
  <path class="cls-18" d="M60.01,199.69c-1.76,1.81-4.15.67-6.25,0-2.3-.74-4.08-2.3-3.72-4.88,3.36,1.54,6.93,2.8,9.97,4.89Z"/>
  <path class="cls-18" d="M49.28,194.78c-1.76-.1-2.55-1.53-3.29-2.91,1.67,0,3.49,1.08,3.29,2.91Z"/>
  <path class="cls-135" d="M50.05,189.97c-1.27-1.12-3.82-1.5-5.12-2.93-1-1.1-2.48-2.32-3.84-2.85-2.8-1.64-7-6.27-4.22-9.12.26-5.06,6.57-7.07,8.62-1.23,5.5.16,8.9,2.89,7.06,8.58,2.06,4.75.52,6.47-2.5,7.54Z"/>
  <path class="cls-85" d="M43.01,147.19c1.64,2.36-1.12,6.88-3.91,6.81,2.65,2.12.85,3.88-1.9,5.06,2.77.98,2.51,2.07-.31,2.85.62,3.58,1.11,7.19,1.48,10.83l-1.5,2.34c.85,3.24,2.21,6.36,4.22,9.12-.57-.11-1.63.5-2.17-.34l-4.05-3.98c-1.05-1.34-.78-3.53-1.72-4.86-1.62-4.52-1.43-9.4-.15-14,1.39-2.29.83-5.12,2.8-6.96,2.1-1.96,3.9-6.18,6.12-7.94,1.73-1.17,2.26-.63,1.09,1.09Z"/>
  <path class="cls-46" d="M118,49h1c.87.28.86.62,0,1-.35,2.76-4.81,4.53-7.38,5.19,1.37,1.56.77,2.17-1.78,1.84-.35.57-1.4.67-1.92,1.02.98-4.92,5.81-9.05,10.08-9.05Z"/>
  <path class="cls-174" d="M146.02,48.31c2.41.87,4.3,3.27,6.87,3.8,1.26.59,1.62,1.28,1.09,2.07-.21,1.62-.8,1.49-1.65.15l-2.43.65c-5.1-3.79-10.57-5.84-16.43-6.16-3.32.93-5.81.65-7.47-.83-.87-.28-.86-.62,0-1,6.53-2.21,13.52-1.02,20.02,1.31Z"/>
  <path class="cls-120" d="M126,47v1c.37,3.04-5.92,5.12-7,2v-1c2.22,0,4.75-1.24,7-2Z"/>
  <path class="cls-41" d="M260.64,199.74c.5,1,.63,2.38,1.36,3.26,6.71,8.02,8.13,22.74,3.95,30.99-.27.86-.57.81-.9-.08-3.52-.6-2.05-3.05,0-4.98-1.92-.92-2.27-3.39-1.04-7.4.1-5.25-.58-10.43-2.04-15.53-3.04,1.58-5.17-3.82-3-6.03l1.67-.23Z"/>
  <path class="cls-113" d="M259.19,244.08c-1.63-.01-3.08.88-4.2,2.03-3.62-3.16,4.45-9.81,8.24-8.9-2.58-1.67-1.08-3.98,1.82-3.3l.9.08c-.64,4.23-3.94,7.05-6.76,10.09Z"/>
  <path class="cls-156" d="M230,251l1.82-1.95,8.59-.06c3.43-1.09,6.3-1.08,8.59.01v1c-1.51,2.25-12.52,2.85-16.3,2.36l-10.7-1.36c-2.65-.34-5.04-3-8-3-1.26-.84-2.59-2.46-4-3-1.73-4.29,8.85-1.84,9.77.97,3.68,1.09,7.1,2.77,10.23,5.03Z"/>
  <path class="cls-121" d="M258.97,199.97c1.1,1.57,1.54,4.59,3,6.03,2.55,4.77.13,5.96-3.96,7.68-1.89,1.13-2.09,2.77-.6,4.93-.5,7.15.66,8.21,7.64,10.33v4.98c-.52,1.06-1.5,2.08-1.82,3.3l-2.26,1c-1.56-1.06-3.2-.78-4.91.84-4.72.04-6.83,1.63-6.32,4.75.98,1.26,1.43,2.53,1.33,3.8-.72.44-1.24,1.03-2.07,1.4-5.92,2.62-12.54,2.15-19,2-4.16-1.07-5.77-3.4-6.48-7.36-2.43-.42-3.57-1.54-3.4-3.37-1.96-3.4,1.78-4.41,4.65-2.64,2-2.37,3.52-3.53,6.21-1.32-.65,1.09,2.12,3.17,2.04,3-3.36-7.43-2.97-8.03,4.13-12.74-4.89-4.5-2.91-9.17,3.2-6.08l.12-4.99c-9.47,2.88-1.42-8.45,1.89-11.99.99-1.06,2.11-2.08,3.64-1.68.4-2.89,3.56-8.25,6.95-6.9.5-.9.92-.86,1.25.11,1.44,1.87,3,3.53,4.77,4.94Z"/>
  <path class="cls-118" d="M263.23,237.21c-.69,2.62-5.89,2.31-8.24,8.9-1.04,1.07-2.72.75-3.92,1.49.48-1.15-1.53.12-2.09-.42-1.58-1.53-1.76-6.38-.21-7.83,1.9-1.79,4.6-1.64,6.65-2.18,1.64-.43,2.39-2.42,3.68-1.88,1.61.67,2.87,1.29,4.14,1.92Z"/>
  <path class="cls-7" d="M108.18,271.19c1.81-1.7,1.83-1.44,1.66,1.02,1.91-.3,4.91,1.4,6.6,2.6.83.59,2.8,2.47,3.51,3.39,2.86-.57,4.6-.3,7.63.58,3.86-.36,6.65.37,8.39,2.17,1.66-.11,3.15-1.48,5.03-.96.87.28.86.62,0,1-3.05.85-6.17.63-9,2-1.63.79-23.5-2.27-25.84-10.91.53-.56,1.27-.8,2.01-.91Z"/>
  <path class="cls-45" d="M144.95,278.83c-.85,2.29-1.97,1.62-3.95,2.17v-1c1.23.34,2.75-1.11,3.95-1.17Z"/>
  <path class="cls-1" d="M196.73,233.9c1.33,2.53.22,3.1-2.03,1.33-.92-.06-1.83-.2-2.73-.39l-12.19-11.64c-.66-.63-1.29-1.56-2.09-1.08-.52.31-.65,1.23-.69,1.87-.66.13-1.13-.34-1-1-4.31-1.65-1.28-6.17,3.38-4.5,4.91,5.58,10.72,9.76,17.45,12.55l-.1,2.85Z"/>
  <path class="cls-14" d="M127.27,194.86c4.18,2.72-.83,6.8-5.05,4.17-1.29.63-1.4,2.24-.31,4.82-.21.59-8.26,8.59-8.83,8.85-1.6.74-3.62.48-5.04-.53-1.26-.9-1.95-3.07-2.03-5.18-.05-.33,0-.67,0-1v-1c2.71-1.61,1.44-2.38-2-3-4.41-.92-1.03-6.16,2.63-6.83,2.25-2.62,5.47-3.87,9.65-3.76,1.82-2.38,3.73-3.85,5.72-4.41l-.08-1.07c.38-.3.77-.55,1.18-.62.56-.09,6.33,8.34,4.16,9.55Z"/>
  <path class="cls-184" d="M87.77,201.91c.41-.65.98-1.05,1.72-1.23,1.08-.27,11.27-.82,12.93-.69l1.58,2.01c.82.02,1.68,0,3.12-.06,1.21-.05.98,1.8.85,2.47-.11.56-1.34.38-1.97.59,4.52-5.26-10.87,1.06-20.55-1.52-3.37-.9-6.48-.03-9.45-.48-2.3-.35-4.74-1.38-7-2l-.87-1.61c-.66-.65-.88-1.4-.21-1.93,2.61-2.07,14.58,1.75,18.41,3.02l1.44,1.43Z"/>
  <path class="cls-208" d="M218,93c.94-.24,2.04.14,3,0,.83,2.81-4.5,4.47-6.56,2.89.15.74.31,1.71-.21,2.13-.55.45-11.46,5.7-12.75,6.25-.35.15-.84-.03-1.36-.3.41,3.29-3.86,4.81-6.28,2.93l.13-2.02c2.13-.84,4.5-2.69,6.02-4.58-.07-1.38,2.01-2.36,3-1.29,1.65-1.62,3.73-2.64,6-3,2.89-1.21,5.96-2.23,9-3Z"/>
  <path class="cls-40" d="M209,96c-1.65.69-4.06,3.07-6,3-1.36-.3-1.03-.97,1-2,.59-.15,1.47-.77,2-1h3Z"/>
  <path class="cls-84" d="M204,97l-1,2-3,1.29c-.44.14-1.28-.5-.86-.98,1.48-1.69,3.24-1.91,4.86-2.31Z"/>
  <path class="cls-160" d="M238,91c1.27,7-6.75,9.46-12.74,7.21-2.47.43-4.22-.07-5.26-1.49-.9,2.78-1.67,3.93-3.83,1.29-2.45,1.57-3.19.41-1.73-2.12,2.32-.49,5.09-1.2,6.56-2.89,2.72-.41,5.35-1.41,8-2,2.86-.64,6.1.47,9,0Z"/>
  <path class="cls-62" d="M153.97,54.18c.57-.72,1.34-.53,2.32.57l4.61,5.33,5.18,9.74-.89,1.1c-3.57-1.7-9.04-7.85-11.22-11.39.15-1.59-.41-3.08-1.69-4.47-.88-.16-.83-.4.05-.74.42.35,1.24.04,1.65-.15Z"/>
  <path class="cls-23" d="M160.9,60.09c-2.71-1.53-3.96-4.74-6.92-5.91-.4-.67-.76-1.36-1.09-2.07,3.86.8,6.28,4.73,8.01,7.98Z"/>
  <path class="cls-4" d="M109.92,256.85c5.93-.51,7.78,6.37,5.87,11.51-.86,2.32-3.65,6.25-5.95,3.85-.45-.28-1.43-.4-1.66-1.02-1.32-3.48-5.46-4.87-7.3-8.2-.47-.85-.58-1.23-.66-2.26.46-4.26,1.7-5.47,3.72-3.61-.5-2.98,5.33-3.1,5.99-.27Z"/>
  <path class="cls-112" d="M173.18,86.98c1.17,2.06,1.1,4.59,1.97,6.74l-.53,8.03c-.89.44-1.44.17-1.62-.81-2.33-3.18-4.11-10.46-2.05-13.68l2.23-.28Z"/>
  <path class="cls-59" d="M161.01,100.12c-.18-1.94.62-1.93,1.21,0,2.65-.07,2.77.27.71,1.93l.7,1.93c-2.33,3.23.7,6.19,3.88,7.99.63,4.72,1.74,4.73,3.32.04,3.71-.55,5.47.34,5.29,2.67l4.32,3.17.56-1.8,1.01-2.05c.94-.4,2.25-.54,3.13-1.14,3.73,1.31.31,1.26.2.94-.56-1.68,11.85-2,13.69-1.12l1.39-2.86c-1.28-2.77-.81-4.14,1.4-4.1-.58-1.55.45-2.64,3.08-3.28,3.23.98,6.32.67,9.25-.95-.18-1.89.5-3.06,2.03-3.49l3.83-1.29c1.66,2.75,3.14,5.76,4.45,9.03,3.73,1.47,7.23,4.83,6.23,9.05,5.73-2.15,6.79,3.9,3.91,7.86,3.5,2.66,1.73,5.66-1.77,7.34,2.38,2.43,4.76,4.79,7.14,7.07.99,2.93-.53,4.15-3.32,4.77.78,1.8.13,3.03-1.95,3.7-.58,1.47.05,2.85,1.9,4.13l-.59,1.55c-1.11,2.07-1.38,4.51-1.5,7.31-2.63,1.15-8.37,5.36-8.65,2.43-1.52.16-2.98-.54-4.38-2.11-3.1,3.41-8.55,2.41-9.61-1.88-2.76-2-4.5-2.07-5.23-.22-1.65,1.23-3.35.6-5.11-1.91-2.93,2.93-6.3,3.17-7.42-1.36-1.22-.08-1.98-.58-2.28-1.48-3.6-10.11-9.87-16.78-18.82-20.04-1.26.9-4.33-.1-4-1.96.09-.47-.35-2.09-.99-2.17-5.16-.69-11-.14-16.01,1.17-6.05,1.78-11.76,4.41-17.15,7.9-3.37,3.12-6.6,6.16-9.68,9.1-1.46,3.11-5.58,1.08-5.56-2.23,4.19-5.63,3.41-9.86-3.5-7.58-4.72,6.66-7.84,7.53-9.37,2.62,4.51-3.98,5.88-8.24,4.11-12.79-2.31-2.67-1.66-6.72-2.93-9.86,1.18-.56.68-2.29,1.56-3.89,2.18,2.54,4.73,4.4,7.38,6.91,2.62-2.29,4.33-1.77,7.05-.84,4.31,1.47,8.03-5.73,10.24-5.19,1.15.28-2.07,3.91-2.2,4.05-5.68,6.38,14.58-6.3,12.16-9.38,2.13,1.37,3.33,2.98,5.6,3.79,1.54-2.26,3.25-4.53,5.11-6.52-3.17-2.69-2.02,4.13-4.3,3.09-3.88-1.77-1.97.58-5.82-6.8,2.4.68,4.58,3.25,6.33,1.99l2.45-4.79-1.33-5.82c2.4.87,4.87,2.37,6.35,4.45.73,1.02-1.05,2.72-1.72,3.44-.22,1.46.25,1.7.84,2,.64.33,2.57.75,2.25-.35-.28-.97-.67-1.74-.09-2.21.31-.25.89.04,1.2.04Z"/>
  <path class="cls-186" d="M200.12,103.96c2.53-1.44,3.23-.71,1.69,1.76-.83.96-.48,1.93.8,2.11.81.12,1.48-1.57,3.06.28-3.55,1.62-4.66,3.88-5.36,7.67-.77-1.68-14.5-2.51-15.09-.69-.37-1.23-.01-1.69-.09-2.24l8.72-5.97c1.73-1.19,4.72-1.8,6.28-2.93Z"/>
  <path class="cls-108" d="M165.19,70.93c1.66,2.86,1.06,6.73,3.76,8.84.09,2.2,1.06,4.26.93,6.49.3.99-.03,1.29-.99.91-.85,1.21-1.5,2.95-1.95,5.21l-2.85.8c1.67,4.56,1.04,6.87-1.86,6.95h-1.21c.02-2.52-6.27-13.55-8.27-15.08-3.26-2.49,2.3-5.2,2-7.24-.1-.68-1.77-1.9-1.45-2.71.75-1.89,3.48-4.58.61-6.08-1.12-.02-2.71,2.29-3.96,1.79-4.32,3.69-5.27-7.08.07-4.14.5-1.89-.02-3.49-1.55-4.81l1.5-1.82c.04-1.7,1.04-3.79,2.31-4.96,4.99,4.65,9.5,9.96,12.92,15.86Z"/>
  <path class="cls-71" d="M174.62,101.75c-.14,2.14,1.05,4.68,2.38,6.25.53,1.37.15,1.69-.16,3.16-.08,2.14-6.19,1.55-5.94-.41l-1.39-1.84c.78-2.8,1.66-5.46,2.64-7.97.19-.88.47-.86.85,0,.57.2,1.12.47,1.62.81Z"/>
  <path class="cls-9" d="M180.99,116.05l2.46,1.94c-1.09,2.17-2.91,2.03-4.83,1.46s-1.82-2.87-2.51-4.76c-2.24-2.29-2-3.46.73-3.52,1.99-.04.39,2.34,2.09,4.42.45.56,1.54.06,2.06.47Z"/>
  <path class="cls-54" d="M170.94,87.27l2.05,13.68h-.85c-5.7,1.03-6.66-10.89-3.26-13.77.37-.26.71-.56.99-.91l1.07,1.01Z"/>
  <path class="cls-122" d="M33.15,175c-2.93-4.15-2.76-9.69-.15-14,.08,4.67-.18,9.34.15,14Z"/>
  <path class="cls-163" d="M87.01,135.98c.03,2.96-.89,4.37-2.78,4.25-1.56,3.06-3.64,4.32-6.23,3.77-.52.77-.88.67-1.08-.27.59-2.67-2.79-.57-2.8,2.15-1.37-.1-2.68.93-3.93,3.07,3.66,3.76-4.56,10.39-8.31,6.32-2.25,3.06-7.81,2.97-11.22,2-3.49.45-10.64.5-11.56-3.27.79-2.48,2.33-4.75,3.91-6.81-.2-1.69,1.45-3.74,2.98-4.5,1.38-.88,2.73-2.91,4.09-3.7l6.88-3.98,1.52.47c3.08-.08,6.18-.25,9.29-.53,1.19,1.82,2.57,1.54,4.14-.84,4.22-.43,8.54-.44,12.98-.02-.67-.92-.65-1.2.26-1.25,5.45-.26,7.45,1.35,1.86,3.14Z"/>
  <path class="cls-79" d="M45.98,142.69c-.27,1.98-1.88,3.07-2.98,4.5-.23-.48-.61-.87-1.09-1.09,1.13-.9,1.28-4.3,4.07-3.41Z"/>
  <path class="cls-209" d="M201.14,236.09c3.63.16,7.16,1.41,10.59,3.74,3.07-.31,5.87-.17,8.39.44l5.07,1.77c.87,3.67,1.93,7.13,4.81,8.96-3.75-.09-7.59-2.22-11.26-3.37-.82-.26-1.09-2.21-1.78-2.26-1.25-.09-1.84,1.03-2.61,1.7-.66-1.32-.39-3.09-1.66-3.39-.74-.18-1.74,1.41-2.69,1.33-5.56-2.14-12.03-4.72-15.3-9.77.76-.3,1.49-.71,2.03-1.33,1.8-2.01,4.93-.7,4.41,2.18Z"/>
  <path class="cls-83" d="M246.08,89.9l-16.08.1c-3.77-1.54,20.21-1.35,16.08-.1Z"/>
  <path class="cls-188" d="M240.07,91.33c1.88.44,2.82,2.47,2.82,6.1.43,6.41,7.79,1.36,9.68-1.86l2.72.27c2.87.58,5.19,2.6,6.75,5.02l1.17,4.32c1.64,3.5-2.43,9.42-6.26,9.87.11,1.26,1.27,2.37,1.24,3.57-.03,1.55-2.09,2.14-3.29,3.31,1.07,1.91,3.39,2.14,4.49,3.82.51.77.41,2.29,1.41,2.2s1.57-.94,2.84-1.95c.46,2.05.73,4.18,1.42,6.21-.5.42-1.14,1.08-1.81,1.28-.63.18-1.98-1.43-2.62-1.19-4.42,1.63-6.04,7.74-3.61,11.14l1.6,2.24c.57.79-.4,1.87-.72,2.64-1.2,2.2-3.94,2.91-5.52,4.62-2.35.25-3.32-2.76-5.51-2.9-2.6-1.39-5.79-1.68-6.9,1.36-1.28.26-2.69-.16-3.97-.16-1.13-2.05-3.29-3.39-4.16-5.62,1.65-.79,3.03-1.08,3.11-1.95.11-1.12-1.59-4.36-1.21-5.37.82-2.19.85.72,3.69,1.38.48.11,1.04-.69,1.41-1.76-3.45.45-3.41-3.77-4.86-4.62-2.65-1.55-3.98-3.15-5.66-5.8-1.48-2.33-5.42-3.67-4.69-7.24,5.51-1.37,6.16,13.27,11.35,5.21l-4.05-3.07c2-.87,2.78-1.9,3.09-2.94.41-1.36-.07-4.39-1.77-3.31-1.51.96-4.21,3.53-5.11.76-.42-1.28,2.06-2.33,1.96-3.55-.15-1.93-3.21-5.11-3.55-5.06-.47.06-1.68.76-1.79,1.34-.39,2.01-2.28,2.56-3.63,2.05-.85-.32-1.54-2.21-1.19-2.95,9.01-1.1-1.83-6.38,1.07-12.03,3.83-1.28,7.7-.21,11.48.71,2.77-1.05,5.08-4.41,6.52-6.43.65-.1,1.44.5,2.07.33Z"/>
  <path class="cls-206" d="M255.28,95.83c-6.2,5.13-.32,3.91-7.47,5.63-1.77.42-2.82,1.99-4.49.81-2.55-1.81-3.12-7.98-3.24-10.94,3.42-.9,6.46.45,9.82,1.46,2.31.69,5.71-.33,5.39,3.05Z"/>
  <path class="cls-37" d="M123.91,63.95c-1.84.93-5.81,3.97-4.18,6.09s6.1,2.11,5.32,6.04c-7.53.17-8.28,4.61-18.62,2.18-.99,1.16-1.66,1.94-2.41,2.6l-1.02.14c.28-1.25-.37-2.78,0-4,2.05-6.24,4.25-7.72,6.59-4.45-.19-1.8.49-3.57,2.06-5.31-.31-2.88.41-4.66,2.17-5.34.66-.36,1.25-1.03,2.06-1.29-.43.13,7.35,2.34,8.03,3.33Z"/>
  <path class="cls-37" d="M152.33,54.34l-.05.74c-.15,1.08,1.66,2.59,1.06,3.43-.55.77-2.5,1.37-3.37,1.53-1.16,1.71-.82,3.52,1.03,5.45l-.98,1.18c-.69.34-1.57.96-1.92,1.85-.5,1.27,1.29,1.71,1.85,2.29-.02,1.99.75,4.27-.76,7-3.7-6.01-11.43-1.23-8.99-4.47.41-.55,1.98-.23,2.9-.53,2.58-.84,2.11-4.84,1.41-7.12-3.01,2.49-4.43.46-6.77-.38-4.09-1.47-9.88,4.4-13.82-1.34l3.02-1.53c1.08-.55,1.45-3.04.17-3.31-3.28-.69-6.73,1.16-9.49-.87-1.84-1.36-3.34-3.47-6.05-2.7.87,2.04,2.3,1.87,3.02,2.81-.96.57-1.72.63-2.4.92-1.95,1.74-2.42,1.49-2.38-1.15l.03-1.1c1.92-3.26,5.21-6.64,9.16-7.03,2.54-.25,4.56-1.32,7-2,5.49-1.52,11.67-1.92,17.02.94,3.42,1.83,6.63,3.15,9.31,5.4Z"/>
  <path class="cls-167" d="M125.18,146c1.23,1.18-.72,3.91-2.18,5-.6,4.16-1.38,8.34-2.36,12.55-.15,4.29.32,8.51,1.42,12.68l-1.06.77c.62,2.64,1.29,5.26,2.01,7.84l-1.09,1.09c.08.28.15.79.08,1.07-.67,1.09-1.61,1.48-2.59.63-3.18,7.93-12.73,2.62-7.19-3.93-2.89-4.02-5.89-8.72-2.4-13.27-5.69-2.06-5.66-6.17-.96-9.54-5.26-.89-6.3-4.55-3.11-10.97.29-2.81-1.02-5.58-3.94-8.29-3.13.45-4.69-1.71-1.82-3.34-2.26-2.65.95-5.13,3.84-4.48l.31-1.17c2.05.24,3.4.11,4.06-.39.93-.01,2.28-.04,2.66-.89.31-.7.33-1.7.15-2.35-.17-.59-.82-.98-.94-1.73-.07-.48-.13-1.42.81-1.26,3.37,3.91,2.79,9.78-2.16,12.95-1.41.81.24,1.42,1.44,1.02,2.15-2,4.33-6.61,7.87-6.63,1.53-.01,4.45,1.81,6.31,1.5,1.32,3.25-1.4,6.8-3.15,9.74.96.86,2.65.94,4.02,1.42Z"/>
  <path class="cls-171" d="M79.92,131.84l2.08.16c1.98.24,2.94.94,2.9,2.09-1.79,1.95-2.71,4.73-5.76,6.48-2.21-2.14,1.16-2.95,1.86-4.54-3.24-3.28-7.74,7.26-12.35,9.56-1.44-.39-3.33-2.78-2.92-4.45,1.42.22,3.04,2.46,3.71,1.47,2.07-3.05,4.8-4.59,6.28-7.95-3.5.25-4.27,3.83-6.63,5.33-3.45-8.05-7.1-.32-10.6-4.51,3.57-1.82,18.4-4.21,21.44-3.64Z"/>
  <path class="cls-93" d="M108.19,132.24c.38.99.22,1.39-.47,1.37-1.06-.04-3.21.36-3.91.19-2.63,1.45-8.91,1.38-10.43-.79-2.98,1.01-4.63.96-4.95-.17-2.39.28-4.53,0-6.44-.84-.67.03-1.43-.04-2.08-.16,3.72-2.06,23.23-1.27,28.28.4Z"/>
  <path class="cls-39" d="M112.19,59.28c.65.78,1.06,1.8,1.63,2.63.63,10.89-2.88,5.63-2.29,10.95.12,1.08-2.35,2.67-2.86,1.93l-1.82-2.62c-1.87,1.11-1.97,4.04-3.85,4.83.6-1.99,1.27-3.89,1.07-6-.18-1.82,5.64-9.17,5.74-12.87.69.42,1.84.49,2.38,1.15Z"/>
  <path class="cls-66" d="M225.84,160.97c-.04.73-.95,1.66-.63,2.48.39.99.91,1.64,1.87,2.22-2.19,1.12-3.92,1.37-5.03,3.17,1.9,2.48,3.97,2.71,5.94,3.16.47,1.01,11.59,9.37,13,9-.14,1.46,1.5,2.32,2.25,3.19,1.58.62,2.66,2.32,3.25,5.1,4.66.91,6.8,2.79,6.44,5.63-4.13,3.47-2.47,4.72-6.95,6.9-3.11,1.91-5.83,3.58-7.17-1.09,1.85-3.26-2.83-5.98-5.88-4.2l-3.9-1.52c-6,6.2-13.24-2.09-7.52-7.63-1.86-.31-3.44-1.14-4.73-2.5-6.14,3.77-9.34,3.96-15.34.26-5.37-3.93-5.43-6.88-.17-8.84-1.87-3-1.95-5.4-.26-7.21-.63-1.6.25-3.67,1.1-5,.06-2.45,3.5-6.08,6.03-4.96.39-1.21,1.56-1.41,2.55-1.35-1.15-1.58-.43-2.03,1.13-.8,2,.02,3.93,2.09,6.05,2.23,1.36-1.08,2.93-3.34,5.08-1.75,1,.74,2.65,1.88,2.86,3.51Z"/>
  <path class="cls-59" d="M246.85,150.03c-2.37-.15-4.63.9-6.9,1.36-.67-1.89-3.28-2.97-4.68-4.75-.42-.53,1.44-1.78,2.06-1.34l2,1.42c1.26.89,2.55,1.54,3.87.88.74-.37.99-1.38,2.09-2.72,1.29,1.66,1.54,3.43,1.55,5.14Z"/>
  <path class="cls-144" d="M247.21,184.9c2.88,2.55,6.13,4.9,8.11,8.21-.09.78-.4,1.55-1.12,1.93-.41-.11-.83-.15-1.25-.11-4.42-5.34-9.23.05-9.69-10.73l3.96.71Z"/>
  <path class="cls-135" d="M101.06,243.03c-1.77,2.12-2.46,1.7-1.9-1.02-.64-4.05.07-8.02.84-12.01.11-.59-.28-1.48,0-2,2.67-2.04,3.02-5.94,3-9,.52-1.18.53-2.92,1.2-4,1.12-4.93,2.7-6.04,4.72-3.35-.43,2.33.61,4.66,3.12,6.99.42,1.97.56,3.97.41,6,4.09,4.97,3.99,7.68-.27,8.13-1.73-1.08-3.66-.11-5.8,2.9.58,3.16-1.19,5.61-5.32,7.35Z"/>
  <path class="cls-179" d="M101.06,243.03c.44-.25.88-.45,1.34-.49,1.38-.11,3.28,11.02,3.27,12.93l-1.73,1.66c-1.81.61-1.92,3.22-3.72,3.61-.29-3.87-4.5-16.08-1.05-18.73.39.64,1.43.59,1.9,1.02Z"/>
  <path class="cls-59" d="M139.99,201.32c5.19.53,9.34,2.3,12.44,5.3,5.21-.17,5.1,4.6.59,5.32-.72,1.07-.73,1.52-.02,1.34,1.37-2.23,6.16-8.56,8.39-4.13,1.2,2.39-1.43,3.14-3.59,3.59.64,1.91-.46,3.62-3.29,5.13l6.23,6.95c.98,6.22-4.49,5.96-7.95,1.98l-3.48,2.05c-1.18,4.15-3.33,7.26-6.47,9.34-.52,4.19-3.15,6.09-6.96,3.81-.54,1.14-1.39,1.92-2.54,2.35-5.05-1.14-9.08,1.87-12.21,5.28-6.02-1.99-8.49.91-8.7,6.94l-2.51.28-5.99.27-1.53-8.28c-.41-2.21.21-4.27-1.35-5.81-.39-2.18,1.1-3.79,3.68-4.26.04-1.38-.4-2.27-.64-3.81,2.1-1.56,4.16-4.14,5.97-5.76.67.04,1.6,1.09,1.85,1.52.34.6,2.09-.01,2.1-.78-7.75-6.78.45-8.1-6.77-14.24-1.24-1.06.6-3.24-.73-4.75-.67,1.61-.89,3.14-2.31,4.06-.79-2.97,2.22-5.06,1.8-8,1.12,2.31,4.67,5.93,7.24,3.17,2.21-2.38,3.32-5.77,7.34-6.93-1.05-1.9-2.26-1.37-3.26-2.58l4.94-4.31c1.34,1.3,2.96,2.04,4,1.48s.88-2.09,1.02-2.96c-.27-1.93.6-2.15,1.76-.56.7-.46,1.26-.47,1.77.02,2.58,3.77,5.64,6.1,9.19,7Z"/>
  <path class="cls-70" d="M100,228c1.51-2.83,1.72-6.09,3-9,2.02-3.14-.83,10.85-.11,8.38-.28.97-1.85.71-2.89.62Z"/>
  <path class="cls-96" d="M172.73,231.9c-1.44,4.34-2.56,8.93-4.43,13.56-1.7,4.19-4.48,7.69-5.61,11.76-2.79,1.35-1.28,3.97-5.56,6.77-1.3.95-2.55,1.08-3.77.4-4.39-3.92-7.38,5.55-8.29,9.54-1.28,2-4.39,4.44-7.11,3.18l-2.05.77c-3.21-1.53-6.91-2.07-11.12-1.61-.04,2.51-1.65,3.16-4.85,1.95-1.91-.28-3.59,1.07-6.06.04.2-1.44,1.57-1.19,2.11-1.85-2.95-.61-4.94-2.23-6.15-4.18,2.79-1.8,4.62-4.25,4.85-7.88.19-3.01-2.57-5.21-4.77-7.48,1.78-1.78.68-5.31,1.87-7.08,1.09-1.22,4.44-2.41,5.94-3.4.75-.5,2.51,2.33,3.42,1.3.51-.59.98-2.61,1.67-2.95,3.32-1.62,6.7-1.67,8.58-4.92.99,1.53.34,2.62,1.61,3.15.99-1.53,1.42-4,3.16-3.08,1.34.71,2.55,1.84,3.83.72.69-.6.73-2.16.4-3.79,4.51-.54,5.2-4.95,7.05-8.74.81-1.66,4.89-2.23,5.78-4.84,1.93,2.89,3.06,5.95,6.37,3.71-1.76-3.78-5.06-5.65-7.83-9.18,1.87-2.07,4.18-3.43,6.03-5,3.95-3.55,7.58-1.87,10.9,5.04,2.21,4.52,3.55,9.22,4.03,14.11Z"/>
  <path class="cls-32" d="M171,247c-.56.52-1,1.23-1,2h-1c.08-2.6,1-5.28,3-7-.02,1.71-.57,3.35-1,5Z"/>
  <path class="cls-43" d="M157.13,263.98c-.27.72-.57,1.42-.92,2.1-2.06,1.93-5.52,5.03-5.4,6.79-1.23-.99-4.64-.22-5.74,1.05-4.19-1.84,2.41-12.51,7.06-13.81,2.72,4.87,4.18,1.36,5,3.87Z"/>
  <path class="cls-100" d="M137.96,277.1c-.74,1.26-1.75,2.39-1.99,3.86-5.51.37-11.29.17-16.02-2.76.71-.29,1.99-.05,2.96-.92.42-.37-.73-1.24-1.1-2.12,1-2.34,3.86-.27,5.74-.57,4.1-.65,7.97-.31,10.41,2.51Z"/>
  <path class="cls-92" d="M267.94,114.21c-1.23,2.38-5.58,5.02-8.32,4.25-1.33-.37-1.21-3.59-2.69-3.42-.18-2.13,2.21-2.94,3.34-4.7s1.16-4.22,2.92-5.17c3.09,2.23,3.28,5.98,4.75,9.04Z"/>
  <path class="cls-210" d="M76.92,143.73l1.08.27,1.32.38c2.79-2.39,4.07-2.17,3.83.66l.15,1.07-9.05,9.88c.94.43,1.95.81,3.03,1.12,1.57-1.33,2.39-1.32,2.45.03,1.04-.02,2.48-1.09,4.32-3.19,4.41.61,8.42,7.16,3.13,9.1,1.26,3.2,1.03,6.37-2.87,6.9-3.69,6.71-8.52,11.81-14.49,15.3-2.69-.64-3.35-.09-1.99,1.66l-1.5,2.85c.62,3.18.11,5.3-1.54,6.35.79,1.39.19,2.09-1.39,1.91-2.09-.94-4.91-.6-6.56-2.54-2-2.36-4.71-3.52-6.8-5.52-.34-.46-.59-.96-.46-1.32.2-.55,2.13-1.35,2.09-1.93-.14-2.08-1.82-3.49-.77-5.87.55-1.25-.01-2.72-.68-3.59-2.14-2.81-6.35,1.55-7.92-5.79l-5.45,3.59c-1.1-4.17-1.78-9.11.02-13.16,2.04.4,4.3.17,6.76-.7-2.62-.27-4.77-.98-6.45-2.15.36-1.8,1.35-3.32,1.9-5.06,11.26,1.91,6.85,2.71,19.97,1.5,1.36-.91,1.56-3.01,3.13-3.81.95.7,1.35,3.52,2.79,3.14,2.44-.65,4.77-3.63,5.19-5.87,1.61-2.33,3.51-4.38,5.7-6.15l1.04.92Z"/>
  <path class="cls-60" d="M87.77,201.91c-3.92,2.52-16.87-6.31-19.64-2.52-1.48.41-3.43-.77-4.72-1.35-.16-.83.49-1.8,1.39-1.91,3.99-7.35,12.45-8.25,19.15-4.05,2.55,1.59,5.91,7.47,3.82,9.85Z"/>
  <path class="cls-163" d="M36.89,161.91c.36-.8.14-1.97.31-2.85,1.91-.65,4.48-.9,6.67.11,2.87,1.32,4.38-.28,6.87-.71,1.11-.19,2.51,2.58,3.72,2.23,1.13-.33,2.12-1.26,3.56-1.59s.72,1.32.34,2.1c-.53,1.09-10.39,2.5-11.52,2.38-3-.34-5.91-1.29-7.35,2.33-1.67-1.46-2.07-2.67-2.6-3.99Z"/>
  <path class="cls-28" d="M265.05,228.93c-.69.34-1.78,1.74-2.76,1.44-1.97-1.09-3.53-2.49-6-2.81-.96-2.94-.65-5.67-.83-8.64-.09-1.53-1.91-2.63-1.06-4,4.24-6.77,7.01-1.39,7.57-8.93,7,6.9,3.08,20.76,3.08,22.93Z"/>
  <path class="cls-57" d="M211.85,156.98c-.23.4-.85.5-1.13.8-1.05.21-1.9.66-2.55,1.35-1.91,1.86-3.24,4.61-6.03,4.96-.83,1.74-1.14,3.08-1.1,5,1.19,2.33.72,5.68,3.22,7.64,6.02,4.71-3.22-1.22-5.15,3.81-.55,1.42,1.8,1.08,2.42,1.81,5.2,6.11,10.54,3.15,16.03-.27,2.14,4.79,4.34,1.67,5.92,4.73.72,1.39-.55,1.9-1.83,3.23-1.36,1.42,1.02,5.7,2.89,5.42,1.77-.26,2.85-2.06,4.11-2.35,1.57-.36,2.64,1.32,4.33,1.46,1.27.11,2.45-1.23,3.47-1.02.81.17,5.38,4.46,5.29,4.21.43,1.22-.64,2.42-1.51,4.88,1.84-1.65,4.09-1.97,5.77-.82l-8.98,12.68c1.79.67,2.23-1.03,2.83-1.31,5-2.38.81,7.01,3.32,9.21-2.63,2.38-4.07-.99-7.41-1.51,1.49,4.5,5.88,5.57,6.26,10.14-1.95.64-2.19-2.17-4.1-2.01-1.79.15-5.35,2.94-5.27,5.02.12,3.01,3.72,5.53,5.92,7.04-.88,2.32-2.68,1.01-4.22.67-2.97-.66-4.8-1.46-4.96-5.07-2.57.61-2.73,2.74-4.52,3.01-.93.14-1.88-.86-2.49-1.03-1.24-.34-1.52,1.15-2.28,1.61-3.12,1.87-8.35,2.59-11.56.36-2.72-1.9-5.34-2.65-7.43-4.54.09-2.26.42-4.48.98-6.66l1.55-.35c1.18-1.73,2.73-1.63,4.66.31,2.71,3.71,4.92,3.92,6.65.63-5.83-6.17-4.1-12.87,5.18-20.07-1.33-2.48-2.81-4.03-4.46-4.64l-2.84-2.68c-4.49,3.75-13.12-1.59-9.58-7.19-1.37-1.83-2.8-3.55-4.31-5.15-2.23,1.67-4.25,3.63-6.05,5.89-5.97-3.29-7.01-5.34-2.33-10.52.92-1.65,3.14-6.06,1.4-6.63l-.75-.82c2.04-8.04,2.71-16.22-.25-24.18l-1.05.2-3.95-8.2c-1.09-.48-2.35-1.84-2-3-2.91-1.91-6.75-5.14-8-8-1.55-.91-2.55-1.92-3-3.04,5.84-2.62,14.58,5.83,16.55,12.21.84,2.74,2.65,4.76,3.81,7.31,1.49-.23,2.26-.22,2.39.37.17.74.48,1.84,1.04,3.44,2.05.28,7.09-5.93,7.5-5.81,3.54.95-2.84,3.73.61,6.05,2.06,1.12,8.69-12.69,10.08-5.89.57,2.78-3.48,2.65-3.9,4.96-.13.72.3,1.65.77,2.38Z"/>
  <path class="cls-57" d="M244.24,225.21c.61-.67,1.54-.19,1.75.27.15.34.02.88,0,1.95,0,.49-.5.71-1.03.08-.57-.67-1.6-1.34-.72-2.3Z"/>
  <path class="cls-158" d="M142.95,201.07l1.34-.92,7.68,1.7c3.79-.18,7.13.2,10.03,1.15,2.41-.35,4.89-.66,7.44-.92l.76,2.07c2.21.15,3.31,2.21,3.31,6.2,1.67,1.44,3.54,2.53,5.61,3.28,7.38-.34,12.21,2.07,14.49,7.24,4.59.14,8.7,4.2,10.06,8.2-1.12,2.14.44,4.14,2.47,5.57-2.14.69-3.74.46-5,1.45-1.05-.95-3.55-.96-4.41-2.18-1.39-1.99-3.22-2.78-5.8-3.59-7.65-2.41-10.35-11.29-14.4-10.29-1.13.28-.14,2.17-.53,2.98-1.36,2.83-2.27,5.9-3.27,8.9-7.35-6.95,2.11-3.92-10.3-19.41-2.07-.34-3.19,1.32-4.63.25.72-1.09,2.24-1.77,2-3.8-2.37,1.73-4.24,3.57-6.8,4.34-1.58.21-1.58-.23.02-1.34.39-1.12,2.88-2.72.7-3.6-.66-.27-1.38.96-1.71,1.3-.43.43-1.63.12-1.9-.44-.21-.43.82-2.09.56-2.53l-10.68-5.35c-.48-2.03,1.5-1.22,2.96-.25Z"/>
  <path class="cls-90" d="M122,187c-.82,3.24-5.19,7.65-8.4,6.83s-3.55,1.1-5.84,2.97c-.79.65-2.41.76-2.95,1.33-1.06,1.13-.82,2.6-.82,3.86-10.06-.24-13,2.49-16.23-.09-6.1-10.09,1.43-5.88-12.92-10.58-3.07-1.01-7.49,5-8.44,5.26-.52.14-1.12-.53-1.6-.47-1.58-9.31.79-7.39,1.03-8.69.72-3.83-3.32.82-5.29.24-.78-.23-1.77-.92-1.46-2.15.37-1.51,4.6-4,5.64-4.26s2.1,1.83,3.18,2.01c4.31.72,6.21-3.56,8.31-5.92,2.54-2.86,4.65-5.31,6.62-8.63.51-.86,2.68-.67,3.02-1.51.55-1.37-1.32-4.12-.42-5.37.43-.6,1.23-.77,3.03-1.22-1.1-1.41-1.92-3.73-3.8-4.78s-4.43,4.64-4.93,1.3l-.15-1.32c5.09-5.83,10.62-11.18,16.59-16.04-.78-2.36,2.41-4.35,3.8-1.5-.45.55,0,1.64.56,1.68.96.07,4.11-3.18,3.88-1.43l-.25,1.96c-.61,4.69,8.02,1.97,1.02,16.77,2.57,1.28,4.66,1.54,6.72,2.95-.95,2.33-4.21,3.33-4.6,5.64-.27,1.87,3.3,2.24,4.34,3.38,1.31,1.43-1.13,2.97-1.32,4.28-.81,5.61,4.85,9.41,4.68,9.93-.36,1.08-3.43,2.93-2.69,4.63.41.93,1.43,1.31,2.35,1.65,2.51.92,2.61-4.79,4.71-4.56.81.09,1.72,1.43,2.63,1.84Z"/>
  <path class="cls-194" d="M129.88,192.89c1.48,1.29,1.09,1.93-.86,1.41-.49.34-1.21.36-1.76.56l-5.35-8.93c-.8-2.85-1.17-5.95-.92-8.93l1.35-.1c1.67,5.45,4.46,10.37,8.35,14.76l-.81,1.23Z"/>
  <path class="cls-179" d="M214.44,95.89c.41.83.98,1.57,1.73,2.12-.16,1.39.65,3.97-.88,5.05-1.83,1.29-4.16,1.4-6.09,2.35-2.67-1.65-5.22-1.13-7.38.32-.34-.77-.98-1.33-1.69-1.76.96-2.39,11.26-7.42,14.32-8.07Z"/>
  <path class="cls-31" d="M168.88,87.17c-.47,5.04-.1,10.34,3.26,13.77,2.28,2.33-.3,7.5-1.24,9.8-5.31,4.52-9.15-3.58-7.97-8.69-.28-.63-.53-1.27-.71-1.93,2.22-3.13-1.72-6.92.83-8.56.84-.54,2.33-.36,3.38-1.16.71-.54-.12-1.97.23-2.48.51-.75,1.53-.65,2.23-.75Z"/>
  <path class="cls-181" d="M170.9,110.74c1.92.5,3.98.46,5.94.41l-.73,3.52c-.83-.59-1.77-1.78-2.67-1.73-1.14.06-1.9.99-2.43,1.62,1.83,1.04,2.87,2.42,1.84,3.92-7.14-3.08-5.18,1.11-8.18.33-.89-.23-4.37-4.06-4.32-4.3.93-4.25,5.51,3.54,6.26-.69-2.24-1.95-3.65-4.9-6.29-5.84-.92.64-1.51,2.23-1.99,2.93s-2.22-.04-2.25-.84c2.5-2.97,5.37-5.01,6.85-8.02,2.46,1.03,2.27,4,1.92,7.04,1.97,1.18,4.14,1.14,6.05,1.64Z"/>
  <path class="cls-30" d="M152,129l6.9-1.36c4.54-.79,7.91,0,10.1,2.36,1.05.81,2.76,1.37,4,1.96s2.19,2.03,3,3.04c-2.34.36-6.85-1.44-9-3-10.83-3.13-20.57-.65-30.14,4.9-.46,1.38-1.63,2.53-3.51,3.44l-5.43,4.77c.89.08.84.36-.02.81-1.06,2.91-2.36,4.6-3.9,5.09-.28.87-.62.86-1,0,.6-1.72,1.91-3.15,2.18-5,.49-3.31,4.43-4.69,6.47-7.25,3.6-4.52,15.35-9.34,20.35-9.75Z"/>
  <path class="cls-168" d="M169,130c-5.69-.53-11.28-1.47-17-1,9.52-4.58,8.47-2.31,17.59-3.34.54,1.28,1.1,2.73.92,3.48-.13.51-.92.77-1.5.86Z"/>
  <path class="cls-181" d="M141.55,116.58c.76-.35.99-.01.97.31-.06.84.92,1.97-.02,2.09-.66.08-1.48-.41-2.05-.79-.48-.32.55-1.36,1.1-1.61Z"/>
  <path class="cls-181" d="M152.4,113.77c.31-.79,1.2.17,1.71.07,1.01-.2.48.82.26,1.21-.29.51-.62,1.06-.89.92-.63-.33-1.58-.92-1.08-2.2Z"/>
  <path class="cls-181" d="M156.62,116.67c-.02-.29,1.44-.4,1.62-.21s.13,2.5-.74,2.46c-.5-.02-.81-1.13-.88-2.25Z"/>
  <path class="cls-181" d="M147.39,117.86c.33-.98,1.15-.5,1.58-.23.48.3,1.58.86.55,1.32-.45.2-.81.38-1.11.64-.58.5-1.39-.6-1.01-1.72Z"/>
  <path class="cls-181" d="M149.96,60.03c.03,1.64,1.91,2.55,2.44,4.28.39,1.29-1.62,1.97-2.39,2.35-.3-1.69-2.73-2.38-3.34-4.06-.67-1.87,2.12-2.36,3.29-2.57Z"/>
  <path class="cls-35" d="M103.82,133.81c-1.34,1.45-2.83,2.77-3.84,4.48-2.3-.08-2.89,2.91-4.6,3.94-5.87,3.52-11.36,9.96-15.64,14.92-.75.16-1.72-.03-2.45-.03-1.68-1.06,7.54-9.91,7.15-9.42-1.08,1.35-8.14,9.07-9.01,9.04-.4-.01-.79-.33-1.17-.74,1.89-4.38,5.92-7.27,8.9-10.95-1.48-2.39-.51-2.59,1.86-1.7-.77-1.4-.24-1.89,1.22-1.29-.84-2.46-1.11-4.06.78-6.06.45-.33,1.54-1.08,1.76-2.12-.52-.85-3.17-.53-3.88.24-1.05-.57-2.08-1.2-2.9-2.09,1.45-.07,21.75.11,21.82,1.81Z"/>
  <path class="cls-171" d="M86.23,142.04c-1.42-.18-1.83.25-1.22,1.29-.21.69-1.44,1.17-1.86,1.7-.27-.29-.6-.61-.95-.69-1.45-.32-2.58,1.99-3.63,1.62-.6-.21-.58-1.31-.56-1.96,3.26-1.29,6.82-6.42,9.01-8.02-.07.87-.81,2.1.71,2.07,2.05-1.63,2.41-4.28,5.64-4.27-.44,3.52-3.51,4.45-5.32,6.36l-1.81,1.91Z"/>
  <path class="cls-171" d="M76.92,143.73c-.72.08-1.57.37-1.74.98-.53,1.87,2.82,3.28,1.24,4.23-.58.35-1.7,1.41-2.23.73l.63-2.04c.13-.43-.93-1.75-1.59-1.37-1.08,1.16-1.54,2.63-3.06,2.7.56-2.98,5.49-8.35,7.05-7.9.49.14.69,1.18.1,1.75-.32.31-.19.14-.41.92Z"/>
  <path class="cls-59" d="M225.57,101.46c.58.22.82.3.76.6-.19.87-.13,1.06-.52,1.34-.57.41-2,.69-1.92-.01.17-1.48.82-1.51,1.69-1.92Z"/>
  <path class="cls-59" d="M239.37,141.55c-.09-1.02,2.04-.75,2.57-.14.32.36-.39.84-.88,2.05-.35.85-1.48.35-1.69-1.91Z"/>
  <path class="cls-59" d="M241.55,133.2c.65-.26.79,2.55-.07,2.81-.69.21-1.34-.04-1.49-.54-.24-.79.26-1.75,1.56-2.27Z"/>
  <path class="cls-181" d="M141.41,63.2c-1.58-.07-1.02-3.24.29-2.95,1.76.38,1.14,3.02-.29,2.95Z"/>
  <path class="cls-126" d="M124,154c1.79,1.73,1.61,2.46-1,3-1.81,6.9-.7,14.19,1,21,.83.33.83.67,0,1,1.41,2.19,2.74,4.52,4,7,1.38,1.28,2.38,2.62,3,4,4.22,3.67,8.93,6.69,14.12,9.07.81-.41,2.21.12,2.88.93,5.44.73,11.01,1.02,16.42-.22l.58,1.22c1.31-.62,2.31-.62,3,0l.77,1.45c-2.31-.08-4.57.1-6.77.55-6.43.56-12.77-.65-19.05-1.93-5.55-.56-10.25-3.18-13.07-8.18l-7.06-11.75c-.86-1.44-.38-3.46-1.82-4.14.59-6.96-3.85-9.16,2-26h1c1.21-.17,1.21.83,0,3Z"/>
  <path class="cls-59" d="M202.13,164.09c.95,1.74-.12,3.48-1.1,5-.57-1.12-1.73-1.44-1.07-2.88.59-1.3.87-1.95,2.17-2.12Z"/>
  <path class="cls-59" d="M210.72,157.77c-.27.49-.25,1.15-.76,1.66-.45.44-1.26.21-1.79-.31-.84-.32-.98-1.15-.78-2.47.13-.9,3.12.56,3.34,1.12Z"/>
  <path class="cls-179" d="M142.95,201.07c-.89-.18-2.1-.03-2.96.25-.99.33-1.9,1.15-2.72,1.36-1.42.37-7.45-5.62-8.25-8.38.43-.3.53-1.03.86-1.41,3,.17,4.88,2.84,7.47,4.74,1.92,1.41,4.59,1.5,5.6,3.44Z"/>
  <path class="cls-96" d="M134.43,232.89c1.72-1.15,3.5-1.43,4.82-2.64,1.29,1.93-.29,2.22-1.29,3.21-.52.51-1.59,1.76-3.53-.57Z"/>
  <path class="cls-96" d="M148.9,217.04c.05,1.71-1.7.85-2.46.01s-2.52-2.51-.45-3.11c.77.12,2.14,1.94,2.91,3.1Z"/>
  <path class="cls-96" d="M153,213.29c-.64.6-.56,2.68-2.04,2.74s-1.34-2.34-.47-2.95c.6-.42,1.69-.68,2.53-1.13l-.02,1.34Z"/>
  <path class="cls-96" d="M150.25,220.21c.48-.47.93.4,1.21.57,1,.58.36,1.12-.62,1.45-.39.13-.44.3-1.36-.07-.4-.16.1-1.29.76-1.94Z"/>
  <path class="cls-96" d="M131.55,231.2c.66-.27.78,2.59-.07,2.82-.7.19-1.34-.04-1.49-.54-.24-.8.26-1.75,1.56-2.27Z"/>
  <path class="cls-96" d="M139.34,213.46c.35-.75.99.4,1.27.63.63.53.53,1.86-.16,1.96-1.35.2-2.04-.59-1.11-2.58Z"/>
  <path class="cls-90" d="M77.28,157.11l-5.31,2.8c1.07-1.5,1.7-2.58,2.28-3.92,5.62-2.92,8.41-10.07,15.67-14.19,1.82-1.03,2.64-4.82,5.75-2.94-6.33,5.53-14.45,13.11-18.38,18.26Z"/>
  <path class="cls-90" d="M70.98,178.53c-.99,1.01-2.71.79-3.95-1.06.99-1.01,2.71-.79,3.95,1.06Z"/>
  <path class="cls-124" d="M203.67,229.07c-2.46-.78-4.78-3.17-6.24-5.34-2.03-.66-3.89-.58-5.74-1.42-2.69-10.9-10.18-1.36-19.86-10.98l-1.63-7.17c2.43-2.35,5.46-4.19,9.06-5.54,4.57,3.21,10.04,1.69,13.14-2.92,2.27-1.52,4.46-3.33,6.58-5.42.97.06,2.16-1.62,3.04-.71.94.96.82,2.83,1.63,3.78.63.74,2.2.32,2.86.57,4.08,1.55-3.04,2.13-2.34,4.59.6,2.09,5.11,4.01,6.06,3.51,1.15-.61,1.94-1.85,3.06-1.43,1.96.73,3.65,4.33,5.02,3.33l2.66-1.95c.31,2.19-1.69,3.36-.83,5.16.41.86,1.99,1.5,3.21,3.11-2.57,3.25-12.78,9.15-9.46,15.16,1.2,2.17,2.32,3.22,5.61,5.09-4.15.5-5.44,2.97-6.49,5.93-3.49-2.92-5.66-6.18-9.34-7.34Z"/>
  <path class="cls-25" d="M198.97,190.27c-13.9,19.96-10.58,5.96-22.06,16,.1-3.53,4.36-2.79,3.51-6.14-3.32,1.22-6.61,4.81-10.23,4.03-2.79-.6-5.22-1.41-8.2-1.15-.78-1.73,6.78-.27,6-2l.04-.81c2.55-.67,4.87-1.73,6.96-3.19-.06-1.39,1.04-2.12,2-1,1.42-1.46,2.03-1.4,1.82.19,3.85,1.04,5.28-.57,5-3.97-.35-.35-.62-.65-.55-.78,1.7-3.18,5.59-9.56,7.67-12.39.13-.18.56-.15,1.06-.05,1.2-1.16,1.72-2.37,2.45-3.66.17,6.98-.88,11.3-5.93,15.89,6.75,2.39,5.72-11.01,12.06-5.64-4.52,2.13-7.22,5.55-8.76,9.42,3.3-1.49,3.96-4.94,7.16-4.75Z"/>
  <path class="cls-140" d="M192,179c-.54.52-8.41,14.18-8.18,13.22,1.8,2.36-1.69,5.75-3.56,2.8-1.72-.32-.72-1.73.71-2.21l-.23-1.18c4.21-5.38,7.67-11.26,10.38-17.64-1.43-2.59-2.31-8.7.88-9.99l-1.99-9.38.99-.62c5.27,9.48,2.19,16.43,1,25Z"/>
  <path class="cls-75" d="M176,135c3.12,2.03,5.62,5.33,8,8-.19.88-.52.85-1,0-.94.8-2.67-.13-2.43-1.39-4.03-2.1-8.11-4.28-11.52-7.31-2.75,1.46-3.72.7-3.05-2.3h1c2.8.61,6.55,1.4,9,3Z"/>
  <path class="cls-47" d="M191,154c-.03,3.4,1.5,6.56,1,10-4.21-2.86-6.99-12.06-6-17-.5-.33-.5-.66,0-1-1.4-4.65,5.97,9.74,5,8Z"/>
  <path class="cls-59" d="M201.84,159.9l-5.09,4.18c-.81-2.79.96-4.94,3.82-6.04,1.53-1.83,2.25.26,1.27,1.87Z"/>
  <path class="cls-151" d="M186,146c.08.3-.13.73,0,1-2.76,1.69-4.52-.29-3-3-.87-.28-.86-.62,0-1,.33-.02.67,0,1,0,.98,1.1,1.53,1.43,2,3Z"/>
  <path class="cls-50" d="M144.02,147.11c.33.62.55,1.16.37,1.45-.63,1-6.02,7.49-7.01,8.5-.19.2-.68.11-1.25-.06-4.03,7.75-1.82,16.03,2.87,22.99,9.06,8.77,5.07,16.61-5.66,10.02-.02,1.61-.57,1.4-1.34-.02l-4-4-4-7c-.03-.31-.05-.69,0-1-1.71-6.8-2.82-14.09-1-21,.45-.84-.16-2.41,1-3,1.03-2.81,2.33-5.51,3.9-8.09.04-.26-.01-.54.02-.81,4.27-4.07,11.64-10.85,17.38-5.78,3.73,3.3,2.59,5.64-1.28,7.79Z"/>
  <path class="cls-81" d="M150.93,132.32l1.36,2.15c-3.11,5.45,1.37,7.89,13.42,7.33l1.4,2.28c1.44.3,2.23,1.22.88,2.13l-1.22.94c-5.2-2.39-10.48-3.17-15.85-2.33-1.09,1.74-5.1,3.46-6.9,2.29.96-1.01,1.86-2.16,1.57-3.66-.23-1.18-1.09-2.68-2.84-3.38-7.45-2.95-11.86,4.52-14.82,5.02,2.58-2.67,5.09-7.12,8.94-8.2l10.42-4.66c1.58-.8,2.8-.77,3.65.09Z"/>
  <path class="cls-196" d="M167,132c-.31-.07-.69-.03-1,0-2.05,2.46-5.5,2.74-10.37.85-2.31,1.24-3.87,1.07-4.7-.52-4.94.72-9.28,3.23-14.08,4.57,8.11-6.69,20.53-9.28,30.14-4.9Z"/>
  <path class="cls-86" d="M124,154v-3c1.85-1.32,1.67-4.19,3.9-5.09-.5,2.95-1.84,5.93-3.9,8.09Z"/>
  <path class="cls-210" d="M86.23,142.04c-.29.3-1.09.86-1.22,1.29-.42.45-2-.17-1.86-.81.15-.71.99-1.28,1.45-1.51.54-.27,2.03.12,1.64,1.04Z"/>
  <path class="cls-141" d="M179,193c1.61.76-.46,2.75-2,3-.53.37-1.38.76-2,1-3.03,1.96-6.37,3.29-10,4-5.66-.63-11.7,1.33-17-1,.21-.48.55-.53,1-.2l1.23-2.01c4.08.58,8.03.48,11.86-.31l1.81,1.37c.82-2.71,1.14-3.28,3.29-1.11,3.13-1.91,6.31-3.47,9.54-4.67-.26-1.94.54-1.96,1.22-.05l1.05-.02Z"/>
  <path class="cls-86" d="M124,178c-2.96-4.62-4.11-15.17-1-21-.84,5.3,1.35,18.75,1,21Z"/>
  <path class="cls-203" d="M133.34,190.02c3.72,1.55,7.43,3.46,11.13,5.73-.04,1.15.18,2.26.65,3.32-5.43-.51-10.66-4.87-14.12-9.07.3-.61.63-.6,1,0l1.34.02Z"/>
  <path class="cls-110" d="M175,197c-1.1,2.65-4.69,2.83-7,4-.71.22-2.25.08-3,0,2.96-2.01,6.68-2.71,10-4Z"/>
  <path class="cls-19" d="M128,186c-2.05-1.73-3.71-4.08-4-7,1.93-1.29,3.54,5.7,4,7Z"/>
  <path class="cls-161" d="M132,190h-1c-1.03-1.25-2.85-2.15-3-4,1.7.91,3.11,2.29,4,4Z"/>
  <path class="cls-161" d="M149.92,187.71l1.57,1.68-4.36,7.06c1.72.67,2.35,1.79,1.87,3.35-.33.01-.67.17-1,.2-.78-.34-2.25-.22-2.88-.93-.56-2.1-11.14-5.52-11.78-9.05.94-.59,2.37-.95,3.72.13,1.69,1.35,5.64.35,5.37-2.05-.35-3.02-2.87-5.38-3.43-8.1.45-1.78,1.07-1.44,1.31.4l4.44,3.23c2.98.97,4.7,2.33,5.16,4.08Z"/>
  <path class="cls-57" d="M199.55,193.23c5.63-1.08-6.15,10.39-7.65,8.74.45-.95,8.72-8.95,7.65-8.74Z"/>
  <path class="cls-57" d="M208.23,225.34c-.25-1.88,5.47,4.36,5.45,4.09.03.51-.95,2.1-1.53,1.48-1.69-1.79-3.48-3.23-3.92-5.57Z"/>
  <path class="cls-57" d="M216.46,209.38c-.05-.73,1.26.13,1.58.14.68.03,1.1,1.12.6,1.59-.24.22-.55.7-1.12.81-.46.09-.94-.8-1.06-2.54Z"/>
  <path class="cls-57" d="M212.86,205.47c.86-.91,1.73-.65,2.12,0,.42.71.08,1.61-1.42,1.59-.67-.01-2.24.02-.7-1.59Z"/>
  <path class="cls-119" d="M178.82,196.19c-.93-1.03.18-2.07,1.44-1.17,1.6-.24,3.15-1.14,3.56-2.8.67.39,1.5.93,1.63,1.57.34,1.69-1.83,4.97-4.92,4.68-.81-.08-1.38-1.31-1.71-2.29Z"/>
  <path class="cls-110" d="M180.97,192.81l-.71,2.21c-.56.08-.98.89-1.44,1.17l-1.82-.19,2-3c.56-1.2,1.65-1.63,1.97-.19Z"/>
  <path class="cls-172" d="M183,144c.98,1.04,1.69,2.36,3,3,2.59,5.48,4.08,11.32,6,17-.48,3.34,1.08,7.06-.88,9.99-.51,1.94-1.29,2.7-2.34,2.3-3.65,3.26-5.39.69-6.99-2.97l-2.28-.74c-.29-3.88-.18-7.73.33-11.57.72-.64.08-1.63-1.92-2.96-1.95-.53-4.96-4.59-4.95-7.01-1.21-1.66-1.27-2.65-.16-2.98-.54-5.12,5.84-8.38,10.18-4.07Z"/>
  <path class="cls-165" d="M180.97,192.81l-1.97.19-1.05.02c-.68-1.87.24-3.76,2.77-5.65l1.82-2.66c.85-5.28,2.93-8.08,6.24-8.41.4-.99,1.66-1.55,2.34-2.3-.39,7.43-5.67,13.08-10.15,18.82Z"/>
  <path class="cls-146" d="M166,132c.81,1.01,1.91,1.7,3.05,2.3,3.55,2.92,7.48,5.15,11.52,7.31.72.3,1.45,1.43,2.43,1.39v1c-1.61-.02-2.82-1.13-4.8-1.48-1.32,2.79-3.65,3.83-5.38,5.55-1.86-.48-3.77-1.81-5.71-3.99-10.03-1.94-14.58.09-16.65-2.95-2.87-4.22-.72-4.77.47-8.81,1.79-.26,3.58-1.98,5.97-1.31,3.2.9,6.18,1.26,9.09.99Z"/>
  <path class="cls-151" d="M180.57,141.61c-4.8-.62-9.76-2.62-11.52-7.31,4.38.73,8.62,3.99,11.52,7.31Z"/>
  <path class="cls-204" d="M150.92,144.82c.84-.32,1.54-.26,2.08.18.85.35.81.68-.08.99l-.62,2.34c-6.11,2.34-12.26,6.61-13.23,13.5l-2.07,1.17c.1,3.09-.56,5.09-2,6-2.06-3.46-.59-8.39,1.13-11.99,2.76-3.12,4.64-7.16,7.88-9.9,1.7-1.43,4.93-1.67,6.9-2.29Z"/>
  <path class="cls-19" d="M135,169c.87.61,4.85,9.57,4.74,10.18-.05.31-.36.57-.74.82-2.53-1.45-9.89-15.05-2.87-22.99-1.02,3.95-1.43,7.92-1.13,11.99Z"/>
  <path class="cls-189" d="M167.98,146.21c2.33-.4,4.34,2.57,4.99,4.84.98,1.56,1.01,2.26-.84,1.74-1.9.8-4.03.09-6.4-2.13-2.63-.61-4.2-1.81-4.72-3.6-.33.7-.6.6-.81-.2-1.8-1.06-4.2-1.69-7.21-1.87-.64-.02-1.48-.37-2.08-.18,5.45-1.94,11.68-.92,17.07,1.39Z"/>
  <path class="cls-151" d="M172.82,148.07c.25.97.3,1.99.16,2.98-1.65-1.51-3.45-3.28-4.99-4.84l-.88-2.13c2.09.41-.87-2.96,5.71,3.99Z"/>
  <path class="cls-34" d="M188.78,176.29c-.43,1.06-1.49,2.05-2.91,2.94.22,5.84-3.81,10.08-7.91,13.78l-1.22.05c-3.24,1.36-6.42,2.92-9.54,4.67-.81.61-2.44.66-3.29,1.11-1.51-.74-2.19-2.36-2.02-4.86-1.27-1.89-1.56-3.55-.88-4.99,1.24-1.2,2.86-2.12,4.85-2.74.68-2.3,5.02-5.01,7.48-6.41,3-4.74,4.57-9.68,4.71-14.82-.62-2.74-.66-5.07-.11-6.97,2.07-.15,4.16-1.37,6.32.93-4.47,3.16-5.12,7.89-3.7,12.17,5.42-.21,1.9,5.83,8.23,5.13Z"/>
  <path class="cls-172" d="M152,188c3.14.4,6.14.73,9,1,2.95,2.59,3.57,6.05,2.9,9.85-4.5,2.36-9.9.78-14.9.95-1.13-1.13-3.14-.82-4.4-2.75,1.56-3.72,4.52-5.94,5.31-9.34.3-.83.61-.8.93.05l1.15.24Z"/>
  <path class="cls-165" d="M176.73,193.07c-1.91,2.94-6.19,4.6-9.54,4.67,3.35-2.88,5.98-6.69,9.54-4.67Z"/>
  <path class="cls-73" d="M177.93,158.06c1.87,7.91,1.38,16.42-4.6,21.79-.91.03-.92-.5-.03-1.58-2.34-1.62-2.05-3.35.98-3.43-1.79-1.82-1.02-3.31,1.64-2.84,1.53-5.56.57-12.41-2.98-17.04-2.07.05-2.42-.86-.8-2.17.16-.53.75-1.14.84-1.74,2,1.83,3.44,4.84,4.95,7.01Z"/>
  <path class="cls-91" d="M173.33,179.85c-1.95,1.75-5.02,5.58-7.48,6.41-1.8,1.41-3.09,1.65-3.85.74-3.67.43-7.38.69-11.15.76-.26-.13-.7.1-.93-.05-3.47-2.28-8.16-3.22-9.6-7.31.28-.64.55-.52.82.23-.06-.86.22-.9.81-.19l2.89-.46c8.56,6.14,17.9,5.51,25.54-1.77l2.91.07c-.27.38.2,1.13.03,1.58Z"/>
  <path class="cls-152" d="M141.14,180.62c-.27-.02-.57-.13-.82-.23-.41-.16-.94-.18-1.31-.4-.79-3.88-3.62-6.98-4-11,.6-1.67,1.98-4.28,2-6,1.87,1.51,2.67,4.2,2.4,8.09,2.05,3.22,2.62,6.4,1.74,9.54Z"/>
  <path class="cls-38" d="M160.21,146.87c.27-.01.54.17.81.2,2.4,1.02,1.53,2.4-2.63,4.12-.35,3.78-1.79,6.39-4.31,7.83-1.32,3.67-3.46,5.44-6.4,5.31,2.05,5.27-1.24,13.61-5.72,16.11-.27.02-.55.21-.81.19-2.4-8.57-4.56-5.42-4.14-17.62.11-8.53,7.96-14.39,15.92-17.01,1.9-1.13,5.7-.64,7.29.88Z"/>
  <path class="cls-153" d="M160.21,146.87c-2.32.1-4.99-1.64-7.29-.88l.08-.99c1.67.04,8.83-.77,7.21,1.87Z"/>
  <path class="cls-178" d="M172.14,152.79c.19.7.53,1.48.8,2.17,3.58,4.63,4.52,11.46,2.98,17.04-.7.7-.52,2.29-1.64,2.84-1.6,1.54-3.54,1.14-5.83-1.19-4.14-4.77-6.21-7.16-6.21-7.16-1.44.6-3.17-.13-5.2-2.18-1.11-1.66-2.09-3.43-2.97-5.3,2.57-3.27.2-8.79,4.73-10.45,1.05-.39,2.37-.14,2.21-1.49,4.33.46,7.85,2.96,11.12,5.72Z"/>
  <path class="cls-165" d="M165.85,186.26c-1.35.46-2.49,3.09-4.85,2.74-3.04-.45-6.55,1.14-9-1,3.28-.33,6.61-.67,10-1,.9-.64,2.94.25,3.85-.74Z"/>
  <path class="cls-24" d="M162,187c-2.89,2.05-6.58.62-10,1-.26-.22-.84-.09-1.15-.24,3.39-1.79,7.43-.27,11.15-.76Z"/>
  <path class="cls-26" d="M174.27,174.84c-.61.68-.39,2.59-.98,3.43-10.55,9.89-19.43,10.56-31.35,2.16.18-5.22,8.23-10.18,2.35-17.92-.58-.76,1.6-1.52,2.65-1.36.55.08.52.59,1.29,1.55,1.05-.18,2.31-1.05,2.57-1.91.17-.57-.66-1.88.36-2.47.82-.48,2.1.65,2.9.68,2.23.09,3.58-1.85,6.06-2.42l-3.43,5.61c1.02.49,2.25-.35,2.72.15.55.58.69,2.28.99,3.31,4.01-4.91,3.05,4.35,13.87,9.18Z"/>
  <path class="cls-115" d="M175.92,172c.84-5.93-.78-11.54-2.98-17.04,4.72,1.77,5.24,14.79,2.98,17.04Z"/>
</svg>