<?xml version="1.0" encoding="UTF-8"?>
<svg id="Layer_1" data-name="Layer 1" xmlns="http://www.w3.org/2000/svg" viewBox="0 0 193.18 49.43">
  <defs>
    <style>
      .cls-1 {
        fill: #e35896;
      }

      .cls-2 {
        fill: #e35997;
      }

      .cls-3 {
        fill: #e05795;
      }

      .cls-4 {
        fill: #e35996;
      }
    </style>
  </defs>
  <g>
    <path class="cls-3" d="M79.82,6.05l-.32,2.71c7.71,1.52,15.53,1.91,23.46,1.16.98-.49,1.54-1.48,1.68-2.96,3.32-1.68,7.13-.64,11.04-1.08,4.81-.53,9.31-.7,14.16-.85,3.72-.11,7.37-1.31,11.26-.36,4.41-1.22,8.69-1.26,13.26-.81l18.71,45.57-150.75-.03L39.75,1.93l40.07,4.12Z"/>
    <path class="cls-3" d="M31.07,6.88l-1.61,5.74c-.25.99-1.02,1.49-2.3,1.5-3,9.37-6.5,18.53-10.5,27.5l-1.9.14c-5.32-5.36-9.75-11.07-14.76-16.96l12.06-8.16c2.76-1.87,10.66-12.49,13.72-14.15.98.44,1.73,1.26,2.26,2.48,1.47.3,2.48.94,3.03,1.93v-.02Z"/>
    <path class="cls-3" d="M179.65,38.85l-2.35-1.82c-2.89-8.69-6.05-17.26-9.48-25.72-.9.49-1.41,0-1.98-.92-.43-2.17-2.68-3.71-2.21-5.78l.9-1.27c1.55-.26,2.74-1.26,3.59-3.02,2.76,1.13,6.79,7.82,9.24,9.69l15.82,12.12-13.53,16.72Z"/>
    <path class="cls-4" d="M104.64,6.98c.71.7,1.11,1.64.92,2.36-.27,1.03-1.42,2.03-2.73,2.12-2.47.16-34.12,1.61-23.01-5.4,4.26.03,8.68-.46,13.22.13,10.92,1.41,6.57-1.95,11.6.8h0Z"/>
    <path class="cls-1" d="M31.32,11.27c.42,2.45-1.17,4.05-2.24,6.28-3.24,6.82-7.39,16.07-11.28,22.41-.88,1.42-.64,2.65-3.04,1.8-1.3-.73-.66-2.41-1.23-3.12,3.82-3.75,13.05-25.99,14.34-27.21.94-.89,2.38-.4,3.45-.16Z"/>
    <path class="cls-2" d="M179.65,38.85c-.99,1.23-1.09,2.64-2.9,3.24l-5.13-14.32c-2.15-6-4.62-11.54-5.78-17.38.48-.06,2.61-1.22,3.09-.2,4.67,9.91,6.74,19.18,10.72,28.66Z"/>
    <path class="cls-2" d="M31.07,6.88c-1.33.18-2.82.18-4.01-.82-.94-.78-1.41-2.24-1.28-3.59,1.65-2.23,4.56-2.13,6.17-.61,1.47,1.38,1.05,4.23-.88,5.01h0Z"/>
    <path class="cls-2" d="M168.12.32c.6,1.43.36,2.88-.95,3.66-1.11.66-2.35,1.17-3.54.62-.6-.73-1.8-1.62-1.5-2.07,1.46-2.19,3.92-3.06,5.99-2.21h0Z"/>
  </g>
  <path class="cls-3" d="M25.76,16.4c.85-.12,1.71-.3,2.56-.54.4-.11.81-.24,1.19-.53.24-.18.45-.42.66-.68.11-.14.22-.29.32-.45,1.72-2.53,2.87-5.97,2.64-9.17-.11-1.59-.72-3.23-1.84-3.42"/>
  <path class="cls-3" d="M121.52,8.19c-16-1.99-32.11-1.78-48.2-1.49-1.81.03-3.08.77-3.86,1.82-.19.01-.37.02-.56.03-6.37.44-6.46,10.35,0,10,2.44-.13,4.88-.18,7.33-.21,2.24.01,4.48.08,6.72.17.8.83,1.95,1.37,3.44,1.37,4.84,0,9.68-.02,14.52-.03,3.97,0,7.97.52,11.59-1.33.54-.28.97-.67,1.33-1.12,2.56.21,5.12.46,7.68.78,6.37.79,6.31-9.22,0-10h0Z"/>
  <path class="cls-3" d="M87.93,32.08c-6.43,0-6.45,10,0,10s6.45-10,0-10Z"/>
  <path class="cls-3" d="M162.15,2.78c-.55.14-.24,2.7.14,4.18.25.99.5,1.93,1.33,2.9.75.88,2.18,2.02,2.66,1.75,1.12-.63-3.08-9.09-4.12-8.83h-.01Z"/>
  <polyline class="cls-3" points="79.38 5.93 80.06 6.59 96.82 8.23"/>
  <polyline class="cls-3" points="77.66 5.71 76.15 5.71 76.15 8.23 119.49 8.23 119.49 5.71"/>
  <polyline class="cls-3" points="148.2 3.63 135.14 4.67 135.2 6.23 142.43 6.52"/>
  <polygon class="cls-1" points="28.53 17.5 30.16 14.65 28.02 14.65 28.53 17.5"/>
  <polyline class="cls-1" points="164.65 10.87 167.04 14.74 167.68 11.66"/>
</svg>