<?xml version="1.0" encoding="UTF-8"?>
<svg id="Layer_1" data-name="Layer 1" xmlns="http://www.w3.org/2000/svg" viewBox="0 0 284.41 343.29">
  <defs>
    <style>
      .cls-1 {
        fill: #4b4945;
      }

      .cls-2 {
        fill: #4c4844;
      }

      .cls-3 {
        fill: #170e0c;
      }

      .cls-4 {
        fill: #221918;
      }

      .cls-5 {
        fill: #19120f;
      }

      .cls-6 {
        fill: #4b4846;
      }

      .cls-7 {
        fill: #bca7aa;
      }

      .cls-8 {
        fill: #4c4846;
      }

      .cls-9 {
        fill: #342023;
      }

      .cls-10 {
        fill: #4f494b;
      }

      .cls-11 {
        fill: #4b4642;
      }

      .cls-12 {
        fill: #221816;
      }

      .cls-13 {
        fill: #4b4947;
      }

      .cls-14 {
        fill: #221a18;
      }

      .cls-15 {
        fill: #211814;
      }

      .cls-16 {
        fill: #fbfaf9;
      }

      .cls-17 {
        fill: #251a19;
      }

      .cls-18 {
        fill: #261b1b;
      }

      .cls-19 {
        fill: #231815;
      }

      .cls-20 {
        fill: #f2a9c6;
      }

      .cls-21 {
        fill: #18100e;
      }

      .cls-22 {
        fill: #faf9f7;
      }

      .cls-23 {
        fill: #170e0e;
      }

      .cls-24 {
        fill: #180e0f;
      }

      .cls-25 {
        fill: #240a12;
      }

      .cls-26 {
        fill: #edacc1;
      }

      .cls-27 {
        fill: #eab4ca;
      }

      .cls-28 {
        fill: #160d09;
      }

      .cls-29 {
        fill: #120806;
      }

      .cls-30 {
        fill: #17110d;
      }

      .cls-31 {
        fill: #f7f5f4;
      }

      .cls-32 {
        fill: #291a18;
      }

      .cls-33 {
        fill: #fbf9f8;
      }

      .cls-34 {
        fill: #170d0d;
      }

      .cls-35 {
        fill: #261e1a;
      }

      .cls-36 {
        fill: #fafaf8;
      }

      .cls-37 {
        fill: #2f1f22;
      }

      .cls-38 {
        fill: #312025;
      }

      .cls-39 {
        fill: #49373c;
      }

      .cls-40 {
        fill: #f7bed5;
      }

      .cls-41 {
        fill: #ea9ebe;
      }

      .cls-42 {
        fill: #533b47;
      }

      .cls-43 {
        fill: #4b3d42;
      }

      .cls-44 {
        fill: #201716;
      }

      .cls-45 {
        fill: #f3b3d0;
      }

      .cls-46 {
        fill: #332326;
      }

      .cls-47 {
        fill: #524b48;
      }

      .cls-48 {
        fill: #2d1b1d;
      }

      .cls-49 {
        fill: #f8f8f6;
      }

      .cls-50 {
        fill: #170e0d;
      }

      .cls-51 {
        fill: #180d0e;
      }

      .cls-52 {
        fill: #1e1513;
      }

      .cls-53 {
        fill: #784a57;
      }

      .cls-54 {
        fill: #140f0e;
      }

      .cls-55 {
        fill: #302222;
      }

      .cls-56 {
        fill: #1b120f;
      }

      .cls-57 {
        fill: #221a19;
      }

      .cls-58 {
        fill: #fbfaf8;
      }

      .cls-59 {
        fill: #908383;
      }

      .cls-60 {
        fill: #1b0d0d;
      }

      .cls-61 {
        fill: #4d4845;
      }

      .cls-62 {
        fill: #4e3b43;
      }

      .cls-63 {
        fill: #181111;
      }

      .cls-64 {
        fill: #1f0a0c;
      }

      .cls-65 {
        fill: #4b4946;
      }

      .cls-66 {
        fill: #fcfcfb;
      }

      .cls-67 {
        fill: #2d1c20;
      }

      .cls-68 {
        fill: #463339;
      }

      .cls-69 {
        fill: #7d5f65;
      }

      .cls-70 {
        fill: #180f10;
      }

      .cls-71 {
        fill: #1a1112;
      }

      .cls-72 {
        fill: #f5bed8;
      }

      .cls-73 {
        fill: #dcd9d6;
      }

      .cls-74 {
        fill: #f3abc6;
      }

      .cls-75 {
        fill: #efb2cb;
      }

      .cls-76 {
        fill: #161010;
      }

      .cls-77 {
        fill: #2f1d20;
      }

      .cls-78 {
        fill: #483f46;
      }

      .cls-79 {
        fill: #6a525e;
      }

      .cls-80 {
        fill: #ad8495;
      }

      .cls-81 {
        fill: #261c1c;
      }

      .cls-82 {
        fill: #f5f4f3;
      }

      .cls-83 {
        fill: #efd0d6;
      }

      .cls-84 {
        fill: #211915;
      }

      .cls-85 {
        fill: #201414;
      }

      .cls-86 {
        fill: #ec9dbe;
      }

      .cls-87 {
        fill: #ebe8e4;
      }

      .cls-88 {
        fill: #fdfdfc;
      }

      .cls-89 {
        fill: #8a6f7f;
      }

      .cls-90 {
        fill: #171110;
      }

      .cls-91 {
        fill: #eeabc5;
      }

      .cls-92 {
        fill: #deb1c4;
      }

      .cls-93 {
        fill: #221815;
      }

      .cls-94 {
        fill: #6f6064;
      }

      .cls-95 {
        fill: #1c0e0a;
      }

      .cls-96 {
        fill: #9e7887;
      }

      .cls-97 {
        fill: #f2bfd3;
      }

      .cls-98 {
        fill: #ec9fbf;
      }

      .cls-99 {
        fill: #17100d;
      }

      .cls-100 {
        fill: #15100d;
      }

      .cls-101 {
        fill: #160e0b;
      }

      .cls-102 {
        fill: #120b09;
      }

      .cls-103 {
        fill: #231816;
      }

      .cls-104 {
        fill: #241d1e;
      }

      .cls-105 {
        fill: #100907;
      }

      .cls-106 {
        fill: #211916;
      }

      .cls-107 {
        fill: #271e1c;
      }

      .cls-108 {
        fill: #1a0f0c;
      }

      .cls-109 {
        fill: #f1f1ed;
      }

      .cls-110 {
        fill: #261818;
      }

      .cls-111 {
        fill: #fefefe;
      }

      .cls-112 {
        fill: #281f1d;
      }

      .cls-113 {
        fill: #191110;
      }

      .cls-114 {
        fill: #1e1716;
      }

      .cls-115 {
        fill: #231a18;
      }

      .cls-116 {
        fill: #a17381;
      }

      .cls-117 {
        fill: #120807;
      }

      .cls-118 {
        fill: #261f1b;
      }

      .cls-119 {
        fill: #191010;
      }

      .cls-120 {
        fill: #231814;
      }

      .cls-121 {
        fill: #4e4946;
      }

      .cls-122 {
        fill: #eeb3ca;
      }

      .cls-123 {
        fill: #241a18;
      }

      .cls-124 {
        fill: #e5afc4;
      }

      .cls-125 {
        fill: #211917;
      }

      .cls-126 {
        fill: #f3bdd4;
      }

      .cls-127 {
        fill: #46433f;
      }

      .cls-128 {
        fill: #221b18;
      }
    </style>
  </defs>
  <g>
    <path class="cls-13" d="M185.17,83.23c6.09-.09,9.76,2.03,14.82,4.97,5.71,3.32,24.44,17.22,26.69,22.36.51,1.16.73,2.33.48,3.59,8.96,10.51,13.24,26.86,14.93,40.07,2.18,17.02-3.67,35.06-14.38,47.96-2,2.42-4.15,2.75-5.4,4.84-2.53,1.98-6.75.85-5-3.03-2.42-1.17-2.45-2.73.18-3.66.07-.9.35-.89.83-.07,1.02-3.51.98-7.23-.13-11.14-2.35.05-3.89-2.88-1-4.08l-2.22-1.37c-2.44-11.57-11.06-21.31-20.8-27.64-9.09-5.91-15.93-8.41-25.45-2.67l-2.3-1.23c-.58,3.5-1.6,3.13-4.33,1.93-.27,2.74-2.26,3.38-5.98,1.93-1.96.08-2.11-.65-.35-1.61-5.22-4.4,2.57-7.08,6.59-8.22l-.09-2.35c18.3-17.96-8.32-42.71-28.67-32.77l-2.41-1.08c-3.51,2.36-6.78,5.01-9.79,7.95l.93,2.14c-3.28,4.78-4.93,10.45-2.59,15.97l-.88,2.01c2.72-.92,2.98.97,1.52,2.91.74.28,1.3,1.02,1.66,2.23,2.47-1.18,4.43,1.3,3.18,3.85-.82,2.59-4.11,4.06-6.97,3.87-1.46,1.5-3.85,1.41-7.15-.27l-8.04.98c-3.44,2.23-6.72,3.14-9.85,2.73l-1.2,2.82c-7.43,3.94-13.55,9.97-17.82,17.22l-2.89,1.09c.7,4.16-.42,12.4-3.99,14.65l-.42,8.7c-3.85,3.01-10.02,2.42-12.66-2.59-.28-.64-.77-1.4-1.12-2.03,1.46-.6,1.16-1.96-.9-4.07-3.3-6.19-6.42-43.78-2.42-47.11,2.74-2.28,4.58.94,4.91,3.68,4.31,2.73,4.11-1.8.11-3.83-2.57-4.5-1.32-9.06,3.5-11.25.61-3.55-.17-4.72-2.36-3.53-1.78.12-2-.88-.65-3.02-.03-.29.11-.61.04-.89.25-.87.57-.83.95.04l3.77-6.2-.03-3.34c7.45-9.1,18.47-22.04,29.52-26.5,1.66-.67,2.87-1.15,4.65-.04,28.26-12.48,61.71-15.68,90.96-4.92Z"/>
    <path class="cls-2" d="M53.12,194.21c-11.6-20.99-10.49-48.77,2.19-69.12-.57,3.63,3.62-1.78,4.4.31,1.05,2.84.56,5.53.54,8.51-3.84-.26-3.94,1.52-4.66,3.96-1.63,5.51,7.49,5.63,3.47,10.38-.77.91-2.42,1.97-4.05,1.18-3.36-1.64-2.25-4.3-3.12-5.26-2.83-3.14-1.56,26.09-1.39,27.78.4,4.09,2.33,7.72,1.68,12.21-1.1,7.63,5.35,6.59,3.14,10.54-.65,1.17-1.24-.21-2.2-.49Z"/>
    <path class="cls-2" d="M69.44,207.16c.82,1.59.72,4.06,1.13,6.12-7.11-4.81-13.28-10.05-16.33-17.04,1.35-.05,2.25,2.41,3.71,2.34l8.61-.45c-1.43-3.54.39-5.79.76-8l1.93,1.68.19,15.35Z"/>
    <path class="cls-84" d="M74.38,179.24c-1.08,2.6-.57,6.41-2.03,8.89-.73,6.18-1.16,12.29-1.29,18.34l-.88.63-.74.06c-2.71-5.24-2.38-11.18-2.12-17.03.85-5.02,1.58-10.06,3.99-14.65,3.08-2.17,3.37.95,3.07,3.76Z"/>
    <path class="cls-11" d="M222.33,207.03c-1.74,2.92-4.99,4.72-8.38,7.09.19-3.13,1.27-5.53,2.38-7.96-1.46-1.59-1.31-2.56.99-2.16.31.75-.5,1.66.58,2.21,1.27-1.64.37-3.33,2.16-4.2.26,2.42.33,4.44,2.26,5.02Z"/>
    <g>
      <path class="cls-12" d="M250.49,23.27c2.53-.56,5.45.89,6.87,2.99.3.73.65,1.87.19,2.18-3.59,2.42-15.5,9.37-19.13,10.58-1.74.58-3.73.92-5.98,1.02-.1,3.75-3.44,3.63-6.17,2.94.35,1.19-.97,1.85-2.06,1.26l-.59,2.47c-11.19,5.54-22.18,11.44-32.97,17.72-.87,4.05-1.01,8.17-.42,12.37,2.45,1.02,3.42,2.43,2.92,4.23.64,3.36-2.02,4.1-7.97,2.2l-4.29.63c-27.03-8.63-56.25-5.93-82.35,4.63l-4.31-.34c-2.7.91-2.98-3.18-1.88-4.92-.96-1.96.3-3.42,3.77-4.37-.26-4.56.02-8.68.85-12.37-11.36-4.53-25.02-11.07-35.9-16.86-1.56-.83-2.67-2.28-3.7-3.67-8.47-1.52-17.11-4.31-23.31-10.52-3.71.28-7.61-.89-11.72-3.51l.59,9.55c-1.33,2-1.61,4.55-.82,7.64l1.71,4.28c3.05,21.61,5.86,43.28,8.43,64.99l13.81,3.73c1.8-1.72,3.56-2.39,5.28-2,2.96-3.93,6.45.14,4.03,4.07.91.19.87.49-.04.89l.19,3.61c-10.89,19.47-10.86,43.5-1.91,63.56l-.47,1.95c2.37.93,2.74,1.61,1.12,2.03,4.23,4.24,8.65,8.36,13.24,12.37l1.96-1.45c.02-.89.27-.88.74-.06.05-3.26.75-5.58,2.08-6.97l2.2.96c1.14,5.4,3.59,12.95,8.46,16.04,8.9,5.65,19.13,7.74,29.36,9.74l1.98,2.45,6,.81c.12-2.8.95-2.58,2,0,.87.28.86.62,0,1-1.05.51-2.47.87-4.26,1.08l2.68,1.42c3.53-.9,9.73-.94,8.62,3.33-.54.5-1.11.97-1.74,1.32-5.83,3.27-32.69-5.1-40.08-7.84-4.43,3.64-9.15,6.72-14.17,9.24l-2.04-.57c-7.75,2.45-4.99-.57-.49-4.17l1.28-1.64c2.73-1.9,5.13-5.02,8.6-6.97-32.28-14.94-42.92-37.04-41.51-71.22.35-8.43,2.82-15.92,5.71-24.33l-18.27-5.14c-2.53-.71-2.29-4.89-2.6-7.23l-5.68-42.3-5.06-46.62C5,30.11-.52,23.72.04,16.45.62,8.75,7.99,3.47,15.29,5.67c7.26,2.19,11.17,9.86,7.84,17.27,9.76,4.14,81.93,36.37,81.99,40.15l.22,14.01c23.98-8.17,51.41-9.26,75.8-1.82l.32-13.13c.04-1.85,2.64-3.57,4.39-4.58,21.33-12.32,42.64-24.03,64.63-34.32Z"/>
      <path class="cls-84" d="M263.26,87.9c-1.16,9.03-1.14,18.49-3.61,27.86-1.18,4.49-14.32,6.9-19.19,10.27,4.32,5.57,4.21,11.7,5.8,17.09.49,8.49.28,3.97-4.17,11.1l-2.3-2.07c-1.9-12.28-5.28-24.71-12.69-34.89l.06-3.12c-.75-1.96-.79-5.49,1.81-5.88l2.31-.25c2.51,2.64,4.74,5.5,6.7,8.58,4.82-.45,9.49-2.17,14.03-5.15l10.24-83.35,2.13-.96c2.83-1.28,4.11.88,3.85,6.47-.65,9.69-2.21,19.31-4.7,28.86-1.96,9.06-2.05,17.54-.28,25.44Z"/>
      <path class="cls-120" d="M263.26,87.9l-2.93-2.96c-.81-10.57.39-21.12,3.2-31.53.93-3.44,1.11-6.78,2.36-10.35.11-.31,1.39-16.31-1.5-15.92-1.41-.86-2.98-.76-4.72.28l-2.32-1.15c-2.76.5-5.23-.77-6.87-2.99,3.56-1.67,6.48-4.77,10.71-6.02-2.99-7.61.87-15.18,7.83-16.85,7.57-1.81,14.5,2.76,15.32,10.27s-4.99,13.83-12.91,13.6l-8.16,63.63Z"/>
      <path class="cls-13" d="M57.35,45.96c14.35,5.64,27.03,12.79,40.97,19.42l-.24,14.51c-2.01,1.54-4.26,1.8-5.75,3.34l-1.83,3.17c-14.41,7.52-27.94,17.69-36.05,32.05l-3.13,1.67c-.84,1.7-3.11,2.68-3.86,4.46l-16.82-4.54c-3.25-24.09-6.58-47.42-8.55-70.92-.92-5.47-.39-11.3,3.86-4.53-.68-10.18,7.93-12.93,13.33-4.25,5.68,2.68,11.7,4.56,18.06,5.61Z"/>
      <path class="cls-13" d="M264.39,27.13l-10.54,85.76c-5.38,2.94-10.28,5.01-16.68,6.66-1.95-4.95-5.71-7.76-8.2-11.28-3.03-.83-5.65-2.9-7.84-6.2-11.81-9.18-17.72-13.78-17.72-13.78l-1.35-3.21c-3.54-3.72-5.89-6.41.12-9.15l.05-12.13c.69-3.03,3.38-4.31,8.08-3.85-.7-3.53.05-6.07,2.25-7.64l9.37-.16c2.17-2.69,7.86-9.41,10.97-10.87,5.58-2.62-.47,2.57-.46-1.24l24.92-13.78c1.97-1.09,4.52-1.4,7.07-3.19.78,1.61.21,2.78-.03,4.07Z"/>
      <path class="cls-1" d="M202.05,85.08c-3.09,1.4-7.94-.8-8.91-4.05l-4.94-3.03c.19-5.23-1.43-9.18.97-14.82,8.6-5.25,25.87-14.85,35.03-18.94,1.43.27,3.94-.85,2.06-1.26,1.13-1.23,4.67-2.11,6.17-2.94.97,1.8,1.77-1.33,4.14.77-3.04.78-3.86,2.97-5.61,4.63-7.16,6.79.67,2.06-5.96,5-.76.34-.59,2.7-1.2,3.36-3.34,1-7.43-.14-11.32.42-.61,2.7.07,5.08-.27,7.85l-7.86.17c-.57,5.23.63,10.51-.47,15.55-.12.55-2.29.53-2.79.81-.52.29-.88,1.08-.66,2.06.2.92,1.17,1.47,2.57,1.85-.14,1.05-.72,1.77-.95,2.58Z"/>
      <path class="cls-125" d="M92.33,83.24c.44,1.24,1.8,1.61,2.82,2.35-.85.68-1.3,1.08-1.48,1.83-.07.3-.07.81.54.74-13.81,6.1-25.72,18.12-34.15,29.88-.98,2.21-2.24,4.28-3.77,6.2l-.95-.04c-.26-1.14-.46-2.5-1.24-3.28s-1.85-.79-2.78-.78c8.14-16.56,23.94-28.45,41.01-36.89Z"/>
      <path class="cls-4" d="M202.05,85.08c10.15,6.27,20.05,13.47,26.92,23.19-.19,2.24.52,4.69-1.81,5.88-10.95-12.84-26-25.04-41.99-30.92,2.84.21,5.76-.34,7.97-2.2,3.11.94,6.11,2.32,8.91,4.05Z"/>
      <path class="cls-2" d="M57.35,45.96c-6.01.22-13.62-.24-18.97-3.81-2.51-1.67-2.14-6.68-5.77-6.82.02,2.37-2.66,2.29-3.85,3.38-1.49,1.38.14,4.36-.73,6.32-.69,1.57-2.14,1.7-3.03,1.46-1.72-.46-1.46-2.56-2.29-4.41-.29,1.88-.86,4.25-.63,7.03-1.51-6.23-1.43-12.75-2.03-20.44l37.28,17.28Z"/>
      <path class="cls-65" d="M10.23,9.6c5.15-1.32,8.98,2.31,9.81,6.3.93,4.46-1.88,8.51-6.14,9.53s-8.37-1.73-9.51-5.11c-1.6-4.75.71-9.4,5.83-10.72Z"/>
      <path class="cls-52" d="M99.8,79.22c-1.01-4.24-.75-8.51-.09-13.21.95,4.24.83,8.47.09,13.21Z"/>
      <path class="cls-13" d="M226.26,42.98c1.45-.3,2.91,1,.56,1.24-.8.72-1.25,1.05-1.87.82-.35-.13-.85-.17-.75-.79.56-.25,1.65-.81,2.06-1.26Z"/>
      <path class="cls-8" d="M268.38,4.84c4.51-2.37,9.07-.25,11.08,3.54s.6,8.86-3.49,10.93c-3.82,1.93-8.24.87-10.63-2.84s-1.65-9.16,3.05-11.63Z"/>
    </g>
    <path class="cls-45" d="M162.37,146.18l-1.45.05c-3.11,2.61-6.34,4-9.69,4.16-.88-2.1-2.24-2.9-4.08-2.39.04,5.13-.92,7.17-2.88,6.13-.36-1.92-.69-3.92-1-6-.28.87-.62.86-1,0-.33,2.44-.72,4.73-1.16,6.86-3.16,4.72-6.47.18-7.25-3.92-1.19-.92-2.53-1.27-4.01-1.06l-.24-1.21c-1.54.87-2.64,1.19-2.1-.81-1.78.48-2.54.17-2.28-.96-1.52-2-4.24-3.53-4.84-6.08l.66-1.51c1.15.31,2.15.45,3,.44,1.36-.6,3.02-.61,4.97-.03,1.4-1.53,2.85-2.67,4.36-3.42.33-.49.64-.51.94-.02,1.01-2.09.97-4.26-.06-6.35-.27.88-.61.88-1.03.03-2.95.75-5.36.5-7.22-.74-2.46,2.62-4.04,5.79-4.75,9.5l-2.4-.81c-4.41-6.4-1.66-14.48,2.55-20.12,3-2.93,6.26-5.58,9.79-7.95,14.92-7.59,33.89-.69,38.57,16.24,2.16,7.8-1.15,16.11-7.4,19.96Z"/>
    <path class="cls-121" d="M144.26,155.13c.78-.59,2.15-1,3-1,.37-2.66,1.21-2.57,2.07-.03,1.9-1.99,4.69-1.74,6.45.3-.12.51.34,1.1.35,1.61.61,1.37-1.77,3.11-3.08,2.23-5.8,3.01-11.07,2.75-16.92-.22-1.72-1.93-3.22-4.03-4.52-6.31-4.94.67-8.57-1.63-2-2.91,1.54.76,4.26-.09,5.42,1.44.91,1.2.2,3.07.8,4.43,1.88.55,3.61.16,5.28.32.52-2.08.91-4.37,1.16-6.86h1c.3,2.32.63,4.65,1,7Z"/>
    <path class="cls-75" d="M162.37,146.18c-8.59,5.3-5.31,2.5-6.59,8.22-2.08.82-4.41.5-6.45-.3-.93-1.49-1.66-3.52-2.19-6.1.72-.65,1.57-1.48,2.9-1.26.78.13,1.35,1.68,2.4,2.39,1.73-1.66,3.73-1.67,6.15-1.78.79-.03,1.43-1.79,2.18-1.88.55-.07,1.13.38,1.6.71Z"/>
    <path class="cls-122" d="M126.02,129.35c2.2,1.73,1.05,4.65-1.79,4.65-.66,1.83-.69,3.54-.08,5.15.86.17.79.41-.1.73-.83.82.41,1.43.09,1.8-.46.54-1.03,1.44-1.76,1.41-.35-1.58-.86-3.13-1.99-2.13-1.14-.55-.93-2.04-1.52-2.91,4.8-2.43.17-6.05,7.15-8.7Z"/>
    <path class="cls-114" d="M162.11,154.07c3.97-1.84,5.71,1.34,2.24,3.75-1.05.27-3.05,1-4,1.51-.36-.01-.72-.2-1.08-.2-.99-.89-2.32-.89-4,0-.54,0-1.14,1.09-1.55.87-.65-.34-.93-1.26-.67-1.76,1.1-.57,1.8-1.81,3.08-2.23,1.97-.64,4.06-1.17,5.98-1.93Z"/>
    <path class="cls-121" d="M127.51,148c.53,2.6-2.64,3.8-5.1,4.23-1.02-.66-2.94-.93-4.14-1.32,2.18-1.57,5.08-1.87,6.97-3.87.68.23,1.64.51,2.28.96Z"/>
    <path class="cls-11" d="M218.34,200.27c-.78-1.62-.91-3.51-.08-5.14v-1l-.06-5c1-.83,1.8,9.84,1.93,9.3-.16.7-.89,1.46-1.79,1.85Z"/>
    <path class="cls-27" d="M131.21,109.98c-.94,2.11-3.09,2.96-5.21,4.13-1.84,1.02-2.57,3.49-4.58,3.82,2.82-3.77,5.47-5.75,9.79-7.95Z"/>
    <path class="cls-2" d="M56.3,124.24c0-2.69,2.38-4.26,3.77-6.2.17,2.63-1.54,4.91-3.77,6.2Z"/>
    <path class="cls-127" d="M171.75,132.09c-.69-1.28-.96-2.73-.04-4.97.96.99.83,2.33.04,4.97Z"/>
    <path class="cls-12" d="M218.34,200.27c-.24.11-.57,0-.83.07.05-1.71-1.19-4.24.75-5.21,0,1.71,0,3.43.08,5.14Z"/>
    <path class="cls-13" d="M46.7,167.07c-.74-2.82-.75-5.59,0-9.04.96,2.53.91,5.07,0,9.04Z"/>
    <path class="cls-62" d="M160.43,129.06c2.07,1.34,1.99,3.64,2.95,4.98.68,1.69.45,3.42-.12,5.11-1.33,2.66-3.19,3.39-5.96,2.3-1.41-.56-2.35-2.59-2.95-4.32-.92-2.02-.98-4.99.06-6.94.5-.48.69-.79.91-.94,1.52-1,3.49-.87,5.12-.2Z"/>
    <path class="cls-10" d="M133.23,130.09c.66.33.67.68.03,1.04-.87,1.73-.67,3.58.12,5.3.05,2.04-1.59,4.38-3.16,5.09-2.41,1.1-4.56-.23-6.17-1.64.15-.15,0-.53.1-.73.91-1.65,1.01-3.5.08-5.15.7-1.45.75-3.31,1.79-4.65,2.54-.96,5.56-2.18,7.22.74Z"/>
    <path class="cls-13" d="M129.6,148.8c-.26,1.16-1.51,1.06-2.42,1.96,1.9.89,3.12-.17,5,.06,1.09,2.84,3.29,4.64,3.94,7.2l-3.61-1.83c-1.75-2.67-3.87-2.53-6.24-2.16-1.3-.65-2.62-1-3.87-1.8-.05-2.72,3.08-2.99,5.1-4.23.6.41,1.45.49,2.1.81Z"/>
    <path class="cls-92" d="M147.26,154.13c-.72.91-1.88,1.16-3,1v-1c3.89.75.51-3.98,2.88-6.13,1.68.3,1.65,5.36.12,6.13Z"/>
    <path class="cls-72" d="M134.32,136.42c-.81-1.61-.84-4.69-.06-6.35,2.16,1.37,2.05,5.17.06,6.35Z"/>
    <path class="cls-80" d="M154.36,137.13c-.52-.54-.88-.82-1.09-1-.79-1.57-.85-3.43,0-5,.63-.45.94-.74,1.15-.94-.22,2.31-.2,4.63-.06,6.94Z"/>
    <path class="cls-79" d="M141.1,154.99c.46-2.27-.83-5.29,1.16-6.86l.02,6.1c0,.93-.67.81-1.18.76Z"/>
    <path class="cls-79" d="M144.26,154.13c.08.32-.04.67,0,1-2.05-1.6-.65-4.68-1-7,2.16,1.03.54,4.06,1,6Z"/>
    <path class="cls-89" d="M134.32,136.42c-.55.33-.33.47-.94.02-.81-1.63-1.04-3.65-.12-5.3,0-.34-.05-.7-.03-1.04l1.03-.03.06,6.35Z"/>
    <path class="cls-94" d="M160.43,129.06l-5.12.2c.87-1.85,3.87-1.63,5.12-.2Z"/>
    <path class="cls-126" d="M153.26,136.13c-1.83-1.54-1.44-3.97,0-5v5Z"/>
    <path class="cls-75" d="M152.6,139.59c.36-.74.96.36,1.24.6.87.74.45,1.85-.13,1.97-1.34.27-2.05-.6-1.11-2.56Z"/>
    <path class="cls-94" d="M163.27,139.15l.12-5.11c1.69,2.35.73,3.4-.12,5.11Z"/>
    <path class="cls-121" d="M132.51,156.18c-2.34,0-4.22-1.16-6.24-2.16-.18-2.06,2.55-1.84,4.19-1.61,1.31.19,3.75,2.47,2.05,3.77Z"/>
    <path class="cls-81" d="M159.26,159.13h-4c1.3-1.03,2.75-2,4.99-2l-.99,2Z"/>
    <path class="cls-42" d="M149.34,154.1c-.6-.23-1.45.19-2.07.03l-.12-6.13c.51.2,1.08.04,2.08.24l.11,5.86Z"/>
    <path class="cls-96" d="M124.16,139.15c-2.17-.96-.64-3.66.08-5.15.98,1.57.85,3.59-.08,5.15Z"/>
    <path class="cls-78" d="M133.38,136.43c-1.58-1.18-1.93-4.25-.12-5.3l.12,5.3Z"/>
    <path class="cls-43" d="M124.16,139.15c.23-1.71.09-3.44.08-5.15,1.87.9,1.57,4.11-.08,5.15Z"/>
  </g>
  <g>
    <path class="cls-12" d="M215.43,252.94c-.71-2.94.6-3.25,3.92-.92,1.83-1.85,5.27-3.62,7.85-2.86,1.09-2.58,1.27-3.21-.05-5.03-1.44.26-3.09-.31-4.96-1.69-2.08.53-4.03.76-5.85.68l-.88,3.68c.48,2.64-.25,3.66-2.2,3.09-1.62-.91-3.67-1.08-5.97-.48,7.57,11.72-.55,14.71,5.09,21.54,2.58,3.13,1.91,6.7.85,10.12-2.48,7.98-9.62,11.42-18.27,9.73-1.6,2.54-2,5.16-2.64,8.19,3.88,2.41,8.71,4.42,13.17,2.3,6.23-2.95,11.36-8.4,14.55-14.3l-4.48-6.81c-2.75-4.19,26.72-5.53,29.32-6.02.54,1.73.87,21.36-.61,18.96-1.92-1.3-3.09-3.56-3.51-6.8-1.84-.73-2.52-2.39-2.03-4.97l-12.32,1.55c.3,3.44.44,5.44-1.16,8.76-1.41,2.92-5.67,8.88-8.9,8.57.45,4.43-8.32,6.97-12.32,7.99-6.78-.15-7.48.31-2.1,1.37,2.8-.17,4.59.59,5.37,2.28.74,1.96-.29,3.3-3.09,4.01-2.07-.29-4.28.33-7.07-.81,5.9,7.15,5.88,17.01-1.05,22.74-6.39,5.27-13.89,5.37-21.83,5.46-12.22.15-26.4-1.69-31.77-14.69-1.95,6.37-5.97,8.66-10.7,11.1-6.68,3.44-12.97,3.63-20.61,3.56-8.27-.07-17.36-.01-23.52-6.57-7.19-7.65-4.16-20.31,5.11-24.97,1.18-7.41,1.05-14.3-2.24-20.97-7.96,2-15.1-1.44-18.31-8.58-2.22-4.94-.96-10.4,2.95-14.35-1.48-7.25-2.14-14.02,3.1-19.26-1.84-.81-2.9-.46-3.87-.72-3.85-1.79-.4-3.2,2.77-3.13,5.15.22,10.19.03,15.12-.57,1.76-.97,5.7-.72,8.17-.06,3.15-1.14,4.13,2.78,1.3,4.28,1.43,2.16,2.27,4.23-1.01,4.07l-3.47-6.29c-3.56.31-7.23.65-11,1,.87.32.86.69,0,1.1-.02,2.74-1.06,2.78-1.96.16-2.57.74-3,1.11-3,3.73,1.05,1.87,1.05,4.3,0,7.28.03,4.79,1.84,9.12,5.43,12.99-.49,4.76-4.53,4.74-7.99,2.45-1.95,9.52,13.62,15.48,9.22.71l2.26-1.42,1.03-5c.31-.87.67-.86,1.08,0,.81-.12,1.45.54,1.92,2,.46-.56.8-.23,1,1,.76.29.75.62,0,1,.68.27.67.6.02.98-.89,3.29-.89,6.72,0,10.02.85.25.83.59,0,1-.83,1.98-.76,2.98.2,3,3.44.8,5.53,9.02,3.82,11.87l-.11,3.27c1.04,1.04,1.4,2.65,1.08,4.81,1.6,2.57,1.79,4.73.57,6.5-23.72,14.91-.64,24.67,16.3,21.7l1.98,1.82c1.77.72,2.48.67,2.14-.17l.82-2.41c8.03-1.38,12.41-5.09,13.12-11.13l2.06-1.26c.2-2.38.19-4.72-.04-6.99-2.47-.75-1.51-3.84-.64-5.94,5.05-12.24,10.86-4.38,12.55,4.48.53,2.77,1.52,8.81-1.65,9.46-.94-1.54-.98-.49-.12,3.15l2.6.33c6.59,9.29,20.32,9.35,30.63,8.33,15.82-1.56,18.99-12.74,4.24-20.65-2.45-2.03-.29-9.04,2.37-10.16.31-1.72.03-2.49-.89-3.95-2.64-1.61-.43-9.12,2.19-10.05-.04-1.2.22-2.2.76-3l1.03-.43c-.31-5.24-.66-10.43-1.03-15.57-.7-.21-.66-.55,0-1l1-1c1.82-5.24,3.27-2.12,3.85,2,.9.27.87.61-.03,1-.69,3.64-.65,7.41.26,11,6.2.81,13.53-1.17,11.91-8.84-5.43,4-11.08-3.17-4.7-5.17-.49-1.3.35-2.53,1.82-2.24-1.3-1.59-1.34-3.96-.12-7.14-.52-2.55-.14-4.42,1.15-5.62-1.58-.96-2.27-2-2.07-3.12-2.71,1.37-3.15-.59-3.09-2.86-4.05-.96-7.84-.85-11.35.32-1.93-.7-3.45-.88-4.77.44-1.03,1.04-4,12.25-3.76,14.2,1.8,1.09,1.17,2.46-.94,1.87-1.45,2.15-7.16,1.9-8.03-.68-3.32,1.21-4.1-4.42-.3-3.99l7.32-19.54c4.27-.99,12.13-2.18,14.77,1.4,3.9-.92,8.23-.95,12.1.07l1.02-1.92c-3.08-3.18-6.43-5.67-10.04-7.46l-15.17,3.18-1.8-1.67c-7.2-.13-2.21-3.22,2.03-4.19-1.24-.33-2.25-.74-3.03-1.24l1.3-2.46c11.96-1.45,21.1-6.24,27.4-14.38l2.49-4.97c.69-3.52,2.23-5.85,4.59-7,2.54.41,3.79,2.55,3.29,5.03,1.42,1.1,1.57,1.96.72,3.35,1.75-2.05,3.51-2.88,5.27-2.48-1.3-1.77-.18-3.62,3.34-5.55,10.36-12.2,15.86-28.39,14.71-44.4l1.71-2.85c-.04-2.64.73-4.69,2.31-6.15-.51-2.84.11-4.49,1.86-4.94,1.44,4.92,2.09,9.18,2.21,15.07.74,35.24-17.08,56.48-47.25,70.6l13,10.66c4.29-3.68,8.55-3.93,12.94-1.51s5.08,7.44,3.6,12.18c-1.26,4.05-5.73,6.1-10.41,6.05-2.73-.03-3.99-1.66-4.93-3.24ZM209.71,279.1c.8-2.65,1.12-4.03-.21-5.1-.69,2.23-.4,3.77.21,5.1ZM96.67,310.1c.81-2.96,1.26-4.67-.03-6.03-.67,2.38-.65,4.23.03,6.03ZM142.67,322.11c.93-2.95,1.02-4.62,0-6.06-.72,2.4-.67,4.25,0,6.06ZM180.29,339.62c-5.19-.8-9.69-.9-14.13,0,5.1.85,9.64.82,14.13,0Z"/>
    <path class="cls-106" d="M244.26,293.13c-.41,3.75,1.11,7.89-1.72,11.3l-6.33-2.57c-8.46,7.38-21.23,15.53-32.01,14.03-.59-2.14,1.65-2.87,3.09-4.01,1.25-2.01,3.56-3.28,6.91-3.83,3.82-2.1,7.14-3.35,11.03-4.17.28-2.3,1.95-4.18,5.01-5.64,1.93-2.9,4.44-4.25,7.55-4.07-.26-4.14.73-6.76,2.97-7.85,2.72,1.44,3.83,3.85,3.51,6.8Z"/>
    <path class="cls-110" d="M60.04,238.57c1.62.96,1.04,1.68-.55,2.5-1.28.45-2.72.83-4.32,1.13,1.54,2.4-.6,3.51-2.85,2.81-.27.88-.62.88-1.04.03-.77,1.68-.86,3.43,0,5.09-.07-1.95.71-1.9,1.18.07,2.35-1.04,3.76.26,2.82,2.81,2.3,1.42,2.72,1.32,5.01.01-.61-2.89,1.11-4.3,3.91-3.73.88-.31.73-2.08-.07-4.12-2.14,2.38-4.1-.53-3.61-3.02-1.44-.32-1.39-.65.17-1-.12-3.31,7-.9,5.18,2.55,4.11,1.88,4.58,3.35,1.39,4.42.05,5.65-5.15,9.7-10.38,8.94-5.88-.85-9.68-5.42-8.54-11.36,1-5.24,6.39-9.01,11.72-7.14Z"/>
    <path class="cls-15" d="M72.07,233.32c.33,2.23-1.94,2.84-4.12,4.92.87,1.58,2.35.16,3.33.89,1.88,2.94-1.02,3.43-3.67,2.92l-.16,1.31c8.4.09,16.68.35,24.83.77.12.45-.34.92-1.05.93l-14.03.18c-1.89.02-2.84,1.14-2.82,2.59-2.36.32-4.75.36-7.13.3,0-.55-.7-1.28.59-2.24-3.79-2.05-5.41-7.06-7.16-4.74-.02.85-.64.64-1.18-.07.09-.85.21-1.71.55-2.5.8.28,2.55.97,3.6.03,2.68-2.4,5.95-3.56,8.42-5.28Z"/>
    <path class="cls-32" d="M219.35,252.02c-1.19-.34-2.96.27-3.92.92-.53-.89-3-1.22-2.17-3.05l3.08-6.77c1.94,1.53,2.82,6.35,3.01,8.91Z"/>
    <path class="cls-111" d="M142.26,165.39c1.86-.55,3.84-.64,5.93-.25.12-2.67,1.04-2.63,1.99-.15,1.76-.09,3.14-.76,4.12-2-.02-2.26,2-3.48,6.04-3.66-.27-3.02,2.32-4.14,4-1.51.22-3.61,3.24-3.92,6-2.54-.49-3.02,5.45-4.66,6.92-2.08,1.26-1.06,3.69-.9,5,0,2.69-2.44,9.16,1.78,12.04,3.78,4.5,2.39,6.25,5.02,5.23,7.9.41,1.42-.55,4.52-2.21,4.26.37,2.7-14.67,11.04-15.69,11.05-.87,0-1.6-.48-2.21-1.05-.61,2.36-1.02,4.68-1.24,6.98l1.97,1.38c-.32,9.56,8.77,18.1,15.85,8.57l2.46-.94c-.44-.32-.41-.66.03-1.01.04-2.54-.33-5.16-1.12-7.85,1.39-.58,1.75-1.96,1.09-4.15l-.03-1.02c-2.52-2.62-1.5-5.29,1.88-6.31-1.95-.85-2.83-3.06-.96-4.62-1.9-.18-.28-3.61,1.11-4.24,1.18-1.22,1.68-1.2,2.86-.5,2.89,1.7,11.61,14.77,11.57,18.01,0,.76-1.01,1.33-1.76,1.77,2.57.12,2.9,2.69.58,3.47.28,3.56.1,7.04-.52,10.45,2.54.52,2.29,1.31-.15,2-7.11,23.62-15.65,22.85-35.78,28.8,0,1.11-1.1.71-2,.18l-.39,1.32c-1.19-1.03-2.73-1.21-4.61-.52-.44.99-1.12.7-2,.17-2.24.96-7.25.84-10,.05-7.87.75-16.35.5-24,0-1.58.64-4.32.71-6,0-2.06-.4-4.06-.73-6-1-.6-.06-1.42-.17-2,0l-6-.81c-10.64-2.23-22.14-4.03-31.88-10.15-6.13-3.85-9.03-12.44-10.12-19.03-1.12-3.17-.56-8.23.08-12-2.05-1.85-1.21-8.44,2.03-8.89-2.1-2.67,1.65-6.77,4.75-6.16,1.98-.96,3.08-2.6,3.3-4.89-1.09-3.17,2.83-6.58,5.8-4.99,3.38-1.47,6.71-3.5,9.99-6.1-1.09-.91-.53-1.27.88-1.02.81-3.77,6.85-4.96,10.49-4.79l32.26,11.82.41,2.28Z"/>
    <path class="cls-6" d="M129.3,236.96c.15-.92.49-.89.99-.04.71-.89,1.39-.8,1.97.2,9.21.79,18.96.91,28,0,.3-1.71,1.63-1.7,4,.03.21-1.63,10.86-3.5,11.43-3.27.41,1.53,1.28,1.67,2.56,1.48l16.96-3.48c5.62.72,9.67,8.1,14.74,10.8-2.42,2.08-3.98.59-5.7.56-3.62-1.07-8.44-.98-12.1-.07-4.4.22-8.81-.78-13.68.04l-6.18,16.97c-.38,1.05-1.57,1.16-2.22,1.13l-4.82-.58c-7.44-4.63-15.18-8.64-23.23-12.05l-30.58,14.77-1.93-1.29c-.44.29-.89.52-1.35.56-3.22.27-6.2-12.46-6.43-14.37-.33-1.48-.3-3.09-1.3-4.28-10.88-.39-21.8-.62-32.77-.7l-.06-1.33c1.25-.79,2.95-1.53,3.67-2.92.84-1.61,2.58-1.69,4.33-2.7,4.2-2.41,7.47-5.88,11.84-7.86,13.84,4.68,27.67,8.49,41.86,8.4Z"/>
    <path class="cls-17" d="M175.26,230.11c1.77.26,3.45.61,5.04,1.06-.18,1.92-2.92,2.01-4.14,3.59.58.76,1.57.22,2.1.6-4.4.9-9.28,2.51-14,1.79l-6.68-1.66c-9.14,1.02-18.24,1.49-27.29,1.43-.31-.07-.67.03-.99.04-3.82-5.32-9.99.67-11.3-4.75,2.04-.2,4.13-.56,6.26-1.08.85-1.04,2.73-.64,4,0,1.92.29,4.13-.5,6,0,.87.28.86.62,0,1l-.27.4,26.05.07-1.78-.46c-.87-.28-.86-.62,0-1l10-.05c2.39.85,3.06.8,2-.17,1.46-1.09,3.26-.83,5-.8Z"/>
    <path class="cls-118" d="M72.26,200.13c-1.69,1.79-1.39,4.56.03,6.71-1.02.55-1.61.21-2.11.25-.64-3.46,1.12-7.04,1.08-10.83-.04-3.51-.34-5.71,1.09-8.14l-.08,12Z"/>
    <path class="cls-70" d="M122.26,231.13c.66-.76,1.36-.74,2,0-1.5,1.91-4.09,1.65-6.26,1.08-.23-2.44,3.12-.59,4.26-1.08Z"/>
    <path class="cls-31" d="M120.26,230.13c-2.2.65-4.08-.41-6-.81,1.98,0,4.74-1.12,6,.81Z"/>
    <path class="cls-31" d="M128.26,231.13c-1.3-.2-2.68.09-4,0-.62-.04-1.41-.16-2,0v-1c1.99.19,4.73-.87,6,1Z"/>
    <path class="cls-111" d="M154.21,258.08c1.25,1.11,2.67,1.76,4.27,1.94,2.29-1.46,6.78,1.33,6.79,3.97.41.89.49,1.94.25,3.14.85.34.82.67-.06,1-1.18,1.82-1.02,4.1-.11,6,2.15.47,4.87,3.73,6.04,5.78,2.34-.26,4.65-.75,6.94-1.49l1.07.91c3.01-.54,4.46-3.01,4.34-7.43-1.18-4.49.98-5.07,4.4-3.86.77.58.85,1.64-.02,2.15.45,2.15.83,4.46,1.15,6.93.68.29.66.63,0,1-.49,4.26-.74,8.59-.76,13,.05,3.5-1.41,6.67-2.19,10.05.99,1.04,1.54,2.63.89,3.95.17,2.47-.6,5.3-2.23,7.87,5.46,3.7,10.71,5.18,11.08,12.77.56,11.57-13.26,12.38-21.77,12.46-11.43.11-21.17-1.36-26.92-10.95-.64-1.48-.6-2.53.12-3.15.23-6.09.17-13.88-4.71-18.6-4.59,2.56-4.65,7-5.55,10.6.32,2.16.33,4.5.04,6.99-.25,10.52-5.09,10.87-15.99,14.81-.29.81-1,.86-2.14.17-8.29.89-29.01,1.55-30.09-10.48-.98-10.83,8.49-11.13,11.19-15.44-2.35-2.77-2.73-6.21-1.03-8.91-.18-.97-.14-2.06.11-3.27-1.91-3.75-2.51-7.9-3.82-11.87-.95-.51-1.02-1.51-.2-3-.08-.32,0-.67,0-1-.9-3.25-.9-6.76,0-10.02l-.02-.98c.3-.87.66-.86,1.06,0,1.9.63,3.16,3.39,3.48,5.18,1.24-.8,2.66.3,2.3,1.86,2.35.92,4.78.47,7.16-.05.18-1.74,2.26-4.19,4.1-3.97-.22-2.67-.16-5.34.18-8.02-.83-.23-1.29-2.72-1.1-3.31.51-1.58,28-14.99,29.66-14.87,2.95.2,12.89,4.48,12.09,8.13Z"/>
    <path class="cls-88" d="M86.26,248.23c3.04-.99,7.89-.88,11.12-.1,1.83.25,3.14,2.62,1.73,4.03.64,1.89-.8,4.06-2.79,4.11-.43,3.72-1.74,5.67-3.92,5.85.39,2.24.12,5.27-1.15,7l-1.03,5c-1.01,3.05,1.08,7.56-.55,10.83-1.95,2.91-8.5.63-10.81-1.8-2.44-2.57-4-8.38-.52-10.72,1.85.09,4.63,4.21,6.77.35-6.36-5.69-7.35-13.75-3.83-20.67-1.04-1.85.98-4.12,3-3.73.56.27,1.38-.15,1.96-.16Z"/>
    <path class="cls-66" d="M199.24,249.15c1.72-.57,2.13,2.33,3.09,2.86l2.07,3.12c1.78,4.03.64,8.76-1.03,12.76-1.45.26-2.05,1.01-1.82,2.24-.23.82-.67,1.69-.79,2.69-.08.68.45,1.85,1.68,1.82,1.86-.06,2.85-1.81,4.65-2.47,2.42,4.24,1.8,9.33-2.21,12.05-2.93,1.99-8.52,3.64-10.55-.08-.92-3.58-.96-7.37-.26-11,0-.33.09-.68.03-1-1.17-2.07-2.03-4.33-2.57-6.79,1.23-.45,1.54-1.52.93-3.21-1.05-.34-.8-1.05-.38-2-2.76-.18-5.05-6.77-3.8-9.01l-1.6-1.85c4.08-.97,8.27-1.01,12.55-.13Z"/>
    <path class="cls-1" d="M240.75,286.33l-1.35,11.08c-1.61-.49-4.39-2.01-5.26-.62-2.45,3.89-6.01,4.98-8.91,7.09-1.68.2-3.26.96-4.73,2.27-2.65-1.49-4.03-3.46-4.15-5.92,3.53-5.76,12.67-11.97,5.93-18.47,5.86-1.47,11.56-2.03,18.04-2.41.85,2.52.18,4.75.43,6.98Z"/>
    <path class="cls-14" d="M170.08,261.31c-1.07,1.17-.27,2.71.3,3.99,3.02,1.4.27,4.89-2.45,4.04-.13.88-.38.84-.74-.03-.82,1.05-1.4.66-1.74-1.17l.06-1c-1.04-.75-.71-2.05-.25-3.14-2.62-.68-4.79-2.17-6.79-3.97-1.51.1-2.93-.55-4.27-1.94-3.41-2.63-7.56-4.39-12.1-6.25l-25.55,12.39c-1.91.93-3.31,1.93-3,3.91.82,2.75-.07,3.21-1.84.94-.88-.05-.94-.39-.24-1-2.1-2.16-2.75-4.13-1.96-5.91l32.71-15.8c10,4.42,19.03,9.54,27.86,14.95Z"/>
    <path class="cls-16" d="M199.24,249.15c-3.83,1.27-11.14-2.27-10.95,1.98l-1.77,1.14s1.16,4.5,3.49,13.49c-.84.31-1.47,1.07-1.89,2.28-.57,1.4-1.83,1.7-3.7,1.3-.21,3.9-.79,7.89-1.47,11.58-1.04.78-3.17-.57-3.56-1.59-.89-.17-.87-.47-.03-.89.3-1.58,1.36-3.36,3.1-3.39l-.83-.78.32-8.23c-1.24,1.16-3.01-.28-2.59-1.93l-2.55-2.46,5.37-13.88c2.81.66,19.33-.34,17.06,1.37Z"/>
    <path class="cls-61" d="M225.23,303.88c-5.44,3.95-11.54,7.46-17.94,8s-12.98-1.71-15.64-7.18c6.99,2.37,13,2.68,19.25-1.14l5.45-3.33c1.91,1.24,4.15,2.41,4.41,4.86,1.64-1.17,3.69-2.81,4.47-1.21Z"/>
    <path class="cls-98" d="M178.42,265.98c1.77-.73,2.84.35,1.78,2,.8.33.77.72-.03,1.15.92,1.54.87,3.42.09,5,.49.42.1.75-1.17,1.01,1.63,1.43,1.32,2.16-.86,2.02-.13.89-.42.89-.87.06-1.96.49-4.5,1.06-6.11-.28-4.21,1.12-5.56-4.33-3.32-7.6.31-1.51,2.25-2.43,2.45-4.04,2.71-.24,5.47-.32,8.03.68Z"/>
    <path class="cls-41" d="M227.15,244.13c2.06.87.87,3.37.05,5.03-2.15,2.24-4.76,3.74-7.85,2.86-3.29-1.96-3.76-5.32-3.01-8.91.87-1.92,3.8-2.98,6.18-2.64,2.11.31,3.62,1.83,4.63,3.65Z"/>
    <path class="cls-35" d="M188.29,251.12c2.24,2.44,3.06,5.83,3.8,9.01-.58,2.27-.46,2.94.38,2,1.79,2.97,1.05,6.65,1.64,10-.83-.53-.4-2.49-1.34-2.72-.81-.19-1.71.85-2.51.72h-1c-.11,1.73-.67,1.8-1.15.07-.16-.67.01-1.46.02-2.15.03-10.82-8.96-22.4.17-16.92Z"/>
    <path class="cls-115" d="M101.74,248.35c3.54,2.04,3.51,10.1,7.78,13.81,1.53,1.33,3.14,4.25,1.96,5.91-2.42,1.33-3.15.92-3.22-1.85-1.59.5-3.35.42-3.2-1.4-2.4.67-2.66.41-1.91-2.02-3.77-.72-3.8-5.23-3.35-8.53-1.15.92-1.38.22-.69-2.11-.55-1.36-1.08-2.72-1.73-4.03-.95-.15-.97-.49-.12-1-.9-.24-.88-.58,0-1,2.26,0,2.46,3.26,4.44,5.04.99-.72-.47-1.86.04-2.82Z"/>
    <path class="cls-112" d="M99.81,254.28c.73,4.44-.17,9.31-3.59,12.52-.08.85-.36.84-.84.06-.54,1.38-.91,2.81-1.12,4.28-1.09-.07-1.92-.9-1.92-2-.04-2.15-.02-4.49.07-7,2.98-9.03,1.23-7.16,5.42-8.15.73-.17,1.52-.87,1.29-1.81.28.69.76,1.31.69,2.11Z"/>
    <path class="cls-93" d="M218.26,194.13c.87.28.86.62,0,1l-.75,5.21c-.03,1.17.29,2.63-.18,3.66l-.99,2.16c-1.81-1.08-3.02-2.93-3.29-5.03-.07-.51,0-1.52.15-2,.32-4.16.71-8.25,1.16-12.29,2.34.91,3.65,3.34,3.91,7.29ZM214.83,203.17c2.36-4.39,1.57-8.46.86-12.12-.04,4.42-1.74,8.2-.86,12.12Z"/>
    <path class="cls-115" d="M100.44,244.07l-8.17.06-24.46.05c-1.9.37-2.36-2.1-.2-2.14.49.6,1.4,1.1,2.62,1.1l28.08-.06c1.15,0,1.7.48,2.13.98Z"/>
    <path class="cls-35" d="M189.26,288.13c-.97-2.78-.76-7,0-10v-1c-.62-1.53-1.02-3.75,0-5,2.31,0-.1,9.61,1.61,14.38.37,1.04,1.62,2.04,1.34,3.08-.14.52-.99,1.19-1.74,1.6-.33-1.6-.48-2.4-1.21-3.06Z"/>
    <path class="cls-85" d="M180.29,339.62c-4.49.83-9.04.86-14.13,0,4.44-.91,8.94-.81,14.13,0Z"/>
    <path class="cls-16" d="M189.26,288.13c0,1.08-.47,2.15-.76,3-.13-.5-.97-14.71.76-13v10Z"/>
    <path class="cls-15" d="M84.3,248.39c-.14,1.76-2.32,2.39-3,3.73-.83-.25-1.33-.95-1.39-1.56-.17-1.52,2.62-5.01,3.2-3.81.27.56.61,1.24,1.19,1.64Z"/>
    <path class="cls-47" d="M204.26,243.24c-4.02-.07-8.07-.27-12.1-.07-2.6-1.4,14.72-1.7,12.1.07Z"/>
    <path class="cls-30" d="M194.34,284.13c-1.71-3.13-1.75-7.71-.26-11l.26,11Z"/>
    <path class="cls-15" d="M97.26,246.13c.03.33-.06.67,0,1-3.12.86-7.84.91-11,0-.08-.74.9-1.03,1.94-1.03l9.06.03Z"/>
    <path class="cls-6" d="M97.26,247.13c.06.3-.02.73.12,1l-11.12.1v-1.1h11Z"/>
    <path class="cls-63" d="M92.34,269.13h-1.08c-.27-2.49.38-4.68,1.15-7,1.77,1.83.88,4.86-.07,7Z"/>
    <path class="cls-100" d="M137.26,323.12c-1.45-2.49-.62-4.65-.04-6.99,3.02,1.63.09,5.05.04,6.99Z"/>
    <path class="cls-112" d="M95.29,284.13c-1.77-2.62-1.77-7.39,0-10.02v10.02Z"/>
    <path class="cls-59" d="M97.41,267.13c2.14.29,1.04,6.07-1.08,6h-1.06v-1c-.66-1.74-.97-3.74.12-5.28.27.02.58-.13.84-.06.35-1.92,1.12-1.7,1.19.33Z"/>
    <path class="cls-77" d="M181.95,266.04c-.01,1.52-.08,2.74-1.74,1.94-.65-.62-1.25-1.28-1.78-2,.51-.5.76-1.19.94-1.87.73.71,2.24.74,2.59,1.93Z"/>
    <path class="cls-32" d="M227.2,249.16l-.05-5.03c1.22.16,2.81.37,2.09,2.37-.37,1.02-1.23,1.82-2.04,2.66Z"/>
    <path class="cls-108" d="M147.48,324.13l-.12,3.15c-1.01-1.68-1.6-3.8-1.73-6.46,2.72.55,1.75,2.23,1.85,3.31Z"/>
    <path class="cls-16" d="M189.26,271.13c-.03.33,0,.67,0,1v5c-2-1.58-.62-4.64-1.15-6.93l1.15-.07v1Z"/>
    <path class="cls-34" d="M95.38,266.85c-.1,1.76-.12,3.52-.12,5.28l-1-1c.58-1.1-1.43-4.56,1.12-4.28Z"/>
    <path class="cls-101" d="M96.67,310.1c-.68-1.81-.7-3.66-.03-6.03,1.29,1.36.84,3.07.03,6.03Z"/>
    <path class="cls-5" d="M95.49,288.13c-.49.69.61,1.66-.72,3.11-.81-1.81-1.23-4.84.51-6.11.23.95-.1,2.08.2,3Z"/>
    <path class="cls-54" d="M99.19,303.27c-.95.23-.89-1.08-.93-1.66-.05-.73.17-1.6,1.04-1.61.29.57,1.03.84.99,1.63-.04.84-.76,1.09-1.1,1.64Z"/>
    <path class="cls-56" d="M187.2,305.13c-.53-1.16-1.19-2.62-.89-3.95.91.18,1.56.82,1.9,1.64.42,1.03-.49,1.74-1.01,2.31Z"/>
    <path class="cls-112" d="M90.23,274.13c.53-1.59-1.09-4.35,1.03-5,.18,1.62.54,4.13-1.03,5Z"/>
    <path class="cls-28" d="M209.71,279.1c-.61-1.33-.9-2.87-.21-5.1,1.33,1.07,1.01,2.45.21,5.1Z"/>
    <path class="cls-33" d="M204.4,255.13l-2.57-1.06c-1.01-.42.2-1.26.5-2.06,1.42.79,1.47,1.76,2.07,3.12Z"/>
    <path class="cls-3" d="M190.26,270.13c-.3.37-.63.7-1,1,.03-.32-.11-.7,0-1,.38-1.06-.8-2.28.39-4.08,1.25,1.19.38,2.75.61,4.08Z"/>
    <path class="cls-33" d="M203.37,267.89c-.39.93-.59,2.12-1.82,2.24-.04-.47-1.19-.97-1.18-1.56,0-.73.69-1.32,1.38-1.41.49-.06,1.11.46,1.62.73Z"/>
    <path class="cls-21" d="M121.26,337.93c.65.39,1.54-.51,3.05.68-1.49.98-4.08.94-5.19-.51.67-.07,1.51.06,2.14-.17Z"/>
    <path class="cls-76" d="M177.26,229.93c.82.15,3.16-.16,3.03,1.24-1.67-.18-4.09.7-5.04-1.06.6.01,1.43-.01,2-.18Z"/>
    <path class="cls-86" d="M60.5,242.15c1.67.14,2.21,2.43,3.61,3.02.63,1.22,1.15,3.1.07,4.12-.95,1.61-2.51,2.64-3.91,3.73-1.6,1.58-3.42,1.57-5.01-.01-.81-.96-2.47-1.36-2.82-2.81.47-1.7.7-3.54-.13-5.19.4-1.48,1.85-1.94,2.85-2.81,1.72.83,3.59.55,5.34-.06Z"/>
    <path class="cls-53" d="M60.27,253.01c-.91.7-.76,2.37-2.51,2.27-1.65-.1-1.68-1.3-2.5-2.28,1.67.15,3.34.16,5.01.01Z"/>
    <path class="cls-116" d="M59.49,241.08l1.18.07c.63.49.21.57-.17,1-1.7.64-3.66.92-5.34.06,1.24-1.08,2.59-1.24,4.32-1.13Z"/>
    <path class="cls-25" d="M64.18,249.28l-.07-4.12c.98.41,1.26,1.88,1.25,3.18,0,.62.11,2.17-1.18.93Z"/>
    <path class="cls-69" d="M52.44,250.2l-1.18-.07c-.88-1.56-.78-3.51,0-5.09l1.04-.03c.87,1.59.65,3.51.13,5.19Z"/>
    <path class="cls-95" d="M51.26,250.13c-1.71-.94-1.56-4.04,0-5.09v5.09Z"/>
    <path class="cls-128" d="M217.21,185.05c0,3.06-3.06,2.48-4.07.16-.02-4.59-9.06-17.91-12.67-19.28-1.39,1.14-1.48.63-.93-1.03-3.49-5.85-11.13-9.08-17.27-11.69-1.37-.87-3.65-1.05-5,0l-6.92,2.08c-3.27.97-4.65.11-3.91-3.15,4.19-.73,8.83-5.26,13.93-4.2,16.73,3.49,35.07,20.8,36.84,37.1Z"/>
    <path class="cls-123" d="M118.26,150.91c3.18-1.05,4.56-.61,4.14,1.32,1.96-2.17,3.65-1.05,3.87,1.8,2.11-1.15,5.3-.09,6.24,2.16,1.1-.96,2.3-.35,3.61,1.83,2.02-.98,4.54-.88,7.58.3l3.79-.19c2.24-1.09,4.09-1.05,5.55.11.7.3,1.43.6,2.22.89,2.04-1.09,3.37-1.09,4,0,.52-.79.88-.72,1.08.2-1.8.96-4.22,2.4-6.04,3.66-.61,1.61-2.57,1.97-4.12,2l-1.99.15-5.93.25-32.21-11.92c-3.71-1.37-7.65,2.12-10.95,2.61-6.12,2-8.08,1.43-5.88-1.73,5.17-2.38,10.24-6.55,17.08-5.86,2.79.28,5.57,1.64,7.96,2.41Z"/>
    <path class="cls-57" d="M93.22,154.35c.57,3.34,5.44,0,5.88,1.73-.33.08-.66.79-.88,1.02l-7.54,5.6-2.46.49c-2.15,1.56-3.91,3.11-5.8,4.99-.21,2.35-.73,4.3-3.3,4.89-1.25,2.04-3.79,3.84-4.75,6.16-2.94-.3-.7-2.94-3.07-3.76,4.85-9.25,12.54-16.82,21.91-21.13Z"/>
    <path class="cls-12" d="M214.83,203.17c-.87-3.92.83-7.71.86-12.12.7,3.67,1.5,7.74-.86,12.12Z"/>
    <path class="cls-12" d="M217.21,185.05c.12,1.1.74,3.05,1,4.08.78,1.95.8,3.62.06,5-1.18-2.07-1.81-4.29-3.89-6.11-.72,4.48,1.11,8.39-1.18,11.11l-.06-13.92,4.07-.16Z"/>
    <path class="cls-81" d="M166.44,152.14c2.03.34,1.74,3.34,3.91,3.15-2.07.62-3.8,1.97-6,2.54-.09-.95-.08-1.96-.34-3.05-.19-.79-1.11-.88-1.9-.7,1.47-.59,2.67-1.64,4.33-1.93Z"/>
    <path class="cls-103" d="M91.39,169.13l17.78,10.02c.46,2.7.85,5.35,1.15,7.97.16,3.81-.98,8.12-3.49,11.35-2.36,3.05-6.08,4.17-9.71,3.5-9.67-1.78-8.13-15.22-6.94-22.66-.65-1.28-2.06-3.24-2.82-4.19-1.04-2-.37-3.11,1.19-1.26.7.23,1.36.6,1.67,1,.61.81,2.3-.46,1.98-1.03-1.6-2.76-4.91-4.39-3.8-7.54,1.95-1.5,3.06.74,2.99,2.83Z"/>
    <path class="cls-19" d="M197.48,171.21c1.03,1.05,1.97,2.25,2.83,3.58-1.03,1.77-1.19,4.44-1.88,6.31-1.01,3.28-1,3.62.03,1.02,1.3,3.59,1.43,8.43.03,12-.76-.57-.77-.23-.03,1.01-.88,3.52-3.89,6.19-7.08,6.82-3.57.71-7.25-.41-9.57-3.38-2.78-3.57-3.87-8.27-3.63-12.45.31-.87.67-.86,1.09,0,.89-2.24.73-4.69.15-6.98l17.9-9.99c1.69-.24,1.3.99.16,2.06Z"/>
    <path class="cls-18" d="M153.45,222.26c-2.69,1.06-3.3,0-1.02-1.81l-1.2-.96c-1.91.95-3.19.83-3.84-.37-.92.67-1.66,1.35-2.22,2.02,2.25,1.32,1.77,2.04-.66,2.71-.44-.12-.82-.4-1.14-.71-1.88.12-3.62-1.5-4.02-3.18-.45-.98-.93-2.49-1.98-3.06-1.36-1.4-.94-2.17.98-1.79.27,0,.55.1.82.1,1.15.26,2.18.57,3.11.91,1.65.7,3.35.7,5,0,.61-.58,1.61-.94,3-1.07,1.69-.2,3.91-3.47,5.85-3.35,3.11.19.06,11.35-2.67,10.56Z"/>
    <path class="cls-67" d="M142.17,199.02c2-.6,4.19-.73,6.17-.02,2.24.12,3.4,1.68,3.96,3.05.78,1.69.72,3.56.05,5.27-1.58,1.86-3.13,2.89-5.09,2.87-1.59.12-2.71-.22-3.38-1.02-1.95.06-1.9-.73.07-1.19l.12-1.05c4.6-.38,5.96-1.66,4.07-3.84l-5.66-.56c.19,2.75-.53,3.02-2.1.78-1.51,1.57-2.42,1.14-2.16-1.03.99-2.1,2.22-3.17,3.94-3.27Z"/>
    <path class="cls-36" d="M158.26,231.13v1c-7.6.66-16.24.64-24,0v-1c2.3.61,4.74-.9,7.25-.66,5.77.55,11.23.69,16.75.66Z"/>
    <path class="cls-24" d="M140.39,203.31c2.6.1,3.18,2.56,3.02,4.67.18-.83.36-.83.55,0l-.07,1.19c.5,1.11.03,1.43-.97,1.55-2.05-.87-3.62-1.98-4.52-3.28-1.19-1.7-.96-3.51-.17-5.17.65.48,1.37.83,2.16,1.03Z"/>
    <path class="cls-51" d="M153.45,222.26l-1.16,1.79c-2.15.88-5.33,1.61-6.95-.11-.27-.03-.57-.02-.84-.09.06-.94.21-1.87.66-2.71-.25-1.56,1.77-1.52,2.33-.14,1.14-1.17,3.93-2.12,4.93-.54-.09.67.57,1.4,1.02,1.81Z"/>
    <path class="cls-109" d="M200.31,174.79c-.98.1-2.86,1.65-3.82.17-.82-1.27.94-2.71,1-3.75.12-1.68.63-2.28,1.87-1.04.8,2.15,2.03,2.79.96,4.62Z"/>
    <path class="cls-104" d="M138.33,215.12c-.28.62-.61,1.22-.98,1.79-1.63-.89-4.52-2.05-3.45-4.41.55-1.2,2.37-.55,3.06.35.45.58,1.06,1.26,1.36,2.27Z"/>
    <path class="cls-22" d="M98.22,157.1c.34,1.88-2.37,1.36-3.45,2.64l-2.9,3.46c-.8.95-2.33.43-3.65,0,3.1-2.26,6.01-5.4,9.99-6.1Z"/>
    <path class="cls-22" d="M79.13,173.08c1.15-1.88,1.72-3.33,3.3-4.89,0,1.26,1.02,3.12.32,4-.97,1.22-2.58.79-3.61.9Z"/>
    <path class="cls-71" d="M148.19,165.14c-1.96,1.72-4.04.95-5.93.25.77-2.16,4.74-1.88,5.93-.25Z"/>
    <path class="cls-117" d="M200.46,165.93l-1.11,4.24c-.64.31-1.27.65-1.87,1.04.03-.63-.36-1.46-.16-2.06.5-1.52,1.49-2.84,2.21-4.26.23.38.74.61.93,1.03Z"/>
    <path class="cls-82" d="M150.26,215.06c-.82.1-1.91,1.52-3,1.07-1.59.71-3.4.74-5,0-.63-.63-3.38.78-3.11-.91l11.11-.17Z"/>
    <path class="cls-36" d="M152.29,224.06c-.82,1.27-2.2,1.39-3.99,1.65-1.18.17-2.81.24-2.96-1.76,2.31.29,4.63.14,6.95.11Z"/>
    <path class="cls-36" d="M143.36,223.14c-1.11,1.02-2.13.79-3.14-.43-.65-.79-2.23-1.66-.88-2.75,1.4.98,2.78,2,4.02,3.18Z"/>
    <path class="cls-22" d="M91.39,169.13c-1.17-.66-1.21-3.12-2.99-2.83.58-1.66,1.73-1.52,3.33-.33.87.65-.3,2.17-.34,3.16Z"/>
    <path class="cls-99" d="M110.33,187.13c-.52.15-.97-.29-.98-1.04l-.17-6.93c2.03,2.1,1.04,5.33,1.15,7.97Z"/>
    <path class="cls-58" d="M154.3,162.99c.09.95-.19,1.81-1.26,2.44-.8.47-1.97.41-2.86-.44.56-1.75,2.92-1.17,4.12-2Z"/>
    <path class="cls-29" d="M147.26,210.2c-1.6.96-3.16,1.03-4.34.53-.47-.37-.37-.7.13-1.07.22-.16.46-.46.83-.48,1.16-.07,3.11-.49,3.38,1.02Z"/>
    <path class="cls-73" d="M88.56,173.87c-.6-.1-1.51.54-1.19,1.26-.77-.96-2.55-3.22.04-4.03,1-.31,1.24,2.2,1.16,2.77Z"/>
    <path class="cls-90" d="M179.26,186.13h-1.09c.14-2.36-.96-5.75,1.24-6.98.6,2.27.75,4.76-.15,6.98Z"/>
    <path class="cls-119" d="M170.26,230.91c1.05.51,2.22-.56,4.14.64-1.83.95-4.95,1.29-6.14-.48.58,0,1.49.01,2-.17Z"/>
    <path class="cls-68" d="M148.35,199c-1.75-.1-3.56.39-6.17.02,1.54-1.44,4.62-1.44,6.17-.02Z"/>
    <path class="cls-3" d="M198.45,182.13c-.26,1.06.2,2.17-.6,4.06-1.94-1.89,0-3.55.57-5.08-.04.33.11.7.03,1.02Z"/>
    <path class="cls-46" d="M152.35,207.32l-.05-5.27c1.76,1.78,1.2,3.92.05,5.27Z"/>
    <path class="cls-113" d="M198.49,194.13c.1.26.03.74-.03,1.01-1.91-.61-1.59-3.61-.64-5.08,1.04,1.98.3,3.04.67,4.07Z"/>
    <path class="cls-81" d="M182.26,153.21c-1.27-.01-3.75-.38-5,0,.05-1.29,1.58-1.15,2.5-1.15s2.45-.13,2.5,1.16Z"/>
    <path class="cls-12" d="M164.27,237.16c-1.3-.2-2.69-.03-4-.03-9.1.78-18.74.88-28,0-.62-.19-1.34-.06-1.97-.2.06-.62.45-1.11.89-1.32-.96.45,17.07.7,19.13.54,4.39-3.04,11.1-3.39,13.95,1Z"/>
    <path class="cls-17" d="M160.26,237.13c.1.57-.96,1.29-1.97,1.17-8.99-1.06-17.88,1.3-26.03-1.17h28Z"/>
    <path class="cls-44" d="M134.26,232.13h24c3.64.57,6.82-1.08,10.09.8h-42.17c2.84-1.51,5.64-.8,8.08-.8Z"/>
    <path class="cls-37" d="M101.35,266.31c1.02,1.2,1.07,2.77.16,4.73.55,2.36.2,4.07-1.06,5.14,1.64,1.49,1.66,2.17-.64,2.13-2.23-.8-3.85-3.14-3.48-5.18l1.08-6c-.93-1.94.77-4.82,2.82-2.88,2.54-.8,3.18.36,1.13,2.06Z"/>
    <path class="cls-48" d="M112.07,274.95c.99-.2,1.42.2,1.31,1.2-1.26,2.06-1.78,3.01-4.1,3.97-2.35.53-4.83,1-7.16.05-.67-.57-2.15-.66-2.3-1.86l.64-2.13c2.4-2.04,3.19-.97,2.81,1.95.49-1.63,4.19-1.47,5,0-1.62-2.69,1.53-5.78,3.81-3.18Z"/>
    <path class="cls-38" d="M171.25,276.94c1.38.28,1.67.77.88,1.48,2.33,1.05,1.74,1.78-.76,1.5-2.86-.97-5.26-2.59-6.04-5.78l-.08-1c.25-2.02.9-3.3,1.93-3.83l.74.03c-.6,2.92.84,6.04,3.32,7.6Z"/>
    <path class="cls-23" d="M113.38,276.15c-.47-.36-.91-.76-1.31-1.2-2.95.57-3.18-5.17-.35-5.88.72-.05,1.34-.44,1.84-.94,2.72,2.2,1.3,5.6-.18,8.02Z"/>
    <path class="cls-102" d="M179.36,278.44l.03.89c-2.63,1.66-5.3,1.49-8.01.58l.76-1.5c1.27-.64,3.01-1.04,5.23-1.19l.87-.06c1.51-.91,2.02-.27,1.12,1.28Z"/>
    <path class="cls-39" d="M109.27,280.12c-2.34.97-4.81,2.06-7.16.05l7.16-.05Z"/>
    <path class="cls-49" d="M165.26,273.13c.01.32,0,.69.08,1-1.66-1.06-2.07-5.35.11-6,.95,1.33.88,3-.19,5Z"/>
    <path class="cls-49" d="M158.48,260.02c-.67.46-1.56,1.19-2.25.65-.95-.73-1.5-1.72-2.02-2.59,1.63.15,3.07.86,4.27,1.94Z"/>
    <path class="cls-49" d="M165.52,267.13c-.17-.57-1.96-.7-2.11-1.51-.1-.55,1.83-1.04,1.85-1.63.69.18,1.05.77,1.02,1.58-.02.51-.29,1.12-.77,1.56Z"/>
    <path class="cls-50" d="M192.47,262.13c-.3.64.34,1.49-.75,3-.78-1.38-.98-3.89.37-5,.14.6.07,1.48.38,2Z"/>
    <path class="cls-98" d="M108.26,266.22c1.11.55,2.26,1.03,3.22,1.85.1.33.22.67.24,1l.35,5.88c-1.74.33-2.39,2.2-3.81,3.18-1.92-1.36-3.35-1.31-5,0l-2.81-1.95c-1.49-3.36-1.35-6.91.9-9.87.17-.88.44-.86.82,0l6.09-.09Z"/>
    <path class="cls-105" d="M167.2,269.3c-.53,1.34-.79,2.87-1.93,3.83-.06-1.67.09-3.34.19-5,.67-.2,1.24.9,1.74,1.17Z"/>
    <path class="cls-60" d="M182.46,275.05c-.83,1.97-2.8,2.49-3.36.09.31-.35.76-.78,1.17-1.01.71-1.53.89-3.53-.09-5-.01-.34-.1-.84.03-1.15.34-.83.92-1.59,1.74-1.94.87,3.01,2.11,6.14.51,9.01Z"/>
    <path class="cls-38" d="M182.46,275.05c-.34.62-.13,1.52-.55,2.1-.65.9-1.42,1.61-2.55,1.29-.51-.29-.98-.7-1.12-1.28.22-.67.38-1.47.86-2.02l3.36-.09Z"/>
    <path class="cls-9" d="M177.37,277.22c-1.42,1.25-3.42,1.13-5.23,1.19l-.88-1.48,6.11.28Z"/>
    <path class="cls-9" d="M180.26,274.13c.03-1.67-.02-3.33-.09-5,1.31.03,1.1,1.55,1.18,2.53s-.15,1.93-1.1,2.47Z"/>
    <path class="cls-87" d="M103.16,262.8c.1,1.76-1.59,2.68-2.93,1.44-.78.66-2.82,1.7-2.82,2.88l-1.19-.33c.74-4.29,1.63-8.72,3.59-12.52,1.3,2.76,2.66,5.54,3.35,8.53Z"/>
    <path class="cls-26" d="M105.06,264.82c1.17.23,2.16.88,3.2,1.4-1.44,1.67-4.42,1.32-6.09.09-.57-2.26,1.25-3.01,2.9-1.49Z"/>
    <path class="cls-64" d="M103.16,262.8c.82.48,1.57,1.11,1.91,2.02-1.09.22-2.06.76-2.9,1.49h-.82c-.16-.78-.49-1.55-1.13-2.06.86-.72,1.78-1.33,2.93-1.44Z"/>
    <path class="cls-74" d="M60.5,242.15c-1.23,1.4-4.32,1.78-5.34.06,1.76-.04,3.58-.2,5.34-.06Z"/>
    <path class="cls-91" d="M52.44,250.2c-.38-1.5-.1-3.04-.13-5.19,1.6.87,1.52,4.08.13,5.19Z"/>
    <path class="cls-107" d="M179.26,186.13c.09-2.32-.2-4.67.15-6.98,1.49,1.57,1.55,5.52-.15,6.98Z"/>
    <path class="cls-83" d="M152.42,220.46c-1.59.6-3.31,1.32-4.93.54-2.09.16-2.18-1.28-.12-1.87,1.53-.02,2.89-1.24,5.19-1.04,1.15.1-.06,1.77-.14,2.37Z"/>
    <path class="cls-7" d="M147.38,219.13l.12,1.87-2.33.14c-.52-.66-1.44-.79-1.99-1.79,1.86-.44,2.98-.21,4.21-.22Z"/>
    <path class="cls-55" d="M147.26,216.13c-1.44,1.44-3.53,1.47-5,0h5Z"/>
    <path class="cls-124" d="M148.15,203.09c1.84,1.71.82,3.05-3.07,4.03l-1.67.87c-2.11-.45-2.67-2.75-3.02-4.67.57-.37,1.64-.3,2.1-.78,1.81-.24,4.11-.21,5.66.56Z"/>
    <path class="cls-40" d="M143.96,207.98c-.17.04-.38.04-.55,0,.01-.66,0-1.5.41-1.95,1.48-1.69,4.25.44,4.55-1.27.08-.43-1.1-.73-.22-1.67.4.21,1.38.07,1.46.54.12.66.34,1.77-.37,2.51-1.57,1.64-3.65,1.44-5.29,1.84Z"/>
    <path class="cls-97" d="M148.15,203.09c-1.85.9-4.19,1-5.66-.56.8-.94,1.77-1.31,3.19-1.16,1.01.11,2.22.41,2.47,1.72Z"/>
    <path class="cls-17" d="M161.25,235.7c-1.43.71-3.02.71-5.06.04,1.08-1.05,2.43-.92,5.06-.04Z"/>
    <path class="cls-20" d="M108.26,278.13h-5c-.47-1.95.86-2.15,2.51-2.1,1.41.04,2.88.28,2.49,2.1Z"/>
  </g>
</svg>