<?xml version="1.0" encoding="UTF-8"?>
<svg id="Layer_1" data-name="Layer 1" xmlns="http://www.w3.org/2000/svg" viewBox="0 0 297.34 267.16">
  <defs>
    <style>
      .cls-1 {
        fill: #7c6a59;
      }

      .cls-2 {
        fill: #fffaee;
      }

      .cls-3 {
        fill: #ffdede;
      }

      .cls-4 {
        fill: #ff9494;
      }

      .cls-5 {
        fill: #e55151;
      }

      .cls-6 {
        fill: #febc18;
      }
    </style>
  </defs>
  <g>
    <g>
      <rect class="cls-4" width="297.34" height="267.16"/>
      <path class="cls-5" d="M38.52,13.65h224.66c14.01,0,25.38,11.37,25.38,25.38v193.52c0,14.01-11.37,25.38-25.38,25.38H38.52c-14.01,0-25.38-11.37-25.38-25.38V39.03c0-14.01,11.37-25.38,25.38-25.38Z"/>
      <path class="cls-2" d="M36.34,11.44h224.66c14.01,0,25.38,11.37,25.38,25.38v193.52c0,14.01-11.37,25.38-25.38,25.38H36.34c-14.01,0-25.38-11.37-25.38-25.38V36.82c0-14.01,11.37-25.38,25.38-25.38Z"/>
    </g>
    <g>
      <path class="cls-5" d="M53.39,2.59v22.58c0,6.32,5.17,11.48,11.48,11.48h167.6c6.32,0,11.48-5.17,11.48-11.48V2.59H53.39Z"/>
      <path class="cls-4" d="M53.39,0v22.58c0,6.32,5.17,11.48,11.48,11.48h167.6c6.32,0,11.48-5.17,11.48-11.48V0H53.39Z"/>
    </g>
  </g>
  <g>
    <g>
      <g id="evil">
        <g>
          <path class="cls-1" d="M195.71,146.61c-.4,1.06-1.22,1.88-2.29,2.41-1.05.53-2.37.74-3.68.43-1.31-.31-2.36-1.13-2.98-2.28-.6-1.14-.73-2.6-.2-4.01.69-1.8,1.47-3.57,2.44-5.28.97-1.7,2.07-3.35,3.33-4.89,2.5-3.09,5.66-5.72,9.18-7.65,3.52-1.93,7.39-3.16,11.32-3.66,3.93-.51,7.92-.32,11.78.54,3.85.86,7.59,2.4,10.95,4.65,1.68,1.13,3.26,2.44,4.69,3.93,1.43,1.49,2.7,3.17,3.74,5,1.04,1.83,1.86,3.8,2.41,5.84.55,2.04.83,4.14.86,6.21.03,2.07-.18,4.11-.58,6.08l-.33,1.46-.4,1.43c-.06.24-.14.47-.22.7l-.24.7-.41,1.19c-.92,2.65-1.26,5.27-.79,7.38.12.53.27,1.02.47,1.5.21.47.46.91.75,1.32.58.84,1.37,1.56,2.32,2.19,1.91,1.23,4.48,1.94,7.11,2,2.63.07,5.34-.47,7.65-1.55,2.33-1.09,4.23-2.71,5.45-4.7.32-.5.56-1.02.8-1.57.22-.57.43-1.13.55-1.68.26-1.11.34-2.17.18-3.24-.26-2.13-1.47-4.44-3.25-6.71-.88-1.13-1.91-2.25-3.01-3.36-1.1-1.11-2.27-2.21-3.49-3.32-.95-.86-1.47-2.07-1.53-3.31-.06-1.24.37-2.51,1.27-3.51.91-1,2.12-1.54,3.35-1.63,1.23-.08,2.49.3,3.48,1.21,1.28,1.17,2.58,2.38,3.86,3.67,1.28,1.3,2.55,2.67,3.75,4.2.3.39.6.77.88,1.18.14.2.29.4.43.61l.42.63c.28.41.54.87.8,1.31l.38.69c.13.23.25.46.36.7l.34.72c.11.24.21.5.32.75.22.49.39,1.03.57,1.55.33,1.07.61,2.17.74,3.31.09.57.12,1.15.15,1.72.02.29,0,.58,0,.87,0,.29,0,.58-.02.86-.05.57-.08,1.15-.18,1.71-.04.28-.09.56-.14.84l-.19.82c-.26,1.1-.62,2.13-1.02,3.14-.43,1.01-.92,2.01-1.5,2.95-1.16,1.89-2.62,3.57-4.26,4.99-.83.7-1.69,1.35-2.59,1.92-.9.57-1.83,1.08-2.78,1.53-3.82,1.78-7.93,2.57-12.06,2.47-2.07-.06-4.14-.34-6.19-.92-1.02-.28-2.04-.64-3.04-1.08-1-.44-1.98-.95-2.92-1.56-1.88-1.23-3.64-2.81-5-4.76-.68-.97-1.27-2.01-1.74-3.09-.46-1.09-.81-2.21-1.06-3.33-.24-1.13-.36-2.25-.41-3.36,0-.55-.02-1.1.01-1.64.01-.27.02-.54.04-.81l.08-.8c.23-2.12.75-4.1,1.38-5.97l.42-1.21.17-.51c.06-.17.11-.34.16-.51l.29-1.01.23-1.01c.27-1.35.4-2.69.38-4-.03-2.62-.7-5.11-1.97-7.33-1.26-2.22-3.14-4.16-5.4-5.67-2.26-1.52-4.88-2.61-7.63-3.22-2.75-.61-5.61-.75-8.39-.39-2.78.36-5.46,1.22-7.88,2.54-2.41,1.33-4.56,3.1-6.32,5.27-.88,1.08-1.67,2.25-2.37,3.49-.7,1.24-1.29,2.56-1.81,3.92Z"/>
          <path d="M259.91,147.57c1.22,1.11,2.4,2.21,3.5,3.32,1.1,1.11,2.13,2.23,3.02,3.37,1.79,2.28,3.02,4.61,3.28,6.77.16,1.09.08,2.17-.19,3.29-.13.56-.33,1.13-.56,1.7-.24.55-.49,1.09-.81,1.59-1.23,2.02-3.16,3.66-5.5,4.75-2.34,1.1-5.06,1.64-7.71,1.57-2.65-.07-5.24-.77-7.17-2.02-.96-.63-1.77-1.37-2.35-2.22-.3-.42-.55-.87-.76-1.35-.2-.48-.36-.99-.48-1.52-.47-2.14-.13-4.78.8-7.44l.41-1.19.24-.69c.08-.23.16-.46.22-.7l.4-1.42.33-1.46c.39-1.96.6-3.99.57-6.06-.03-2.06-.31-4.15-.85-6.18-.54-2.03-1.36-3.99-2.39-5.81-1.04-1.82-2.3-3.49-3.72-4.97-1.42-1.49-3-2.79-4.67-3.91-3.35-2.25-7.07-3.77-10.91-4.63-3.84-.86-7.82-1.05-11.74-.54-3.91.5-7.77,1.73-11.28,3.65-3.5,1.92-6.65,4.53-9.14,7.61-1.25,1.54-2.36,3.17-3.32,4.87-.96,1.7-1.75,3.47-2.43,5.26-.52,1.37-.38,2.79.19,3.9.6,1.12,1.62,1.92,2.9,2.22h0c1.28.31,2.56.1,3.59-.41,1.05-.51,1.84-1.32,2.24-2.36.53-1.37,1.11-2.7,1.82-3.94.71-1.24,1.5-2.42,2.39-3.5,1.76-2.18,3.93-3.96,6.35-5.3,2.43-1.33,5.13-2.19,7.92-2.56,2.79-.36,5.67-.23,8.43.39,2.76.62,5.4,1.72,7.67,3.24,2.27,1.52,4.17,3.47,5.44,5.72,1.28,2.24,1.95,4.75,1.99,7.39.02,1.32-.12,2.67-.39,4.02l-.23,1.02-.29,1.02c-.04.17-.1.34-.16.51l-.17.51-.42,1.21c-.63,1.87-1.15,3.84-1.38,5.94l-.08.79c-.03.26-.03.54-.04.8-.03.53-.02,1.09-.01,1.63.05,1.1.16,2.22.41,3.34.24,1.12.59,2.23,1.05,3.31.47,1.08,1.05,2.11,1.73,3.07,1.35,1.93,3.1,3.51,4.96,4.72.94.61,1.91,1.12,2.91,1.55.99.44,2,.79,3.02,1.07,2.04.57,4.1.85,6.16.91,4.11.1,8.2-.69,12-2.46.95-.44,1.87-.95,2.77-1.52.9-.57,1.75-1.21,2.58-1.91,1.64-1.41,3.09-3.08,4.24-4.96.58-.93,1.07-1.92,1.49-2.93.4-1,.76-2.03,1.02-3.12l.19-.82c.05-.28.09-.56.14-.84.1-.56.13-1.13.18-1.7.03-.28.02-.57.02-.86,0-.29.01-.57,0-.86-.04-.57-.06-1.15-.15-1.71-.14-1.14-.42-2.23-.74-3.29-.18-.52-.35-1.05-.57-1.54-.1-.25-.2-.5-.32-.74l-.34-.72c-.11-.24-.24-.47-.36-.7l-.37-.69c-.27-.43-.52-.89-.8-1.3l-.42-.63c-.14-.21-.29-.4-.43-.61-.29-.41-.58-.79-.88-1.17-1.19-1.53-2.46-2.9-3.74-4.19-1.28-1.29-2.58-2.5-3.86-3.67-.97-.89-2.2-1.27-3.4-1.18-1.2.08-2.38.62-3.27,1.59h0c-.89.97-1.3,2.21-1.24,3.42.05,1.21.56,2.38,1.49,3.22M259.74,147.76c-.97-.89-1.51-2.12-1.57-3.39-.06-1.27.38-2.58,1.31-3.6.93-1.02,2.18-1.58,3.44-1.67,1.26-.09,2.55.31,3.57,1.24,1.28,1.17,2.58,2.38,3.87,3.68,1.28,1.3,2.56,2.67,3.76,4.21.3.39.6.77.89,1.18.14.2.29.4.43.61l.42.63c.28.42.54.88.81,1.31l.38.69c.13.23.25.46.36.71l.35.73c.11.25.21.5.32.75.22.5.39,1.03.57,1.56.33,1.07.61,2.18.75,3.33.09.57.12,1.15.15,1.73.02.29,0,.58,0,.87,0,.29,0,.58-.02.87-.05.58-.08,1.16-.18,1.72-.04.28-.09.57-.14.85l-.19.83c-.26,1.1-.62,2.15-1.03,3.15-.43,1.01-.92,2.02-1.51,2.96-1.16,1.9-2.64,3.59-4.29,5.01-.83.71-1.7,1.36-2.6,1.93-.91.57-1.84,1.09-2.8,1.54-3.84,1.78-7.97,2.59-12.11,2.48-2.07-.06-4.16-.34-6.22-.92-1.03-.28-2.05-.64-3.06-1.09-1-.44-1.99-.96-2.94-1.57-1.89-1.23-3.67-2.83-5.03-4.79-.69-.97-1.28-2.02-1.75-3.11-.47-1.09-.82-2.22-1.06-3.36-.25-1.14-.36-2.27-.41-3.38,0-.55-.02-1.11.01-1.65.01-.27.02-.55.05-.81l.08-.8c.23-2.13.75-4.12,1.39-6l.42-1.21.17-.5c.06-.17.11-.33.16-.5l.28-1.01.23-1.01c.27-1.34.4-2.67.38-3.97-.03-2.6-.69-5.07-1.95-7.27-1.25-2.21-3.12-4.13-5.36-5.63-2.24-1.51-4.85-2.6-7.59-3.21-2.73-.61-5.59-.75-8.35-.39-2.76.36-5.43,1.21-7.83,2.53-2.4,1.32-4.54,3.08-6.28,5.24-.88,1.07-1.66,2.24-2.36,3.47-.7,1.23-1.28,2.55-1.8,3.91-.19.55-.53,1.01-.91,1.44-.39.42-.9.75-1.43,1.03-1.08.54-2.43.77-3.78.45-1.35-.32-2.42-1.15-3.05-2.33-.33-.59-.49-1.25-.54-1.95-.06-.71.07-1.44.33-2.16.69-1.8,1.48-3.58,2.45-5.29.97-1.71,2.08-3.36,3.34-4.91,2.51-3.1,5.68-5.74,9.21-7.68,3.53-1.94,7.42-3.17,11.37-3.68,3.95-.51,7.95-.32,11.82.55,3.87.87,7.62,2.4,10.99,4.67,1.69,1.13,3.28,2.45,4.71,3.95,1.44,1.5,2.71,3.19,3.76,5.02,1.05,1.84,1.87,3.82,2.42,5.87.55,2.05.83,4.16.86,6.24.03,2.08-.18,4.13-.58,6.11l-.33,1.47-.4,1.44c-.06.24-.14.48-.22.71l-.24.7-.41,1.19c-.92,2.63-1.25,5.24-.79,7.31.12.52.27,1.01.46,1.47.2.46.45.89.74,1.3.57.82,1.35,1.54,2.28,2.15,1.89,1.22,4.43,1.92,7.04,1.98,2.61.07,5.3-.46,7.6-1.54,2.31-1.08,4.19-2.68,5.4-4.65.31-.49.56-1.01.79-1.55.22-.56.42-1.12.54-1.66.26-1.09.34-2.14.18-3.2-.25-2.1-1.45-4.39-3.23-6.65-.88-1.13-1.91-2.24-3-3.35-1.09-1.11-2.27-2.2-3.49-3.31Z"/>
        </g>
      </g>
      <g>
        <path class="cls-1" d="M59.23,162.28c.37.08.72.22,1.04.38.16.08.32.16.47.26.15.1.29.2.43.32.27.22.52.46.73.72.21.27.38.56.52.85.28.58.4,1.24.38,1.87-.02.64-.2,1.26-.5,1.87s-.7,1.12-1.14,1.57c-.44.44-.89.8-1.37,1.09-.24.14-.47.27-.7.36-.24.1-.48.19-.71.24-.12.03-.23.05-.35.06-.12.02-.24.03-.35.03-.24,0-.46-.03-.7-.08-2.14-.51-4.47-.6-6.7-.32-1.12.13-2.21.4-3.25.73-1.04.34-2.05.76-2.97,1.3-3.73,2.09-6.16,5.75-7.08,10.29-.05.25-.14.48-.25.7-.1.23-.23.44-.38.65-.31.41-.73.77-1.19,1.09-.94.63-2.2,1.04-3.55.97-1.35-.07-2.52-.66-3.33-1.64-.41-.49-.69-1.08-.84-1.73-.08-.32-.13-.66-.14-1.01,0-.35.04-.7.12-1.06.32-1.64.86-3.29,1.48-4.9.36-.8.69-1.6,1.12-2.37l.31-.58.16-.29.18-.28.72-1.12c1.02-1.46,2.19-2.83,3.5-4.05,1.33-1.2,2.78-2.26,4.31-3.14,1.53-.89,3.15-1.58,4.8-2.12,1.65-.53,3.33-.92,5.03-1.13,1.7-.21,3.4-.28,5.1-.2,1.7.08,3.4.3,5.09.71Z"/>
        <path d="M36.86,183.77c.92-4.57,3.38-8.27,7.14-10.37.92-.55,1.94-.97,2.99-1.31,1.05-.34,2.15-.6,3.28-.74,2.24-.28,4.59-.19,6.75.33.23.05.45.09.68.08.11,0,.23-.01.35-.03.11-.01.23-.03.34-.05.23-.05.46-.13.7-.23.23-.09.46-.21.69-.35.47-.29.91-.64,1.33-1.07.42-.43.81-.94,1.1-1.53h0c.29-.59.46-1.2.48-1.82.02-.62-.1-1.25-.38-1.82-.14-.29-.31-.56-.51-.83-.2-.25-.44-.48-.71-.7-.13-.11-.27-.21-.42-.31-.15-.09-.3-.17-.46-.25-.32-.15-.66-.29-1.01-.36-1.68-.4-3.37-.62-5.07-.7s-3.39-.01-5.08.2c-1.69.21-3.36.6-5.01,1.13-1.64.54-3.25,1.22-4.78,2.11-1.52.88-2.97,1.93-4.29,3.12-1.3,1.22-2.47,2.58-3.48,4.03l-.71,1.12-.18.28-.16.29-.31.58c-.44.77-.76,1.57-1.12,2.36-.63,1.6-1.16,3.24-1.48,4.88-.07.35-.11.69-.12,1.03.01.34.06.67.14.98.15.63.41,1.2.82,1.68.78.96,1.93,1.53,3.25,1.61h0c1.31.08,2.54-.32,3.46-.93.45-.31.87-.66,1.16-1.07.15-.2.28-.41.37-.64.11-.22.2-.44.25-.69M37.11,183.82c-.05.25-.14.48-.25.71-.1.23-.23.45-.39.66-.16.21-.35.41-.56.59-.21.19-.42.37-.66.53-.96.64-2.26,1.07-3.64,1s-2.59-.67-3.42-1.68c-.2-.25-.4-.53-.54-.82-.14-.3-.25-.62-.33-.95-.08-.33-.13-.68-.14-1.04,0-.36.04-.72.12-1.09.32-1.65.86-3.3,1.49-4.92.36-.8.69-1.61,1.13-2.38l.32-.58.16-.29.18-.28.72-1.13c1.02-1.47,2.2-2.85,3.52-4.08,1.33-1.21,2.79-2.27,4.33-3.16,1.54-.9,3.17-1.58,4.82-2.13,1.66-.53,3.35-.93,5.05-1.14,1.7-.21,3.41-.28,5.12-.2,1.71.08,3.42.3,5.11.71,1.52.37,2.73,1.37,3.29,2.6.14.3.25.62.31.94.06.32.09.65.08.98-.03.65-.21,1.29-.52,1.91-.31.62-.73,1.15-1.18,1.6-.22.23-.46.43-.69.62-.23.18-.47.35-.72.5-.24.15-.48.27-.72.37-.24.1-.49.19-.72.24-.12.03-.24.05-.35.06-.12.01-.24.03-.36.03-.24,0-.47-.03-.71-.08-2.13-.51-4.44-.59-6.66-.32-1.11.13-2.19.39-3.23.73-1.03.34-2.04.76-2.94,1.29-3.7,2.07-6.1,5.69-7.02,10.21Z"/>
      </g>
      <g>
        <path class="cls-1" d="M175.3,105.27c.16-.52.46-.97.79-1.39.37-.41.78-.78,1.29-1.1.13-.08.26-.15.39-.23.13-.07.26-.14.4-.21.27-.13.57-.24.87-.33.61-.18,1.26-.27,1.93-.22.67.05,1.3.25,1.85.59.28.17.53.38.77.62.12.12.23.25.34.39.1.14.19.28.28.44.34.61.6,1.35.64,2.14.08.8-.05,1.65-.32,2.49-1.34,3.85-3.6,7.34-6.52,10.15-1.46,1.4-3.08,2.65-4.83,3.67-1.75,1.02-3.61,1.84-5.54,2.44-1.92.62-3.9.97-5.88,1.14-.99.11-1.97.1-2.96.11-.49-.02-.98-.04-1.47-.07-.24-.02-.49-.02-.73-.05l-.72-.08c-1.94-.19-3.81-.61-5.64-1.11-.9-.28-1.82-.53-2.68-.87l-1.31-.49-1.28-.55c-.37-.16-.72-.34-1.03-.57-.31-.23-.59-.47-.84-.74-.25-.26-.47-.54-.66-.84-.19-.29-.33-.61-.45-.93-.46-1.27-.35-2.62.33-3.78s1.81-1.93,2.99-2.28c.3-.09.59-.14.9-.19.31-.04.61-.06.92-.05.3.01.6.06.9.13.29.08.59.15.88.28l.99.43,1,.37c.66.27,1.34.44,2.01.66,1.35.36,2.7.67,4.04.79l.5.06c.17.02.33.02.5.03l1,.05c.66-.02,1.33,0,1.98-.08,1.3-.11,2.58-.33,3.8-.73,2.44-.77,4.68-2.05,6.5-3.82,1.82-1.75,3.23-3.94,4.06-6.31Z"/>
        <path d="M145.03,122.66l1.27.55,1.31.49c.86.34,1.78.59,2.68.87,1.82.49,3.69.91,5.62,1.1l.72.08c.24.03.49.03.73.05.49.02.97.05,1.46.07.98-.01,1.96,0,2.95-.11,1.97-.17,3.94-.52,5.85-1.13,1.91-.6,3.77-1.41,5.51-2.43,1.75-1.01,3.36-2.25,4.81-3.65,2.91-2.8,5.15-6.28,6.49-10.11.26-.82.39-1.64.31-2.42-.04-.39-.08-.75-.2-1.1-.11-.35-.25-.68-.42-.97-.32-.59-.81-1.08-1.34-1.41-.54-.34-1.15-.53-1.8-.59h0c-.66-.05-1.29.03-1.89.2-.6.17-1.12.43-1.62.74-.25.15-.47.32-.68.5-.2.18-.41.37-.58.57-.33.41-.63.85-.78,1.36-.84,2.39-2.26,4.59-4.09,6.36-1.83,1.78-4.09,3.08-6.55,3.85-1.23.4-2.52.62-3.83.74-.65.08-1.32.06-1.99.08l-1.01-.05c-.17-.01-.34,0-.5-.03l-.51-.06c-1.35-.13-2.71-.44-4.06-.8-.67-.22-1.35-.39-2.02-.66l-1.01-.37-.99-.43c-.28-.13-.57-.2-.86-.27-.29-.07-.58-.12-.88-.13-.59-.03-1.2.07-1.77.23-1.15.34-2.23,1.1-2.9,2.23h0c-.67,1.13-.77,2.44-.32,3.68.21.63.59,1.2,1.08,1.71.25.26.52.5.82.72.3.22.64.39,1,.55M144.93,122.89c-.38-.17-.74-.35-1.06-.59-.32-.23-.61-.49-.87-.76-.26-.27-.49-.56-.68-.86-.19-.31-.34-.63-.46-.95-.47-1.31-.36-2.68.35-3.87.71-1.19,1.86-1.98,3.07-2.34.3-.09.61-.15.92-.19.31-.05.63-.06.94-.05.31.01.62.06.92.13.3.08.61.16.9.29l.99.43,1,.37c.66.27,1.33.44,2,.65,1.34.36,2.69.67,4.02.79l.5.06c.17.02.33.02.5.03l1,.05c.66-.02,1.32,0,1.96-.08,1.29-.11,2.57-.33,3.77-.73,2.42-.76,4.65-2.04,6.45-3.79,1.81-1.74,3.21-3.91,4.03-6.26.08-.27.19-.51.34-.74.07-.11.15-.23.22-.34.08-.11.16-.22.25-.32.38-.42.79-.8,1.31-1.12.52-.32,1.07-.6,1.7-.79.62-.19,1.3-.29,1.98-.24.69.05,1.33.24,1.9.59.28.17.55.39.79.64.24.25.47.53.64.85.73,1.25.93,3.03.34,4.77-1.35,3.87-3.62,7.38-6.55,10.2-1.47,1.41-3.1,2.67-4.86,3.69-1.76,1.03-3.63,1.85-5.56,2.45-1.93.62-3.92.97-5.9,1.14-.99.11-1.98.1-2.97.11-.49-.02-.98-.04-1.47-.07-.24-.02-.49-.02-.73-.05l-.73-.08c-1.94-.19-3.82-.61-5.66-1.11-.9-.28-1.82-.53-2.69-.88l-1.32-.49-1.28-.55Z"/>
      </g>
      <g>
        <path id="maze4" class="cls-1" d="M96.37,98.69c-1.99.36-3.89.23-5.43-.29-1.53-.53-2.69-1.46-3.06-2.77-.36-1.29.16-2.72,1.37-3.94,1.2-1.23,3.11-2.22,5.36-2.63,5.94-1.09,12.06-1.54,18.22-1.11,6.15.44,12.36,1.76,18.2,4.43,2.91,1.34,5.73,3.03,8.31,5.13,2.57,2.1,4.9,4.65,6.7,7.65.9,1.49,1.66,3.11,2.24,4.8.3.84.52,1.71.73,2.59.18.88.34,1.77.41,2.68.17,1.8.14,3.63-.12,5.41l-.1.67c-.04.22-.08.44-.13.66-.08.44-.19.87-.3,1.31-.1.44-.24.85-.37,1.28-.13.42-.28.81-.43,1.22-.6,1.61-1.32,3.2-2.26,4.7-.92,1.5-1.99,2.91-3.19,4.2-1.2,1.29-2.53,2.41-3.91,3.42-1.39,1-2.83,1.87-4.3,2.6-1.47.74-2.96,1.37-4.45,1.92-1.49.54-2.99,1-4.48,1.4-1.49.4-2.98.74-4.46,1.04-1.48.29-2.95.56-4.41.79-5.85.91-11.59,1.42-17.19,2.03-5.59.61-11.07,1.3-16.17,2.59-2.54.65-4.98,1.45-7.19,2.48-1.1.52-2.15,1.09-3.13,1.72-.98.63-1.87,1.34-2.68,2.1-3.24,3-5.18,7.35-5.33,11.76v.83s-.01.21-.01.21v.21s.04.41.04.41c.01.55.11,1.1.18,1.65.04.27.11.54.16.81l.08.41c.03.13.07.27.11.4l.22.8.28.78.14.39.17.38.33.76.39.74c.07.12.13.25.19.37l.22.36.44.71.5.68.25.34c.09.11.18.22.27.33l.54.65c1.51,1.7,3.36,3.14,5.41,4.33,2.06,1.19,4.34,2.1,6.74,2.77,2.4.66,4.92,1.07,7.49,1.29.64.04,1.29.1,1.93.13.64,0,1.28.04,1.92.04.64-.02,1.28-.01,1.92-.05l.96-.06c.32-.02.64-.03.96-.07,5.11-.46,10.16-1.82,14.94-3.9,9.57-4.17,18.03-11.15,24.25-19.64.39-.53.78-1.06,1.14-1.61l.55-.82c.18-.27.35-.55.53-.83l.53-.83.5-.85,1.11-1.85c1.53-2.64,3.32-5.17,5.28-7.6,1.95-2.43,4.18-4.7,6.66-6.75,2.47-2.04,5.22-3.84,8.21-5.25,2.99-1.4,6.22-2.4,9.56-2.86,3.34-.46,6.77-.35,10.1.29l.31.06.31.07.62.15c.41.11.83.19,1.24.32.81.25,1.63.49,2.42.82,1.6.59,3.14,1.38,4.62,2.27l1.1.7c.36.24.71.51,1.06.77l.53.39.5.43c.33.29.68.56,1,.87,1.3,1.2,2.48,2.58,3.52,4.11l.74,1.18.6,1.12c.21.37.39.76.56,1.15.17.39.37.77.52,1.18.66,1.6,1.15,3.29,1.49,5.03.65,3.48.54,7.23-.48,10.7-.23.88-.56,1.71-.88,2.55-.37.81-.72,1.64-1.17,2.4-.41.79-.9,1.51-1.38,2.24-.24.36-.51.7-.77,1.05l-.39.52c-.13.17-.28.33-.41.49l-.84.97c-.29.31-.59.61-.88.91l-.44.45c-.15.15-.31.28-.46.43l-.93.84c-.31.28-.64.52-.96.79-.32.25-.64.53-.97.76l-.99.71-.5.36-.51.33c-2.7,1.77-5.53,3.19-8.41,4.36-2.88,1.17-5.8,2.1-8.73,2.87l-2.21.53c-.37.09-.74.17-1.1.24l-1.11.23-1.11.23-1.07.2-2.13.39c-2.84.51-5.66.99-8.46,1.46-5.6.95-11.15,1.88-16.43,3.15-2.63.64-5.19,1.38-7.59,2.28-2.38.92-4.61,1.99-6.45,3.33-.92.67-1.78,1.37-2.49,2.16-.09.1-.19.19-.28.29l-.25.31c-.16.21-.35.4-.49.62l-.46.64-.41.67c-.15.22-.25.46-.37.7-.12.24-.25.46-.35.73-.11.26-.23.52-.33.78l-.29.79c-.36,1.07-.61,2.16-.77,3.26-.64,4.4.55,8.89,3.28,12.42.67.89,1.45,1.71,2.29,2.48.41.39.87.74,1.32,1.11.47.33.93.69,1.43.99,1.96,1.28,4.19,2.25,6.53,2.99l.89.25c.3.08.6.18.89.24l.89.21c.29.08.6.11.9.17,1.21.24,2.45.36,3.7.47,2.52.17,5.1.1,7.69-.16,2.59-.26,5.2-.71,7.78-1.32,2.59-.61,5.15-1.37,7.69-2.26,2.53-.89,5.03-1.91,7.46-3.04,2.44-1.14,4.82-2.38,7.12-3.74,1.74-1.03,3.54-1.57,5.15-1.62.4-.01.79.01,1.16.07.37.05.72.14,1.05.26.66.24,1.22.62,1.63,1.16.41.54.62,1.18.64,1.89.01.36-.03.73-.11,1.12-.09.38-.22.77-.4,1.17-.71,1.58-2.16,3.2-4.13,4.37-2.6,1.54-5.27,2.93-7.99,4.2-2.72,1.27-5.5,2.41-8.34,3.4-2.84,1-5.74,1.86-8.69,2.55-2.95.7-5.97,1.23-9.04,1.54-3.07.31-6.2.4-9.36.18-1.58-.13-3.17-.3-4.76-.6-.4-.08-.79-.13-1.19-.23l-1.19-.28c-.4-.09-.78-.2-1.17-.31-.39-.11-.77-.22-1.16-.33-3.08-.97-6.12-2.28-8.94-4.11-.71-.44-1.39-.95-2.07-1.44-.66-.53-1.33-1.05-1.95-1.63-1.26-1.15-2.45-2.4-3.49-3.78-2.1-2.75-3.72-5.93-4.59-9.33-.89-3.39-1.1-6.96-.61-10.39.24-1.72.65-3.41,1.19-5.04l.44-1.21c.15-.4.33-.79.5-1.18.16-.39.37-.79.57-1.19.21-.4.39-.8.64-1.18,1.8-3.12,4.37-5.77,7.15-7.73,2.78-2,5.74-3.38,8.67-4.51,2.93-1.1,5.86-1.93,8.75-2.64,5.79-1.39,11.49-2.33,17.11-3.28,2.81-.47,5.6-.94,8.36-1.44l2.07-.38,1.03-.19.99-.2.99-.2c.33-.07.66-.13.98-.22l1.95-.47c2.57-.67,5.08-1.48,7.48-2.46,2.39-.98,4.67-2.13,6.73-3.48,4.14-2.68,7.31-6.29,8.44-10.3.28-1,.47-2.02.5-3.06.03-.26.01-.52,0-.78,0-.26,0-.52-.03-.78l-.07-.79-.13-.79c-.21-1.05-.5-2.1-.94-3.14-.09-.26-.23-.51-.34-.77-.12-.26-.23-.52-.37-.77l-.4-.76c-.14-.21-.27-.42-.4-.63-.57-.82-1.23-1.63-2.02-2.36-.19-.19-.41-.35-.61-.53l-.31-.27-.33-.24c-.22-.16-.44-.33-.67-.49l-.7-.45c-.96-.57-1.96-1.09-3.03-1.48-.52-.22-1.08-.37-1.62-.55-.27-.09-.55-.14-.83-.21l-.42-.1-.21-.05-.21-.04c-2.25-.43-4.59-.51-6.89-.19-2.3.33-4.57,1.02-6.73,2.03-2.16,1.01-4.22,2.35-6.13,3.93-1.91,1.58-3.7,3.38-5.31,5.39-1.61,2-3.13,4.13-4.45,6.41l-.51.85-.57.97-.59.99-.61.97c-.21.32-.41.65-.62.97l-.64.95c-.42.64-.88,1.26-1.32,1.87-3.62,4.93-7.85,9.39-12.59,13.25-4.74,3.85-9.99,7.12-15.65,9.58-5.65,2.46-11.73,4.11-17.97,4.67-.39.05-.78.07-1.17.09l-1.17.07c-.78.04-1.57.04-2.35.06-.78,0-1.57-.03-2.35-.05-.78-.04-1.55-.1-2.33-.15-3.1-.26-6.22-.76-9.3-1.61-3.08-.85-6.13-2.06-9.01-3.71-2.87-1.65-5.57-3.75-7.84-6.31l-.83-.98c-.14-.17-.28-.33-.41-.5l-.38-.52-.75-1.05-.69-1.1-.34-.55c-.11-.19-.2-.38-.31-.57l-.6-1.15c-.18-.39-.35-.79-.53-1.19l-.26-.6-.22-.61-.43-1.23-.35-1.26c-.06-.21-.12-.42-.17-.63l-.13-.64c-.08-.43-.18-.85-.25-1.28-.11-.86-.25-1.72-.28-2.59l-.04-.65-.02-.33v-.33s.01-1.31.01-1.31c.23-6.96,3.29-13.79,8.41-18.55,1.26-1.18,2.62-2.24,4.03-3.16,1.41-.91,2.87-1.7,4.34-2.4,2.95-1.37,5.95-2.34,8.92-3.1,5.95-1.5,11.8-2.2,17.52-2.84,5.72-.62,11.33-1.12,16.73-1.97,1.35-.21,2.68-.45,3.99-.71,1.31-.27,2.6-.57,3.86-.9,1.26-.34,2.48-.72,3.67-1.15,1.18-.44,2.31-.92,3.38-1.46,1.08-.53,2.07-1.15,3-1.81.92-.67,1.77-1.38,2.51-2.19.74-.8,1.4-1.66,1.97-2.59.58-.92,1.03-1.93,1.43-2.99.09-.27.2-.54.28-.8.07-.26.16-.51.22-.77.06-.26.13-.52.18-.77.02-.13.06-.26.08-.39l.06-.39c.15-1.04.17-2.08.07-3.11-.04-.52-.14-1.03-.24-1.54-.12-.51-.25-1.02-.43-1.52-.34-1-.79-1.98-1.37-2.92-1.13-1.88-2.68-3.62-4.51-5.12-1.83-1.5-3.93-2.77-6.19-3.81-4.52-2.07-9.62-3.2-14.81-3.57-5.2-.36-10.53.01-15.78.98Z"/>
        <path id="maze3" d="M56.04,161.84c.05,0,.1,0,.15.01,1.31-4.59,3.85-8.84,7.36-12.11,1.26-1.18,2.61-2.23,4.01-3.15,1.41-.91,2.86-1.7,4.32-2.39,2.94-1.36,5.93-2.33,8.9-3.09,5.94-1.5,11.78-2.2,17.5-2.83,5.72-.62,11.33-1.12,16.73-1.97,1.35-.21,2.68-.45,4-.71,1.31-.27,2.6-.57,3.87-.9,1.26-.34,2.49-.72,3.68-1.15,1.18-.44,2.32-.92,3.4-1.46,1.08-.54,2.08-1.15,3.01-1.82.92-.67,1.78-1.39,2.53-2.2.75-.8,1.41-1.67,1.98-2.61.59-.93,1.04-1.95,1.44-3.01.09-.27.2-.54.28-.8.07-.26.17-.52.22-.78.07-.26.13-.52.18-.78.02-.13.06-.26.08-.39l.06-.39c.15-1.05.17-2.1.07-3.14-.04-.52-.14-1.04-.24-1.55-.12-.51-.25-1.03-.43-1.53-.34-1.01-.8-2-1.38-2.95-1.14-1.9-2.7-3.65-4.54-5.15-1.84-1.51-3.95-2.78-6.21-3.83-4.54-2.08-9.65-3.21-14.86-3.58-5.22-.37-10.55.01-15.81.98-1.94.35-3.8.22-5.3-.28-.75-.26-1.4-.62-1.91-1.07-.51-.45-.88-1-1.06-1.63-.18-.63-.14-1.29.1-1.95.23-.65.65-1.3,1.25-1.89,1.17-1.19,3.03-2.15,5.22-2.55,5.93-1.08,12.04-1.54,18.19-1.11,6.13.44,12.33,1.76,18.16,4.42,2.91,1.34,5.71,3.02,8.28,5.12,2.56,2.09,4.88,4.63,6.67,7.62.9,1.49,1.65,3.09,2.22,4.78.29.84.52,1.71.72,2.58.1.51.2,1.01.27,1.52.03,0,.06,0,.09.02.02,0,.05.01.07.02.04,0,.07.02.11.03-.08-.55-.18-1.1-.29-1.65-.2-.88-.43-1.76-.73-2.61-.58-1.7-1.34-3.32-2.25-4.82-1.81-3.01-4.15-5.57-6.73-7.68-2.58-2.12-5.41-3.8-8.33-5.15-5.86-2.68-12.09-4.01-18.25-4.45-6.17-.43-12.3.02-18.25,1.11-2.31.42-4.27,1.44-5.5,2.7-1.24,1.25-1.78,2.71-1.4,4.04.38,1.33,1.57,2.3,3.14,2.83,1.57.53,3.53.67,5.56.29,5.24-.96,10.56-1.34,15.75-.97,5.18.36,10.26,1.49,14.77,3.56,2.25,1.03,4.34,2.3,6.16,3.79,1.83,1.49,3.36,3.21,4.49,5.08.57.93,1.02,1.91,1.35,2.9.18.49.3,1,.42,1.5.1.51.19,1.01.23,1.53.1,1.02.08,2.05-.07,3.08l-.06.39c-.02.13-.05.26-.07.38-.04.26-.11.51-.17.77-.05.26-.15.51-.22.76-.08.26-.19.53-.28.79-.4,1.05-.84,2.05-1.42,2.97-.57.92-1.22,1.77-1.95,2.57-.73.79-1.58,1.51-2.49,2.17-.92.66-1.9,1.27-2.98,1.8-1.07.54-2.2,1.02-3.37,1.45-1.18.42-2.41.8-3.66,1.14-1.26.33-2.54.63-3.85.9-1.31.26-2.64.5-3.99.71-5.39.84-11,1.34-16.72,1.97-5.72.64-11.58,1.34-17.54,2.84-2.98.76-5.98,1.73-8.94,3.1-1.48.69-2.94,1.49-4.36,2.41-1.42.92-2.78,1.99-4.05,3.17-3.56,3.31-6.13,7.62-7.45,12.28.04,0,.07,0,.11,0Z"/>
        <path id="maze2" d="M64.74,170.21c.01.56.11,1.11.18,1.66.04.28.11.55.16.82l.08.41c.03.14.07.27.11.4l.22.81.28.79.14.4.17.38.34.77.39.74c.07.12.13.25.2.37l.22.36.44.72.5.69.25.35c.09.11.18.22.27.33l.55.66c1.52,1.71,3.38,3.16,5.45,4.36,2.07,1.19,4.36,2.11,6.77,2.78,2.41.67,4.94,1.08,7.52,1.3.65.04,1.3.1,1.94.13.64,0,1.28.04,1.92.04.64-.02,1.28-.01,1.92-.05l.96-.06c.32-.02.64-.03.96-.07,5.12-.46,10.19-1.82,14.98-3.91,9.59-4.18,18.07-11.17,24.3-19.68.39-.53.78-1.06,1.14-1.62l.56-.82c.18-.27.35-.55.53-.83l.53-.83.5-.85,1.11-1.85c1.53-2.64,3.31-5.16,5.27-7.59,1.95-2.43,4.17-4.69,6.64-6.73,2.47-2.04,5.2-3.83,8.18-5.23,2.98-1.4,6.2-2.39,9.52-2.85,3.32-.46,6.74-.35,10.06.29l.31.06.31.07.62.15c.41.11.83.19,1.23.32.81.25,1.63.49,2.41.82,1.13.42,2.24.94,3.31,1.52.01-.04.03-.07.04-.11.02-.04.04-.08.06-.12-1.08-.58-2.18-1.1-3.32-1.52-.8-.33-1.62-.57-2.43-.82-.41-.13-.83-.21-1.24-.32l-.62-.15-.31-.07-.31-.06c-3.35-.64-6.79-.75-10.14-.29-3.35.47-6.59,1.47-9.59,2.88-3,1.41-5.76,3.21-8.24,5.26-2.48,2.05-4.72,4.33-6.67,6.77-1.96,2.43-3.75,4.97-5.29,7.62l-1.11,1.85-.5.85-.53.83c-.18.28-.35.56-.53.83l-.55.81c-.36.55-.75,1.08-1.14,1.61-6.21,8.48-14.66,15.44-24.2,19.6-4.77,2.08-9.81,3.43-14.9,3.89-.32.04-.64.05-.96.07l-.96.06c-.64.04-1.28.03-1.91.05-.64,0-1.27-.03-1.91-.04-.64-.03-1.29-.09-1.93-.13-2.56-.22-5.08-.63-7.47-1.29-2.39-.66-4.66-1.57-6.71-2.75-2.05-1.18-3.88-2.62-5.38-4.31l-.54-.65c-.09-.11-.18-.21-.27-.32l-.24-.34-.49-.68-.44-.71-.22-.35c-.07-.12-.13-.25-.19-.37l-.39-.73-.33-.76-.17-.38-.14-.39-.28-.78-.22-.8c-.04-.13-.08-.26-.11-.4l-.08-.4c-.05-.27-.12-.54-.16-.81-.06-.55-.16-1.09-.17-1.64l-.03-.41v-.21s-.01-.21-.01-.21v-.82c.16-4.39,2.08-8.7,5.3-11.68.81-.75,1.69-1.46,2.66-2.09.97-.63,2.02-1.2,3.11-1.72,2.21-1.02,4.63-1.83,7.17-2.47,5.09-1.29,10.57-1.97,16.15-2.59,5.6-.61,11.33-1.12,17.19-2.03,1.46-.23,2.94-.49,4.42-.79,1.48-.3,2.97-.65,4.46-1.04,1.49-.41,2.99-.87,4.49-1.41,1.5-.55,2.99-1.18,4.47-1.93,1.48-.73,2.93-1.62,4.32-2.61,1.39-1.01,2.73-2.14,3.93-3.43,1.21-1.29,2.29-2.71,3.21-4.22.94-1.5,1.66-3.11,2.27-4.72.14-.41.29-.8.43-1.22.05-.17.1-.35.16-.52-.02,0-.04-.01-.07-.02-.04,0-.08-.02-.12-.03-.02,0-.03-.02-.05-.02-.05.17-.11.35-.16.52-.13.42-.28.81-.42,1.21-.6,1.6-1.32,3.19-2.24,4.68-.91,1.49-1.98,2.9-3.18,4.17-1.19,1.28-2.52,2.4-3.9,3.4-1.38.99-2.82,1.87-4.28,2.59-1.46.74-2.95,1.36-4.44,1.91-1.49.54-2.98.99-4.47,1.4-1.49.39-2.97.74-4.45,1.04-1.48.29-2.95.56-4.41.78-5.85.91-11.58,1.42-17.18,2.03-5.59.62-11.08,1.3-16.19,2.6-2.55.65-4.99,1.46-7.22,2.49-1.11.52-2.16,1.1-3.15,1.73-.98.64-1.88,1.35-2.7,2.11-3.26,3.02-5.22,7.4-5.37,11.85v.84s-.01.21-.01.21v.21s.04.42.04.42Z"/>
        <path id="maze1" d="M201.29,157.24c-.34-1.75-.84-3.45-1.5-5.06-.15-.41-.35-.79-.52-1.19-.18-.39-.36-.79-.57-1.16l-.61-1.13-.74-1.19c-.45-.66-.93-1.3-1.43-1.91,0,.03-.02.07-.02.1-.01.07-.04.12-.06.18.46.56.9,1.15,1.31,1.76l.74,1.17.6,1.12c.21.37.38.76.56,1.15.17.39.37.77.52,1.18.66,1.59,1.15,3.28,1.49,5.01.65,3.47.54,7.19-.48,10.64-.23.87-.56,1.7-.87,2.53-.37.81-.72,1.63-1.16,2.38-.41.78-.89,1.5-1.37,2.23-.24.36-.51.69-.77,1.04l-.39.51c-.13.17-.27.33-.41.49l-.83.97c-.29.31-.58.6-.88.91l-.44.45c-.15.15-.31.28-.46.42l-.92.84c-.31.28-.63.52-.95.78-.32.25-.64.52-.97.76l-.99.71-.5.35-.51.33c-2.69,1.76-5.52,3.18-8.38,4.35-2.87,1.17-5.79,2.1-8.72,2.87l-2.2.53c-.37.09-.73.17-1.1.24l-1.1.23-1.1.23-1.06.2-2.13.39c-2.83.51-5.66.99-8.46,1.46-5.6.95-11.15,1.88-16.44,3.15-2.63.64-5.2,1.38-7.6,2.29-2.38.92-4.62,2-6.48,3.34-.93.67-1.79,1.38-2.51,2.18-.09.1-.19.19-.28.29l-.25.31c-.17.21-.36.4-.5.62l-.46.64-.41.68c-.15.22-.25.47-.38.7-.12.24-.25.46-.36.74-.11.26-.23.52-.33.79l-.29.8c-.36,1.07-.62,2.17-.78,3.28-.65,4.43.56,8.96,3.3,12.52.67.9,1.46,1.72,2.31,2.5.42.39.88.75,1.33,1.11.48.34.94.7,1.44,1,1.97,1.29,4.21,2.26,6.56,3.01l.9.25c.3.08.6.18.9.24l.89.21c.3.08.61.11.91.17,1.21.24,2.46.36,3.72.47,2.52.18,5.11.1,7.71-.16,2.6-.26,5.21-.71,7.8-1.33,2.59-.61,5.16-1.37,7.7-2.26,2.54-.89,5.03-1.91,7.47-3.05,2.44-1.14,4.83-2.38,7.13-3.75,1.7-1,3.46-1.54,5.03-1.58,1.57-.03,2.94.4,3.73,1.45.4.53.6,1.15.62,1.85.02.7-.15,1.45-.5,2.22-.69,1.53-2.1,3.12-4.02,4.25-2.59,1.54-5.26,2.93-7.98,4.2-2.72,1.27-5.5,2.4-8.33,3.4-2.84.99-5.73,1.85-8.68,2.55-2.95.7-5.96,1.23-9.02,1.53-3.06.3-6.19.4-9.34.18-1.58-.13-3.16-.3-4.75-.6-.4-.08-.79-.13-1.19-.23l-1.19-.27c-.4-.09-.78-.2-1.17-.31-.39-.11-.77-.22-1.16-.33-3.07-.97-6.1-2.27-8.91-4.1-.71-.44-1.38-.94-2.06-1.44-.66-.53-1.32-1.05-1.95-1.63-1.25-1.14-2.44-2.39-3.48-3.77-2.09-2.74-3.7-5.91-4.57-9.29-.89-3.37-1.1-6.92-.6-10.34.24-1.71.64-3.39,1.19-5.02l.44-1.2c.15-.4.33-.79.5-1.18.16-.39.37-.79.57-1.19.21-.39.39-.8.63-1.18,1.79-3.1,4.34-5.74,7.11-7.69,2.77-1.99,5.72-3.37,8.64-4.5,2.92-1.1,5.84-1.93,8.74-2.64,5.79-1.39,11.48-2.33,17.1-3.28,2.81-.47,5.6-.94,8.37-1.44l2.07-.38,1.03-.19.99-.2.99-.2c.33-.07.66-.13.98-.22l1.95-.47c2.58-.67,5.09-1.48,7.49-2.46,2.4-.98,4.68-2.14,6.75-3.49,4.15-2.69,7.35-6.32,8.49-10.37.29-1.01.48-2.04.5-3.09.03-.26.01-.52,0-.79,0-.26,0-.53-.03-.79l-.07-.79-.13-.8c-.21-1.06-.51-2.12-.94-3.16-.09-.26-.23-.52-.34-.78-.12-.26-.23-.52-.38-.77l-.41-.76c-.14-.21-.27-.42-.4-.63-.57-.83-1.25-1.65-2.04-2.38-.19-.19-.41-.35-.62-.53l-.31-.27-.34-.25c-.23-.16-.44-.33-.67-.49l-.71-.45c-.97-.57-1.98-1.1-3.05-1.49-.53-.23-1.08-.37-1.63-.55-.27-.09-.56-.14-.84-.21l-.42-.1-.21-.05-.21-.04c-2.27-.43-4.61-.51-6.93-.19-2.32.33-4.6,1.02-6.77,2.04-2.17,1.02-4.24,2.36-6.16,3.95-1.92,1.59-3.71,3.4-5.33,5.41-1.61,2.01-3.13,4.14-4.46,6.43l-.51.85-.57.96-.58.99-.61.97c-.21.32-.41.65-.62.97l-.64.95c-.42.64-.87,1.25-1.32,1.87-3.61,4.93-7.83,9.38-12.57,13.23-4.73,3.85-9.98,7.11-15.63,9.56-5.64,2.46-11.71,4.1-17.93,4.66-.39.05-.78.07-1.17.09l-1.17.07c-.78.04-1.56.04-2.34.06-.78,0-1.56-.03-2.35-.05-.78-.04-1.55-.1-2.32-.15-3.09-.26-6.2-.76-9.28-1.61-3.07-.85-6.11-2.05-8.98-3.7-2.86-1.65-5.54-3.74-7.81-6.28l-.82-.98c-.14-.16-.27-.33-.41-.49l-.38-.52-.75-1.04-.68-1.09-.34-.55c-.11-.19-.2-.38-.31-.57l-.6-1.15c-.18-.39-.35-.79-.52-1.18l-.26-.59-.22-.61-.43-1.22-.35-1.25c-.06-.21-.12-.42-.17-.63l-.13-.64c-.08-.42-.18-.85-.25-1.27-.09-.69-.19-1.38-.25-2.07-.08,0-.17,0-.25,0,.05.71.16,1.41.25,2.11.07.43.17.86.25,1.29l.13.64c.05.21.11.42.17.63l.35,1.26.44,1.23.22.61.26.6c.18.4.35.8.53,1.19l.6,1.16c.1.19.2.39.31.57l.34.55.69,1.1.76,1.05.38.52c.13.17.27.33.41.5l.83.99c2.29,2.57,5,4.67,7.87,6.34,2.88,1.66,5.94,2.87,9.03,3.73,3.09.85,6.22,1.36,9.33,1.62.78.05,1.55.12,2.33.15.79.02,1.57.05,2.36.05.78-.02,1.57-.02,2.35-.06l1.17-.07c.39-.02.78-.04,1.17-.09,6.25-.56,12.34-2.21,18-4.68,5.67-2.47,10.93-5.74,15.68-9.6,4.75-3.86,8.99-8.33,12.61-13.27.45-.62.9-1.24,1.33-1.88l.65-.95c.21-.32.41-.65.62-.97l.62-.97.59-.99.57-.97.51-.84c1.32-2.28,2.83-4.4,4.44-6.4,1.6-2,3.39-3.8,5.29-5.38,1.91-1.57,3.95-2.91,6.11-3.91,2.15-1.01,4.41-1.7,6.7-2.02,2.29-.32,4.61-.23,6.85.19l.21.04.21.05.41.1c.27.07.56.12.83.21.54.18,1.09.32,1.61.55,1.06.39,2.06.91,3.01,1.47l.7.44c.23.15.44.32.66.48l.33.24.31.26c.2.18.42.34.61.53.78.72,1.45,1.52,2.01,2.34.13.21.26.41.39.62l.4.75c.14.25.26.5.37.76.11.26.25.51.34.77.43,1.03.72,2.07.93,3.11l.13.78.07.78c.04.26.02.52.03.78,0,.26.02.52,0,.77-.03,1.03-.21,2.04-.49,3.03-1.12,3.97-4.27,7.56-8.39,10.23-2.05,1.35-4.32,2.49-6.71,3.47-2.39.98-4.89,1.78-7.46,2.45l-1.94.47c-.32.08-.65.15-.98.22l-.98.2-.98.2-1.03.19-2.07.38c-2.77.5-5.55.97-8.36,1.44-5.62.96-11.32,1.89-17.12,3.29-2.9.71-5.83,1.55-8.77,2.65-2.93,1.14-5.9,2.52-8.69,4.53-2.79,1.97-5.37,4.63-7.18,7.77-.24.38-.43.79-.64,1.19-.2.4-.42.81-.57,1.2-.17.4-.35.79-.5,1.19l-.45,1.22c-.55,1.64-.96,3.34-1.2,5.06-.5,3.45-.29,7.04.61,10.44.88,3.41,2.51,6.61,4.61,9.37,1.05,1.39,2.24,2.64,3.51,3.8.63.59,1.3,1.11,1.96,1.64.69.5,1.36,1.01,2.08,1.45,2.83,1.84,5.88,3.15,8.97,4.13.39.12.78.22,1.16.33.39.11.77.22,1.18.31l1.19.28c.4.1.8.15,1.19.23,1.6.31,3.19.47,4.78.6,3.17.22,6.31.12,9.39-.18,3.08-.31,6.1-.84,9.06-1.54,2.96-.7,5.86-1.56,8.7-2.56,2.84-1,5.63-2.14,8.35-3.41,2.73-1.27,5.4-2.66,8-4.21,2.02-1.19,3.51-2.86,4.24-4.49.37-.81.54-1.61.52-2.34-.02-.73-.24-1.39-.66-1.94-.42-.55-1-.94-1.67-1.19-.67-.25-1.44-.35-2.27-.33-1.64.05-3.49.61-5.27,1.66-2.29,1.36-4.68,2.6-7.11,3.74-2.43,1.13-4.92,2.15-7.45,3.04-2.53.89-5.09,1.65-7.67,2.26-2.58.61-5.18,1.07-7.77,1.32-2.59.26-5.16.33-7.67.16-1.25-.11-2.49-.23-3.69-.47-.3-.06-.61-.1-.9-.17l-.89-.21c-.3-.06-.59-.15-.89-.24l-.89-.25c-2.33-.74-4.55-1.7-6.5-2.98-.5-.3-.95-.66-1.43-.99-.44-.36-.9-.71-1.31-1.1-.83-.76-1.62-1.57-2.28-2.46-2.71-3.51-3.89-7.96-3.26-12.33.15-1.09.41-2.17.77-3.23l.29-.79c.1-.26.22-.52.33-.78.11-.27.23-.49.35-.73.12-.23.22-.48.37-.69l.4-.67.46-.63c.14-.22.33-.41.49-.61l.25-.3c.08-.1.18-.19.27-.29.71-.78,1.56-1.48,2.47-2.14,1.83-1.32,4.06-2.39,6.42-3.31,2.39-.9,4.94-1.64,7.57-2.28,5.27-1.27,10.82-2.19,16.42-3.14,2.8-.47,5.63-.95,8.47-1.46l2.13-.39,1.07-.2,1.11-.23,1.11-.23c.37-.07.74-.15,1.11-.24l2.21-.53c2.94-.77,5.87-1.7,8.75-2.88,2.88-1.18,5.72-2.6,8.43-4.38l.51-.33.5-.36.99-.72c.33-.24.65-.51.97-.76.32-.26.65-.51.96-.79l.93-.84c.15-.14.31-.28.46-.43l.45-.45c.3-.3.59-.6.88-.91l.84-.97c.14-.16.28-.32.41-.49l.39-.52c.26-.35.53-.69.77-1.05.48-.74.97-1.46,1.38-2.25.45-.76.8-1.59,1.17-2.41.32-.84.65-1.68.88-2.56,1.03-3.48,1.14-7.25.48-10.75Z"/>
      </g>
    </g>
    <g>
      <path class="cls-3" d="M35.36,103.71c-.34.08-1.58-.87-.29-1.15,1.29-.28,1.27.85.76,1.1l-.46.04Z"/>
      <path class="cls-3" d="M35.32,103.83s-.44-.49-1.16-.54c-.71-.05-1.39.4-.88.84.5.44,1.66.16,2.04-.3Z"/>
      <path class="cls-3" d="M35.7,103.8s.01-.4.66-.68c.65-.28,1.49.09.89.58-.6.49-1.7.41-1.56.1Z"/>
      <path class="cls-3" d="M35.85,103.89s1.29.01,1.54.33c.24.32-.42.78-1.36.28-.94-.5-.47-.7-.17-.61Z"/>
      <path class="cls-3" d="M35.32,103.78s-1.67,1.11-.38,1.33c1.21.21,1.03-1.05.52-1.27-.57-.25.02-.22-.14-.07Z"/>
      <path class="cls-6" d="M35.32,103.51c.33-.09.7.03.78.29.08.26-.71.52-1.11.31-.4-.21-.02-.5.34-.6Z"/>
    </g>
    <g>
      <path class="cls-3" d="M162.91,172.6c-.34.07-1.58-.87-.29-1.15,1.29-.28,1.27.85.76,1.1l-.46.04Z"/>
      <path class="cls-3" d="M162.87,172.73s-.44-.49-1.16-.54c-.72-.05-1.39.4-.88.84.51.44,1.66.17,2.04-.3Z"/>
      <path class="cls-3" d="M163.25,172.69s.01-.4.67-.68c.65-.28,1.49.09.89.58-.6.49-1.7.41-1.56.1Z"/>
      <path class="cls-3" d="M163.4,172.78s1.29.01,1.54.33c.24.32-.42.78-1.36.28-.94-.5-.47-.7-.17-.61Z"/>
      <path class="cls-3" d="M162.87,172.67s-1.67,1.11-.38,1.33c1.21.21,1.03-1.05.52-1.27-.57-.25.02-.22-.14-.07Z"/>
      <path class="cls-6" d="M162.87,172.4c.33-.09.7.03.78.29.08.26-.71.52-1.11.31-.4-.21-.02-.5.33-.6Z"/>
    </g>
    <g>
      <path class="cls-3" d="M132.18,227.85c-.34.07-1.58-.87-.29-1.15,1.29-.28,1.27.85.76,1.1l-.46.04Z"/>
      <path class="cls-3" d="M132.14,227.97s-.44-.49-1.16-.54c-.72-.05-1.39.4-.88.84s1.66.17,2.04-.3Z"/>
      <path class="cls-3" d="M132.51,227.94s.01-.4.66-.68c.65-.28,1.49.09.89.58-.6.49-1.7.41-1.56.1Z"/>
      <path class="cls-3" d="M132.66,228.02s1.29.01,1.54.33c.24.32-.42.78-1.36.28-.94-.5-.47-.7-.17-.61Z"/>
      <path class="cls-3" d="M132.14,227.92s-1.67,1.11-.38,1.33c1.21.21,1.03-1.05.52-1.27-.57-.25.02-.22-.14-.07Z"/>
      <path class="cls-6" d="M132.14,227.64c.33-.09.7.03.78.29.08.26-.71.52-1.11.31-.4-.21-.02-.5.33-.6Z"/>
    </g>
    <g>
      <path class="cls-3" d="M112.77,123.41c-.34.08-1.58-.87-.29-1.15,1.29-.28,1.27.85.76,1.1l-.46.04Z"/>
      <path class="cls-3" d="M112.73,123.53s-.44-.49-1.16-.54c-.72-.05-1.39.4-.88.84s1.66.16,2.04-.3Z"/>
      <path class="cls-3" d="M113.11,123.49s.01-.4.66-.68c.65-.28,1.49.09.89.58-.6.49-1.7.41-1.56.1Z"/>
      <path class="cls-3" d="M113.26,123.58s1.29.01,1.54.33c.24.32-.42.78-1.36.28-.94-.5-.47-.7-.17-.61Z"/>
      <path class="cls-3" d="M112.73,123.48s-1.67,1.11-.38,1.33c1.21.21,1.03-1.05.52-1.27-.57-.25.02-.22-.14-.07Z"/>
      <path class="cls-6" d="M112.73,123.2c.33-.09.7.03.78.29.08.26-.71.52-1.11.31-.4-.21-.02-.5.33-.6Z"/>
    </g>
    <g>
      <path class="cls-3" d="M66.6,113.23c-.34.08-1.58-.87-.29-1.15,1.29-.28,1.27.85.76,1.1l-.46.04Z"/>
      <path class="cls-3" d="M66.56,113.35s-.44-.49-1.16-.54c-.72-.05-1.39.4-.88.84.51.44,1.66.16,2.04-.3Z"/>
      <path class="cls-3" d="M66.93,113.31s.01-.4.67-.68c.65-.28,1.49.09.89.58-.6.49-1.7.41-1.56.1Z"/>
      <path class="cls-3" d="M67.08,113.4s1.29.01,1.54.33c.24.32-.42.78-1.36.28-.94-.5-.47-.7-.17-.61Z"/>
      <path class="cls-3" d="M66.56,113.29s-1.67,1.11-.38,1.33c1.21.21,1.03-1.05.52-1.27-.57-.25.02-.22-.14-.07Z"/>
      <path class="cls-6" d="M66.56,113.02c.33-.09.7.03.78.29.08.26-.71.52-1.11.31-.4-.21-.02-.5.33-.6Z"/>
    </g>
    <g>
      <path class="cls-3" d="M130.12,153.04c-.3.07-1.4-.77-.26-1.02,1.14-.25,1.13.75.67.98l-.41.04Z"/>
      <path class="cls-3" d="M130.09,153.14s-.39-.43-1.03-.48c-.63-.04-1.23.35-.78.74.45.39,1.47.15,1.81-.27Z"/>
      <path class="cls-3" d="M130.42,153.11s.01-.35.59-.6c.58-.25,1.32.08.79.51-.53.44-1.5.36-1.38.09Z"/>
      <path class="cls-3" d="M130.55,153.19s1.15.01,1.36.3c.21.29-.38.69-1.21.25-.83-.44-.42-.62-.15-.54Z"/>
      <path class="cls-3" d="M130.09,153.1s-1.48.98-.34,1.18c1.07.19.91-.93.46-1.12-.5-.22.02-.19-.13-.06Z"/>
      <path class="cls-6" d="M130.09,152.85c.3-.08.62.03.69.25.07.23-.63.46-.99.28-.36-.18-.02-.44.3-.53Z"/>
    </g>
    <g>
      <path class="cls-3" d="M259.26,202.7c-.3.07-1.4-.77-.26-1.02,1.14-.25,1.13.75.67.98l-.41.04Z"/>
      <path class="cls-3" d="M259.23,202.81s-.39-.43-1.03-.48c-.63-.04-1.23.35-.78.74.45.39,1.47.15,1.81-.27Z"/>
      <path class="cls-3" d="M259.56,202.78s.01-.35.59-.6c.58-.25,1.32.08.79.51s-1.5.36-1.38.09Z"/>
      <path class="cls-3" d="M259.69,202.86s1.15.01,1.36.3c.21.29-.38.69-1.21.25-.83-.44-.42-.62-.15-.54Z"/>
      <path class="cls-3" d="M259.23,202.76s-1.48.98-.34,1.18c1.07.19.91-.93.46-1.12-.5-.22.02-.19-.13-.06Z"/>
      <path class="cls-6" d="M259.23,202.52c.3-.08.62.03.69.25.07.23-.63.46-.99.28-.36-.18-.02-.44.3-.53Z"/>
    </g>
    <g>
      <path class="cls-3" d="M218.69,161.56c-.3.07-1.4-.77-.26-1.02,1.14-.25,1.13.75.67.98l-.41.04Z"/>
      <path class="cls-3" d="M218.66,161.67s-.39-.43-1.03-.48c-.63-.04-1.23.35-.78.74.45.39,1.47.15,1.81-.27Z"/>
      <path class="cls-3" d="M218.99,161.64s.01-.35.59-.6c.58-.25,1.32.08.79.51-.53.44-1.5.36-1.38.09Z"/>
      <path class="cls-3" d="M219.13,161.72s1.15.01,1.36.3c.21.29-.38.69-1.21.25-.83-.44-.42-.62-.15-.54Z"/>
      <path class="cls-3" d="M218.66,161.62s-1.48.98-.34,1.18c1.07.19.91-.93.46-1.12-.5-.22.02-.19-.13-.06Z"/>
      <path class="cls-6" d="M218.66,161.38c.3-.08.62.03.69.25.07.23-.63.46-.99.28-.36-.18-.02-.44.3-.53Z"/>
    </g>
    <g>
      <path class="cls-3" d="M187.79,119.11c-.3.07-1.4-.77-.26-1.02,1.14-.25,1.13.75.67.98l-.41.04Z"/>
      <path class="cls-3" d="M187.76,119.22s-.39-.43-1.03-.48c-.63-.04-1.23.35-.78.74.45.39,1.47.15,1.81-.27Z"/>
      <path class="cls-3" d="M188.09,119.19s.01-.35.59-.6c.58-.25,1.32.08.79.51-.53.44-1.5.36-1.38.09Z"/>
      <path class="cls-3" d="M188.22,119.27s1.15.01,1.36.3c.21.29-.38.69-1.21.25-.83-.44-.42-.62-.15-.54Z"/>
      <path class="cls-3" d="M187.76,119.17s-1.48.98-.34,1.18c1.07.19.91-.93.46-1.12-.5-.22.02-.19-.13-.06Z"/>
      <path class="cls-6" d="M187.76,118.93c.3-.08.62.03.69.25.07.23-.63.46-.99.28-.36-.18-.02-.44.3-.53Z"/>
    </g>
  </g>
</svg>