<?xml version="1.0" encoding="UTF-8"?>
<svg xmlns="http://www.w3.org/2000/svg" viewBox="0 0 297.34 267.16">
  <defs>
    <style>
      .cls-1 {
        fill: #7c6a59;
      }

      .cls-2, .cls-3 {
        fill: none;
      }

      .cls-3 {
        stroke: #000;
        stroke-miterlimit: 10;
        stroke-width: .35px;
      }

      .cls-4 {
        fill: #fffaee;
      }

      .cls-5 {
        fill: #ffdede;
      }

      .cls-6 {
        fill: #ff9494;
      }

      .cls-7 {
        fill: #e55151;
      }

      .cls-8 {
        fill: #febc18;
      }
    </style>
  </defs>
  <g id="Layer_1" data-name="Layer 1">
    <g>
      <g>
        <g>
          <rect class="cls-6" width="297.34" height="267.16" rx="18.44" ry="18.44"/>
          <path class="cls-7" d="M56.96,13.65h187.78c24.18,0,43.82,19.63,43.82,43.82v156.65c0,24.18-19.63,43.82-43.82,43.82H56.96c-24.18,0-43.82-19.63-43.82-43.82V57.47c0-24.18,19.63-43.82,43.82-43.82Z"/>
          <path class="cls-4" d="M54.78,11.44h187.78c24.18,0,43.82,19.63,43.82,43.82v156.65c0,24.18-19.63,43.82-43.82,43.82H54.78c-24.18,0-43.82-19.63-43.82-43.82V55.26c0-24.18,19.63-43.82,43.82-43.82Z"/>
        </g>
        <g>
          <path class="cls-7" d="M74.01,3.51c-10.18,0-18.44,8.26-18.44,18.44v12.08c0,8.54,5.17,15.52,11.48,15.52h167.6c6.32,0,11.48-6.99,11.48-15.52v-12.08c0-10.18-8.26-18.44-18.44-18.44H74.01Z"/>
          <path class="cls-6" d="M74.01,0c-10.18,0-18.44,8.26-18.44,18.44v12.08c0,8.54,5.17,15.53,11.48,15.53h167.6c6.32,0,11.48-6.99,11.48-15.53v-12.08c0-10.18-8.26-18.44-18.44-18.44H74.01Z"/>
        </g>
      </g>
      <g>
        <g>
          <path id="evilPath" class="cls-1" d="M250.78,165.36h10.53c-.07.24-.13.48-.2.71-.34,1.03-.75,2.03-1.22,2.99-.48.95-1.01,1.87-1.59,2.75-2.35,3.49-5.45,6.31-9.04,8.36-1.8,1.02-3.72,1.85-5.77,2.42-1.02.29-2.08.51-3.16.65-1.08.14-2.19.21-3.31.18-2.24-.08-4.57-.52-6.74-1.48-1.08-.47-2.12-1.06-3.09-1.74-.96-.69-1.84-1.47-2.63-2.31-.79-.84-1.47-1.74-2.09-2.67-.29-.47-.59-.93-.84-1.41-.13-.24-.27-.48-.38-.72l-.35-.72c-.9-1.93-1.48-3.89-1.91-5.82l-.27-1.25-.11-.52c-.04-.18-.08-.35-.13-.51l-.28-1.01-.33-.98c-.47-1.29-1.05-2.51-1.74-3.62-1.39-2.22-3.25-4.01-5.48-5.25-2.23-1.25-4.84-1.93-7.56-2.06-2.72-.13-5.53.29-8.2,1.19l-3.11-9.27c3.74-1.26,7.73-1.88,11.78-1.69,2.02.1,4.05.4,6.05.93,2,.53,3.95,1.32,5.79,2.34,1.84,1.02,3.56,2.29,5.08,3.75,1.52,1.46,2.85,3.11,3.95,4.87,1.1,1.76,1.97,3.61,2.66,5.5l.48,1.42.4,1.43c.07.24.13.48.18.72l.16.72.27,1.22c.58,2.74,1.65,5.16,3.14,6.72.37.39.76.73,1.18,1.04.42.29.86.54,1.32.75.93.42,1.98.62,3.11.67,2.27.07,4.83-.66,7.12-1.97,2.29-1.3,4.32-3.16,5.74-5.29.22-.33.42-.67.61-1.01Z"/>
          <path id="evilPath_stroke" class="cls-3" d="M250.78,165.29h10.53c-.07.24-.13.48-.2.71-.34,1.03-.75,2.03-1.22,2.99-.48.95-1.01,1.87-1.59,2.75-2.35,3.49-5.45,6.31-9.04,8.36-1.8,1.02-3.72,1.85-5.77,2.42-1.02.29-2.08.51-3.16.65-1.08.14-2.19.21-3.31.18-2.24-.08-4.57-.52-6.74-1.48-1.08-.47-2.12-1.06-3.09-1.74-.96-.69-1.84-1.47-2.63-2.31-.79-.84-1.47-1.74-2.09-2.67-.29-.47-.59-.93-.84-1.41-.13-.24-.27-.48-.38-.72l-.35-.72c-.9-1.93-1.48-3.89-1.91-5.82l-.27-1.25-.11-.52c-.04-.18-.08-.35-.13-.51l-.28-1.01-.33-.98c-.47-1.29-1.05-2.51-1.74-3.62-1.39-2.22-3.25-4.01-5.48-5.25-2.23-1.25-4.84-1.93-7.56-2.06-2.72-.13-5.53.29-8.2,1.19l-3.11-9.27c3.74-1.26,7.73-1.88,11.78-1.69,2.02.1,4.05.4,6.05.93,2,.53,3.95,1.32,5.79,2.34,1.84,1.02,3.56,2.29,5.08,3.75,1.52,1.46,2.85,3.11,3.95,4.87,1.1,1.76,1.97,3.61,2.66,5.5l.48,1.42.4,1.43c.07.24.13.48.18.72l.16.72.27,1.22c.58,2.74,1.65,5.16,3.14,6.72.37.39.76.73,1.18,1.04.42.29.86.54,1.32.75.93.42,1.98.62,3.11.67,2.27.07,4.83-.66,7.12-1.97,2.29-1.3,4.32-3.16,5.74-5.29.22-.33.42-.67.61-1.01Z"/>
          <path id="evilPath2" class="cls-2" d="M191.78,143.58c3.74-1.26,7.73-1.88,11.78-1.69,2.02.1,4.05.4,6.05.93,2,.53,3.95,1.32,5.79,2.34,1.84,1.02,3.56,2.29,5.08,3.75,1.52,1.46,2.85,3.11,3.95,4.87.2.31.66,1.07,1.18,2.08.68,1.32,1.15,2.5,1.48,3.42l.48,1.42c.03.09.12.44.15.53.06.23.19.67.25.9.03.11.06.23.1.36.03.12.06.24.08.36l.16.72.27,1.22c.16.75.34,1.4.5,1.9.15.45.35,1.1.73,1.9.18.38.43.92.88,1.59.2.31.52.78,1.03,1.33.56.6,1.04.94,1.18,1.04.42.29.86.54,1.32.75.93.42,1.98.62,3.11.67,1.86.07,3.28-.37,4.25-.68,1.36-.44,2.32-.98,2.87-1.29.69-.39,1.66-1,2.71-1.9,1.74-1.49,2.73-2.93,3.03-3.39.27-.41.48-.76.61-1.01h10.53c-.07.24-.13.48-.2.71-.34,1.03-.75,2.03-1.22,2.99-.48.95-1.01,1.87-1.59,2.75-2.35,3.49-5.45,6.31-9.04,8.36-1.8,1.02-3.72,1.85-5.77,2.42l-51.71-39.34Z"/>
        </g>
        <g>
          <path class="cls-1" d="M59.23,162.28c.37.08.72.22,1.04.38.16.08.32.16.47.26.15.1.29.2.43.32.27.22.52.46.73.72.21.27.38.56.52.85.28.58.4,1.24.38,1.87-.02.64-.2,1.26-.5,1.87s-.7,1.12-1.14,1.57c-.44.44-.89.8-1.37,1.09-.24.14-.47.27-.7.36-.24.1-.48.19-.71.24-.12.03-.23.05-.35.06-.12.02-.24.03-.35.03-.24,0-.46-.03-.7-.08-2.14-.51-4.47-.6-6.7-.32-1.12.13-2.21.4-3.25.73-1.04.34-2.05.76-2.97,1.3-3.73,2.09-6.16,5.75-7.08,10.29-.05.25-.14.48-.25.7-.1.23-.23.44-.38.65-.31.41-.73.77-1.19,1.09-.94.63-2.2,1.04-3.55.97-1.35-.07-2.52-.66-3.33-1.64-.41-.49-.69-1.08-.84-1.73-.08-.32-.13-.66-.14-1.01,0-.35.04-.7.12-1.06.32-1.64.86-3.29,1.48-4.9.36-.8.69-1.6,1.12-2.37l.31-.58.16-.29.18-.28.72-1.12c1.02-1.46,2.19-2.83,3.5-4.05,1.33-1.2,2.78-2.26,4.31-3.14,1.53-.89,3.15-1.58,4.8-2.12,1.65-.53,3.33-.92,5.03-1.13,1.7-.21,3.4-.28,5.1-.2,1.7.08,3.4.3,5.09.71Z"/>
          <path d="M36.86,183.77c.92-4.57,3.38-8.27,7.14-10.37.92-.55,1.94-.97,2.99-1.31,1.05-.34,2.15-.6,3.28-.74,2.24-.28,4.59-.19,6.75.33.23.05.45.09.68.08.11,0,.23-.01.35-.03.11-.01.23-.03.34-.05.23-.05.46-.13.7-.23.23-.09.46-.21.69-.35.47-.29.91-.64,1.33-1.07.42-.43.81-.94,1.1-1.53h0c.29-.59.46-1.2.48-1.82.02-.62-.1-1.25-.38-1.82-.14-.29-.31-.56-.51-.83-.2-.25-.44-.48-.71-.7-.13-.11-.27-.21-.42-.31-.15-.09-.3-.17-.46-.25-.32-.15-.66-.29-1.01-.36-1.68-.4-3.37-.62-5.07-.7s-3.39-.01-5.08.2c-1.69.21-3.36.6-5.01,1.13-1.64.54-3.25,1.22-4.78,2.11-1.52.88-2.97,1.93-4.29,3.12-1.3,1.22-2.47,2.58-3.48,4.03l-.71,1.12-.18.28-.16.29-.31.58c-.44.77-.76,1.57-1.12,2.36-.63,1.6-1.16,3.24-1.48,4.88-.07.35-.11.69-.12,1.03.01.34.06.67.14.98.15.63.41,1.2.82,1.68.78.96,1.93,1.53,3.25,1.61h0c1.31.08,2.54-.32,3.46-.93.45-.31.87-.66,1.16-1.07.15-.2.28-.41.37-.64.11-.22.2-.44.25-.69M37.11,183.82c-.05.25-.14.48-.25.71-.1.23-.23.45-.39.66-.16.21-.35.41-.56.59-.21.19-.42.37-.66.53-.96.64-2.26,1.07-3.64,1s-2.59-.67-3.42-1.68c-.2-.25-.4-.53-.54-.82-.14-.3-.25-.62-.33-.95-.08-.33-.13-.68-.14-1.04,0-.36.04-.72.12-1.09.32-1.65.86-3.3,1.49-4.92.36-.8.69-1.61,1.13-2.38l.32-.58.16-.29.18-.28.72-1.13c1.02-1.47,2.2-2.85,3.52-4.08,1.33-1.21,2.79-2.27,4.33-3.16,1.54-.9,3.17-1.58,4.82-2.13,1.66-.53,3.35-.93,5.05-1.14,1.7-.21,3.41-.28,5.12-.2,1.71.08,3.42.3,5.11.71,1.52.37,2.73,1.37,3.29,2.6.14.3.25.62.31.94.06.32.09.65.08.98-.03.65-.21,1.29-.52,1.91-.31.62-.73,1.15-1.18,1.6-.22.23-.46.43-.69.62-.23.18-.47.35-.72.5-.24.15-.48.27-.72.37-.24.1-.49.19-.72.24-.12.03-.24.05-.35.06-.12.01-.24.03-.36.03-.24,0-.47-.03-.71-.08-2.13-.51-4.44-.59-6.66-.32-1.11.13-2.19.39-3.23.73-1.03.34-2.04.76-2.94,1.29-3.7,2.07-6.1,5.69-7.02,10.21Z"/>
        </g>
        <g>
          <path class="cls-1" d="M175.3,105.27c.16-.52.46-.97.79-1.39.37-.41.78-.78,1.29-1.1.13-.08.26-.15.39-.23.13-.07.26-.14.4-.21.27-.13.57-.24.87-.33.61-.18,1.26-.27,1.93-.22.67.05,1.3.25,1.85.59.28.17.53.38.77.62.12.12.23.25.34.39.1.14.19.28.28.44.34.61.6,1.35.64,2.14.08.8-.05,1.65-.32,2.49-1.34,3.85-3.6,7.34-6.52,10.15-1.46,1.4-3.08,2.65-4.83,3.67-1.75,1.02-3.61,1.84-5.54,2.44-1.92.62-3.9.97-5.88,1.14-.99.11-1.97.1-2.96.11-.49-.02-.98-.04-1.47-.07-.24-.02-.49-.02-.73-.05l-.72-.08c-1.94-.19-3.81-.61-5.64-1.11-.9-.28-1.82-.53-2.68-.87l-1.31-.49-1.28-.55c-.37-.16-.72-.34-1.03-.57-.31-.23-.59-.47-.84-.74-.25-.26-.47-.54-.66-.84-.19-.29-.33-.61-.45-.93-.46-1.27-.35-2.62.33-3.78s1.81-1.93,2.99-2.28c.3-.09.59-.14.9-.19.31-.04.61-.06.92-.05.3.01.6.06.9.13.29.08.59.15.88.28l.99.43,1,.37c.66.27,1.34.44,2.01.66,1.35.36,2.7.67,4.04.79l.5.06c.17.02.33.02.5.03l1,.05c.66-.02,1.33,0,1.98-.08,1.3-.11,2.58-.33,3.8-.73,2.44-.77,4.68-2.05,6.5-3.82,1.82-1.75,3.23-3.94,4.06-6.31Z"/>
          <path d="M145.03,122.66l1.27.55,1.31.49c.86.34,1.78.59,2.68.87,1.82.49,3.69.91,5.62,1.1l.72.08c.24.03.49.03.73.05.49.02.97.05,1.46.07.98-.01,1.96,0,2.95-.11,1.97-.17,3.94-.52,5.85-1.13,1.91-.6,3.77-1.41,5.51-2.43,1.75-1.01,3.36-2.25,4.81-3.65,2.91-2.8,5.15-6.28,6.49-10.11.26-.82.39-1.64.31-2.42-.04-.39-.08-.75-.2-1.1-.11-.35-.25-.68-.42-.97-.32-.59-.81-1.08-1.34-1.41-.54-.34-1.15-.53-1.8-.59h0c-.66-.05-1.29.03-1.89.2-.6.17-1.12.43-1.62.74-.25.15-.47.32-.68.5-.2.18-.41.37-.58.57-.33.41-.63.85-.78,1.36-.84,2.39-2.26,4.59-4.09,6.36-1.83,1.78-4.09,3.08-6.55,3.85-1.23.4-2.52.62-3.83.74-.65.08-1.32.06-1.99.08l-1.01-.05c-.17-.01-.34,0-.5-.03l-.51-.06c-1.35-.13-2.71-.44-4.06-.8-.67-.22-1.35-.39-2.02-.66l-1.01-.37-.99-.43c-.28-.13-.57-.2-.86-.27-.29-.07-.58-.12-.88-.13-.59-.03-1.2.07-1.77.23-1.15.34-2.23,1.1-2.9,2.23h0c-.67,1.13-.77,2.44-.32,3.68.21.63.59,1.2,1.08,1.71.25.26.52.5.82.72.3.22.64.39,1,.55M144.93,122.89c-.38-.17-.74-.35-1.06-.59-.32-.23-.61-.49-.87-.76-.26-.27-.49-.56-.68-.86-.19-.31-.34-.63-.46-.95-.47-1.31-.36-2.68.35-3.87.71-1.19,1.86-1.98,3.07-2.34.3-.09.61-.15.92-.19.31-.05.63-.06.94-.05.31.01.62.06.92.13.3.08.61.16.9.29l.99.43,1,.37c.66.27,1.33.44,2,.65,1.34.36,2.69.67,4.02.79l.5.06c.17.02.33.02.5.03l1,.05c.66-.02,1.32,0,1.96-.08,1.29-.11,2.57-.33,3.77-.73,2.42-.76,4.65-2.04,6.45-3.79,1.81-1.74,3.21-3.91,4.03-6.26.08-.27.19-.51.34-.74.07-.11.15-.23.22-.34.08-.11.16-.22.25-.32.38-.42.79-.8,1.31-1.12.52-.32,1.07-.6,1.7-.79.62-.19,1.3-.29,1.98-.24.69.05,1.33.24,1.9.59.28.17.55.39.79.64.24.25.47.53.64.85.73,1.25.93,3.03.34,4.77-1.35,3.87-3.62,7.38-6.55,10.2-1.47,1.41-3.1,2.67-4.86,3.69-1.76,1.03-3.63,1.85-5.56,2.45-1.93.62-3.92.97-5.9,1.14-.99.11-1.98.1-2.97.11-.49-.02-.98-.04-1.47-.07-.24-.02-.49-.02-.73-.05l-.73-.08c-1.94-.19-3.82-.61-5.66-1.11-.9-.28-1.82-.53-2.69-.88l-1.32-.49-1.28-.55Z"/>
        </g>
        <g>
          <path class="cls-1" d="M201.17,157.26c.66,3.48.55,7.23-.48,10.69-.23.88-.56,1.71-.87,2.55-.37.81-.73,1.64-1.17,2.4-.41.79-.9,1.51-1.38,2.24-.24.36-.51.7-.77,1.05l-.39.51c-.13.17-.27.33-.41.49l-.84.97c-.29.31-.58.61-.88.91l-.44.45c-.15.15-.31.29-.46.43l-.93.84c-.31.28-.64.52-.96.78s-.63.53-.96.77l-1,.71-.49.36-.51.32c-2.7,1.77-5.53,3.19-8.41,4.37-2.87,1.17-5.8,2.1-8.73,2.87l-2.21.53c-.36.09-.73.17-1.1.24l-1.11.23-1.1.23-1.07.19-2.13.39c-2.83.51-5.66.99-8.46,1.46-5.6.95-11.15,1.88-16.43,3.15-2.63.64-5.19,1.38-7.59,2.28-2.37.92-4.6,1.99-6.45,3.33-.92.66-1.78,1.37-2.49,2.16-.09.09-.19.18-.28.29l-.25.3c-.16.21-.35.4-.49.62l-.46.64-.41.67c-.14.22-.25.47-.37.7s-.25.46-.35.73c-.11.26-.23.52-.33.78l-.29.8c-.36,1.06-.62,2.15-.77,3.25-.65,4.4.55,8.9,3.27,12.43.67.89,1.46,1.71,2.3,2.48.41.39.87.74,1.32,1.1.47.34.93.69,1.43,1,1.96,1.28,4.19,2.24,6.53,2.99l.9.25c.29.08.59.18.89.24l.89.2c.29.08.6.12.9.18,1.21.23,2.45.36,3.71.46,2.51.18,5.09.11,7.68-.15,2.6-.26,5.2-.72,7.79-1.33,2.58-.61,5.15-1.37,7.68-2.26,2.54-.88,5.03-1.9,7.47-3.04,2.43-1.14,4.82-2.38,7.12-3.74,1.74-1.03,3.54-1.57,5.15-1.62.4-.01.79,0,1.16.07.37.05.72.13,1.05.25.65.24,1.22.63,1.62,1.16.41.54.62,1.18.64,1.9,0,.35-.03.73-.11,1.11-.09.38-.22.77-.4,1.17-.7,1.58-2.15,3.2-4.12,4.36-2.6,1.55-5.27,2.94-7.99,4.21-2.72,1.26-5.5,2.4-8.34,3.4-2.84.99-5.74,1.85-8.69,2.55-2.96.7-5.97,1.23-9.04,1.54-3.08.3-6.2.4-9.37.18-1.58-.14-3.17-.3-4.76-.61-.4-.07-.8-.13-1.19-.23l-1.19-.27c-.4-.09-.79-.2-1.17-.31-.39-.11-.78-.22-1.16-.33-3.08-.98-6.13-2.28-8.94-4.11-.71-.44-1.39-.95-2.07-1.45-.67-.52-1.33-1.05-1.96-1.63-1.26-1.15-2.45-2.4-3.49-3.78-2.1-2.75-3.71-5.94-4.59-9.33-.9-3.39-1.11-6.96-.61-10.4.25-1.72.65-3.4,1.2-5.04l.44-1.21c.15-.4.33-.79.5-1.18.16-.39.37-.79.57-1.19.21-.4.39-.81.64-1.19,1.8-3.12,4.36-5.77,7.14-7.73,1.05-.75,2.12-1.41,3.2-2,1.8-1,3.65-1.8,5.47-2.51,2.93-1.1,5.86-1.93,8.75-2.64,5.8-1.39,11.49-2.33,17.11-3.29,2.81-.47,5.6-.94,8.37-1.44l2.07-.38,1.03-.19.99-.2.98-.21c.33-.06.66-.13.98-.21l1.95-.47c2.57-.67,5.08-1.48,7.47-2.45,2.4-.98,4.67-2.13,6.73-3.48,4.14-2.68,7.31-6.29,8.44-10.3.29-1.01.48-2.03.5-3.07.03-.26.02-.52,0-.78s0-.52-.03-.78l-.08-.79-.13-.79c-.21-1.05-.5-2.1-.93-3.14-.09-.26-.23-.51-.34-.77-.12-.26-.23-.51-.38-.76l-.4-.76c-.14-.21-.27-.42-.4-.63-.56-.82-1.23-1.63-2.02-2.36-.19-.18-.41-.35-.62-.53l-.3-.26-.34-.25c-.22-.16-.44-.33-.67-.48l-.7-.45c-.96-.57-1.96-1.09-3.03-1.48-.53-.23-1.08-.38-1.62-.55-.27-.1-.56-.14-.83-.22l-.42-.1-.21-.05-.21-.03c-2.25-.43-4.59-.52-6.89-.2-2.3.33-4.57,1.02-6.73,2.03-2.17,1.02-4.22,2.36-6.13,3.93-1.92,1.59-3.7,3.39-5.31,5.4-1.61,2-3.13,4.12-4.45,6.41l-.51.85-.57.97-.59.99-.61.97c-.21.32-.41.65-.62.97l-.64.95c-.43.64-.88,1.25-1.33,1.87-3.61,4.94-7.84,9.4-12.59,13.25-3.37,2.74-7,5.19-10.85,7.25-1.56.84-3.16,1.62-4.8,2.33-5.65,2.47-11.73,4.11-17.97,4.68-.38.04-.77.06-1.17.09l-1.17.07c-.78.04-1.56.04-2.35.05-.78.01-1.56-.03-2.35-.04-.78-.04-1.55-.1-2.32-.15-3.1-.27-6.22-.77-9.31-1.62-3.08-.85-6.13-2.06-9-3.71-2.87-1.66-5.57-3.76-7.85-6.31l-.82-.99c-.14-.16-.28-.33-.41-.5l-.38-.52-.76-1.04-.68-1.1-.34-.56c-.11-.18-.21-.38-.31-.57l-.6-1.15c-.18-.39-.35-.79-.53-1.19l-.26-.6-.22-.61-.43-1.23-.35-1.25c-.06-.21-.12-.42-.17-.63l-.13-.64c-.09-.43-.18-.85-.25-1.28-.11-.86-.25-1.73-.28-2.6l-.04-.65-.02-.32v-1.64c.24-6.96,3.3-13.79,8.42-18.55,1.27-1.18,2.62-2.24,4.03-3.16,1.41-.91,2.87-1.7,4.34-2.4,2.95-1.36,5.95-2.33,8.92-3.09,5.95-1.5,11.8-2.2,17.52-2.84,5.72-.62,11.33-1.12,16.73-1.97,1.35-.21,2.68-.45,3.99-.71,1.31-.27,2.6-.56,3.86-.9s2.48-.72,3.67-1.14c1.18-.44,2.31-.92,3.38-1.46,1.08-.53,2.07-1.15,3-1.81.92-.67,1.77-1.39,2.51-2.19.74-.79,1.4-1.66,1.97-2.58.58-.92,1.03-1.94,1.43-2.99.09-.26.2-.54.28-.79.07-.26.16-.52.22-.78.06-.25.13-.51.17-.77.03-.13.06-.26.08-.39l.06-.39c.15-1.03.17-2.07.07-3.1-.05-.52-.14-1.03-.24-1.54-.12-.51-.25-1.02-.43-1.52-.34-1-.79-1.98-1.36-2.92-1.14-1.89-2.68-3.63-4.52-5.12-1.83-1.5-3.93-2.77-6.19-3.81-4.52-2.07-9.61-3.2-14.81-3.57-5.2-.36-10.53.02-15.78.98-1.99.36-3.89.23-5.43-.29-1.53-.53-2.69-1.46-3.05-2.77-.36-1.29.16-2.72,1.37-3.93,1.21-1.23,3.11-2.22,5.36-2.63,5.94-1.09,12.06-1.54,18.22-1.11,6.15.44,12.36,1.76,18.2,4.44,2.92,1.34,5.74,3.02,8.31,5.13,2.57,2.1,4.9,4.65,6.7,7.65.9,1.49,1.66,3.1,2.24,4.8.29.84.52,1.71.72,2.59.18.88.34,1.77.42,2.68.17,1.8.14,3.62-.12,5.4l-.1.67c-.04.22-.09.44-.13.66-.08.44-.19.88-.3,1.31-.1.43-.24.85-.36,1.28-.13.42-.28.81-.43,1.22-.6,1.61-1.32,3.2-2.25,4.7-.92,1.5-2,2.91-3.2,4.19-1.19,1.29-2.53,2.42-3.91,3.42-1.39.99-2.83,1.87-4.3,2.6-1.47.74-2.96,1.37-4.45,1.92-1.5.54-2.99,1-4.48,1.41-1.49.39-2.98.73-4.46,1.04-1.47.29-2.95.55-4.41.78-5.85.91-11.59,1.42-17.19,2.03-5.59.62-11.07,1.3-16.17,2.59-2.54.65-4.98,1.46-7.19,2.49-1.11.52-2.16,1.09-3.13,1.72-.98.63-1.87,1.34-2.68,2.1-3.24,3-5.18,7.35-5.34,11.76v1.04s.01.21.01.21l.03.41c.01.55.11,1.1.17,1.65.04.27.11.54.16.81l.08.41c.03.13.08.27.11.4l.22.8.28.78.14.4.17.38.33.76.4.74c.06.12.12.25.19.37l.22.35.44.72.5.68.24.34c.09.11.19.22.28.33l.54.65c1.51,1.7,3.36,3.15,5.42,4.33,2.05,1.19,4.33,2.11,6.74,2.77,2.4.66,4.92,1.07,7.49,1.29.64.04,1.29.1,1.93.13.64,0,1.28.04,1.92.04.64-.02,1.28,0,1.92-.05l.96-.06c.32-.02.64-.03.96-.07,5.11-.46,10.16-1.82,14.94-3.9,9.57-4.17,18.03-11.15,24.25-19.64.39-.54.78-1.07,1.14-1.62l.56-.81c.18-.27.35-.55.53-.83l.52-.83.5-.85,1.11-1.85c1.53-2.65,3.32-5.18,5.28-7.61,1.95-2.43,4.18-4.7,6.65-6.75,2.48-2.04,5.22-3.84,8.21-5.24,2.99-1.4,6.22-2.4,9.56-2.87,3.34-.46,6.77-.35,10.1.29l.31.06.31.07.62.15c.42.11.83.19,1.24.32.81.26,1.63.49,2.42.82,1.61.59,3.14,1.38,4.63,2.27l1.09.69c.36.25.71.52,1.06.77l.53.39.5.43c.33.29.68.56,1,.87,1.3,1.2,2.48,2.58,3.51,4.11l.74,1.18.61,1.12c.2.37.38.76.56,1.16.17.39.37.77.52,1.18.66,1.59,1.15,3.29,1.49,5.03Z"/>
          <path id="maze4" class="cls-3" d="M96.17,98.69c-1.99.36-3.89.23-5.43-.29-1.53-.53-2.69-1.46-3.06-2.77-.36-1.29.16-2.72,1.37-3.94,1.2-1.23,3.11-2.22,5.36-2.63,5.94-1.09,12.06-1.54,18.22-1.11,6.15.44,12.36,1.76,18.2,4.43,2.91,1.34,5.73,3.03,8.31,5.13,2.57,2.1,4.9,4.65,6.7,7.65.9,1.49,1.66,3.11,2.24,4.8.3.84.52,1.71.73,2.59.18.88.34,1.77.41,2.68.17,1.8.14,3.63-.12,5.41l-.1.67c-.04.22-.08.44-.13.66-.08.44-.19.87-.3,1.31-.1.44-.24.85-.37,1.28-.13.42-.28.81-.43,1.22-.6,1.61-1.32,3.2-2.26,4.7-.92,1.5-1.99,2.91-3.19,4.2-1.2,1.29-2.53,2.41-3.91,3.42-1.39,1-2.83,1.87-4.3,2.6-1.47.74-2.96,1.37-4.45,1.92-1.49.54-2.99,1-4.48,1.4-1.49.4-2.98.74-4.46,1.04-1.48.29-2.95.56-4.41.79-5.85.91-11.59,1.42-17.19,2.03-5.59.61-11.07,1.3-16.17,2.59-2.54.65-4.98,1.45-7.19,2.48-1.1.52-2.15,1.09-3.13,1.72-.98.63-1.87,1.34-2.68,2.1-3.24,3-5.18,7.35-5.33,11.76v.83s-.01.21-.01.21v.21s.04.41.04.41c.01.55.11,1.1.18,1.65.04.27.11.54.16.81l.08.41c.03.13.07.27.11.4l.22.8.28.78.14.39.17.38.33.76.39.74c.07.12.13.25.19.37l.22.36.44.71.5.68.25.34c.09.11.18.22.27.33l.54.65c1.51,1.7,3.36,3.14,5.41,4.33,2.06,1.19,4.34,2.1,6.74,2.77,2.4.66,4.92,1.07,7.49,1.29.64.04,1.29.1,1.93.13.64,0,1.28.04,1.92.04.64-.02,1.28-.01,1.92-.05l.96-.06c.32-.02.64-.03.96-.07,5.11-.46,10.16-1.82,14.94-3.9,9.57-4.17,18.03-11.15,24.25-19.64.39-.53.78-1.06,1.14-1.61l.55-.82c.18-.27.35-.55.53-.83l.53-.83.5-.85,1.11-1.85c1.53-2.64,3.32-5.17,5.28-7.6,1.95-2.43,4.18-4.7,6.66-6.75,2.47-2.04,5.22-3.84,8.21-5.25,2.99-1.4,6.22-2.4,9.56-2.86,3.34-.46,6.77-.35,10.1.29l.31.06.31.07.62.15c.41.11.83.19,1.24.32.81.25,1.63.49,2.42.82,1.6.59,3.14,1.38,4.62,2.27l1.1.7c.36.24.71.51,1.06.77l.53.39.51.43c.33.29.68.56,1,.87,1.3,1.2,2.48,2.58,3.52,4.11l.74,1.18.6,1.12c.21.37.39.76.56,1.15.17.39.37.77.52,1.18.66,1.6,1.15,3.29,1.49,5.03.65,3.48.54,7.23-.48,10.7-.23.88-.56,1.71-.88,2.55-.37.81-.72,1.64-1.17,2.4-.41.79-.9,1.51-1.38,2.24-.24.36-.51.7-.77,1.05l-.39.52c-.13.17-.28.33-.41.49l-.84.97c-.29.31-.59.61-.88.91l-.44.45c-.15.15-.31.28-.46.43l-.93.84c-.31.28-.64.52-.96.79-.32.25-.64.53-.97.76l-.99.71-.5.36-.51.33c-2.7,1.77-5.53,3.19-8.41,4.36-2.88,1.17-5.8,2.1-8.73,2.87l-2.21.53c-.37.09-.74.17-1.1.24l-1.11.23-1.11.23-1.07.2-2.13.39c-2.84.51-5.66.99-8.46,1.46-5.6.95-11.15,1.88-16.43,3.15-2.63.64-5.19,1.38-7.59,2.28-2.38.92-4.61,1.99-6.45,3.33-.92.67-1.78,1.37-2.49,2.16-.09.1-.19.19-.28.29l-.25.31c-.16.21-.35.4-.49.62l-.46.64-.41.67c-.15.22-.25.46-.37.7-.12.24-.25.46-.35.73-.11.26-.23.52-.33.78l-.29.79c-.36,1.07-.61,2.16-.77,3.26-.64,4.4.55,8.89,3.28,12.42.67.89,1.45,1.71,2.29,2.48.41.39.87.74,1.32,1.11.47.33.93.69,1.43.99,1.96,1.28,4.19,2.25,6.53,2.99l.89.25c.3.08.6.18.89.24l.89.21c.29.08.6.11.9.17,1.21.24,2.45.36,3.7.47,2.52.17,5.1.1,7.69-.16,2.59-.26,5.2-.71,7.78-1.32,2.59-.61,5.15-1.37,7.69-2.26,2.53-.89,5.03-1.91,7.46-3.04,2.44-1.14,4.82-2.38,7.12-3.74,1.74-1.03,3.54-1.57,5.15-1.62.4-.01.79.01,1.16.07.37.05.72.14,1.05.26.66.24,1.22.62,1.63,1.16.41.54.62,1.18.64,1.89.01.36-.03.73-.11,1.12-.09.38-.22.77-.4,1.17-.71,1.58-2.16,3.2-4.13,4.37-2.6,1.54-5.27,2.93-7.99,4.2-2.72,1.27-5.5,2.41-8.34,3.4-2.84,1-5.74,1.86-8.69,2.55-2.95.7-5.97,1.23-9.04,1.54-3.07.31-6.2.4-9.36.18-1.58-.13-3.17-.3-4.76-.6-.4-.08-.79-.13-1.19-.23l-1.19-.28c-.4-.09-.78-.2-1.17-.31-.39-.11-.77-.22-1.16-.33-3.08-.97-6.12-2.28-8.94-4.11-.71-.44-1.39-.95-2.07-1.44-.66-.53-1.33-1.05-1.95-1.63-1.26-1.15-2.45-2.4-3.49-3.78-2.1-2.75-3.72-5.93-4.59-9.33-.89-3.39-1.1-6.96-.61-10.39.24-1.72.65-3.41,1.19-5.04l.44-1.21c.15-.4.33-.79.5-1.18.16-.39.37-.79.57-1.19.21-.4.39-.8.64-1.18,1.8-3.12,4.37-5.77,7.15-7.73,2.78-2,5.74-3.38,8.67-4.51,2.93-1.1,5.86-1.93,8.75-2.64,5.79-1.39,11.49-2.33,17.11-3.28,2.81-.47,5.6-.94,8.36-1.44l2.07-.38,1.03-.19.99-.2.99-.2c.33-.07.66-.13.98-.22l1.95-.47c2.57-.67,5.08-1.48,7.48-2.46,2.39-.98,4.67-2.13,6.73-3.48,4.14-2.68,7.31-6.29,8.44-10.3.28-1,.47-2.02.5-3.06.03-.26.01-.52,0-.78,0-.26,0-.52-.03-.78l-.07-.79-.13-.79c-.21-1.05-.5-2.1-.94-3.14-.09-.26-.23-.51-.34-.77-.12-.26-.23-.52-.37-.77l-.4-.76c-.14-.21-.27-.42-.4-.63-.57-.82-1.23-1.63-2.02-2.36-.19-.19-.41-.35-.61-.53l-.31-.27-.33-.24c-.22-.16-.44-.33-.67-.49l-.7-.45c-.96-.57-1.96-1.09-3.03-1.48-.52-.22-1.08-.37-1.62-.55-.27-.09-.55-.14-.83-.21l-.42-.1-.21-.05-.21-.04c-2.25-.43-4.59-.51-6.89-.19-2.3.33-4.57,1.02-6.73,2.03-2.16,1.01-4.22,2.35-6.13,3.93-1.91,1.58-3.7,3.38-5.31,5.39-1.61,2-3.13,4.13-4.45,6.41l-.51.85-.57.97-.59.99-.61.97c-.21.32-.41.65-.62.97l-.64.95c-.42.64-.88,1.26-1.32,1.87-3.62,4.93-7.85,9.39-12.59,13.25-4.74,3.85-9.99,7.12-15.65,9.58-5.65,2.46-11.73,4.11-17.97,4.67-.39.05-.78.07-1.17.09l-1.17.07c-.78.04-1.57.04-2.35.06-.78,0-1.57-.03-2.35-.05-.78-.04-1.55-.1-2.33-.15-3.1-.26-6.22-.76-9.3-1.61-3.08-.85-6.13-2.06-9.01-3.71-2.87-1.65-5.57-3.75-7.84-6.31l-.83-.98c-.14-.17-.28-.33-.41-.5l-.38-.52-.75-1.05-.69-1.1-.34-.55c-.11-.19-.2-.38-.31-.57l-.6-1.15c-.18-.39-.35-.79-.53-1.19l-.26-.6-.22-.61-.43-1.23-.35-1.26c-.06-.21-.12-.42-.17-.63l-.13-.64c-.08-.43-.18-.85-.25-1.28-.11-.86-.25-1.72-.28-2.59l-.04-.65-.02-.33v-.33s.01-1.31.01-1.31c.23-6.96,3.29-13.79,8.41-18.55,1.26-1.18,2.62-2.24,4.03-3.16,1.41-.91,2.87-1.7,4.34-2.4,2.95-1.37,5.95-2.34,8.92-3.1,5.95-1.5,11.8-2.2,17.52-2.84,5.72-.62,11.33-1.12,16.73-1.97,1.35-.21,2.68-.45,3.99-.71,1.31-.27,2.6-.57,3.86-.9,1.25-.34,2.48-.72,3.67-1.15,1.18-.44,2.31-.92,3.38-1.46,1.08-.53,2.07-1.15,3-1.81.92-.67,1.77-1.38,2.51-2.19.74-.8,1.4-1.66,1.97-2.59.58-.92,1.03-1.93,1.43-2.99.09-.27.2-.54.28-.8.07-.26.16-.51.22-.77.06-.26.13-.52.18-.77.02-.13.06-.26.08-.39l.06-.39c.15-1.04.17-2.08.07-3.11-.04-.52-.14-1.03-.24-1.54-.12-.51-.25-1.02-.43-1.52-.34-1-.79-1.98-1.37-2.92-1.13-1.88-2.68-3.62-4.51-5.12-1.83-1.5-3.93-2.77-6.19-3.81-4.52-2.07-9.62-3.2-14.81-3.57-5.2-.36-10.53.01-15.78.98Z"/>
        </g>
      </g>
    </g>
  </g>
  <g id="Layer_2" data-name="Layer 2">
    <g>
      <path class="cls-5" d="M35.36,103.71c-.34.08-1.58-.87-.29-1.15,1.29-.28,1.27.85.76,1.1l-.46.04Z"/>
      <path class="cls-5" d="M35.32,103.83s-.44-.49-1.16-.54c-.71-.05-1.39.4-.88.84.5.44,1.66.16,2.04-.3Z"/>
      <path class="cls-5" d="M35.7,103.8s.01-.4.66-.68c.65-.28,1.49.09.89.58-.6.49-1.7.41-1.56.1Z"/>
      <path class="cls-5" d="M35.85,103.89s1.29.01,1.54.33c.24.32-.42.78-1.36.28-.94-.5-.47-.7-.17-.61Z"/>
      <path class="cls-5" d="M35.32,103.78s-1.67,1.11-.38,1.33c1.21.21,1.03-1.05.52-1.27-.57-.25.02-.22-.14-.07Z"/>
      <path class="cls-8" d="M35.32,103.51c.33-.09.7.03.78.29.08.26-.71.52-1.11.31-.4-.21-.02-.5.34-.6Z"/>
    </g>
    <g>
      <path class="cls-5" d="M162.91,172.6c-.34.07-1.58-.87-.29-1.15,1.29-.28,1.27.85.76,1.1l-.46.04Z"/>
      <path class="cls-5" d="M162.87,172.73s-.44-.49-1.16-.54c-.72-.05-1.39.4-.88.84.51.44,1.66.17,2.04-.3Z"/>
      <path class="cls-5" d="M163.25,172.69s.01-.4.67-.68c.65-.28,1.49.09.89.58-.6.49-1.7.41-1.56.1Z"/>
      <path class="cls-5" d="M163.4,172.78s1.29.01,1.54.33c.24.32-.42.78-1.36.28-.94-.5-.47-.7-.17-.61Z"/>
      <path class="cls-5" d="M162.87,172.67s-1.67,1.11-.38,1.33c1.21.21,1.03-1.05.52-1.27-.57-.25.02-.22-.14-.07Z"/>
      <path class="cls-8" d="M162.87,172.4c.33-.09.7.03.78.29.08.26-.71.52-1.11.31-.4-.21-.02-.5.33-.6Z"/>
    </g>
    <g>
      <path class="cls-5" d="M132.18,227.85c-.34.07-1.58-.87-.29-1.15,1.29-.28,1.27.85.76,1.1l-.46.04Z"/>
      <path class="cls-5" d="M132.14,227.97s-.44-.49-1.16-.54c-.72-.05-1.39.4-.88.84s1.66.17,2.04-.3Z"/>
      <path class="cls-5" d="M132.51,227.94s.01-.4.66-.68c.65-.28,1.49.09.89.58-.6.49-1.7.41-1.56.1Z"/>
      <path class="cls-5" d="M132.66,228.02s1.29.01,1.54.33c.24.32-.42.78-1.36.28-.94-.5-.47-.7-.17-.61Z"/>
      <path class="cls-5" d="M132.14,227.92s-1.67,1.11-.38,1.33c1.21.21,1.03-1.05.52-1.27-.57-.25.02-.22-.14-.07Z"/>
      <path class="cls-8" d="M132.14,227.64c.33-.09.7.03.78.29.08.26-.71.52-1.11.31-.4-.21-.02-.5.33-.6Z"/>
    </g>
    <g>
      <path class="cls-5" d="M112.77,123.41c-.34.08-1.58-.87-.29-1.15,1.29-.28,1.27.85.76,1.1l-.46.04Z"/>
      <path class="cls-5" d="M112.73,123.53s-.44-.49-1.16-.54c-.72-.05-1.39.4-.88.84s1.66.16,2.04-.3Z"/>
      <path class="cls-5" d="M113.11,123.49s.01-.4.66-.68c.65-.28,1.49.09.89.58-.6.49-1.7.41-1.56.1Z"/>
      <path class="cls-5" d="M113.26,123.58s1.29.01,1.54.33c.24.32-.42.78-1.36.28-.94-.5-.47-.7-.17-.61Z"/>
      <path class="cls-5" d="M112.73,123.48s-1.67,1.11-.38,1.33c1.21.21,1.03-1.05.52-1.27-.57-.25.02-.22-.14-.07Z"/>
      <path class="cls-8" d="M112.73,123.2c.33-.09.7.03.78.29.08.26-.71.52-1.11.31-.4-.21-.02-.5.33-.6Z"/>
    </g>
    <g>
      <path class="cls-5" d="M66.6,113.23c-.34.08-1.58-.87-.29-1.15,1.29-.28,1.27.85.76,1.1l-.46.04Z"/>
      <path class="cls-5" d="M66.56,113.35s-.44-.49-1.16-.54c-.72-.05-1.39.4-.88.84.51.44,1.66.16,2.04-.3Z"/>
      <path class="cls-5" d="M66.93,113.31s.01-.4.67-.68c.65-.28,1.49.09.89.58-.6.49-1.7.41-1.56.1Z"/>
      <path class="cls-5" d="M67.08,113.4s1.29.01,1.54.33c.24.32-.42.78-1.36.28-.94-.5-.47-.7-.17-.61Z"/>
      <path class="cls-5" d="M66.56,113.29s-1.67,1.11-.38,1.33c1.21.21,1.03-1.05.52-1.27-.57-.25.02-.22-.14-.07Z"/>
      <path class="cls-8" d="M66.56,113.02c.33-.09.7.03.78.29.08.26-.71.52-1.11.31-.4-.21-.02-.5.33-.6Z"/>
    </g>
    <g>
      <path class="cls-5" d="M130.12,153.04c-.3.07-1.4-.77-.26-1.02,1.14-.25,1.13.75.67.98l-.41.04Z"/>
      <path class="cls-5" d="M130.09,153.14s-.39-.43-1.03-.48c-.63-.04-1.23.35-.78.74.45.39,1.47.15,1.81-.27Z"/>
      <path class="cls-5" d="M130.42,153.11s.01-.35.59-.6c.58-.25,1.32.08.79.51-.53.44-1.5.36-1.38.09Z"/>
      <path class="cls-5" d="M130.55,153.19s1.15.01,1.36.3c.21.29-.38.69-1.21.25-.83-.44-.42-.62-.15-.54Z"/>
      <path class="cls-5" d="M130.09,153.1s-1.48.98-.34,1.18c1.07.19.91-.93.46-1.12-.5-.22.02-.19-.13-.06Z"/>
      <path class="cls-8" d="M130.09,152.85c.3-.08.62.03.69.25.07.23-.63.46-.99.28-.36-.18-.02-.44.3-.53Z"/>
    </g>
    <g>
      <path class="cls-5" d="M259.26,202.7c-.3.07-1.4-.77-.26-1.02,1.14-.25,1.13.75.67.98l-.41.04Z"/>
      <path class="cls-5" d="M259.23,202.81s-.39-.43-1.03-.48c-.63-.04-1.23.35-.78.74.45.39,1.47.15,1.81-.27Z"/>
      <path class="cls-5" d="M259.56,202.78s.01-.35.59-.6c.58-.25,1.32.08.79.51s-1.5.36-1.38.09Z"/>
      <path class="cls-5" d="M259.69,202.86s1.15.01,1.36.3c.21.29-.38.69-1.21.25-.83-.44-.42-.62-.15-.54Z"/>
      <path class="cls-5" d="M259.23,202.76s-1.48.98-.34,1.18c1.07.19.91-.93.46-1.12-.5-.22.02-.19-.13-.06Z"/>
      <path class="cls-8" d="M259.23,202.52c.3-.08.62.03.69.25.07.23-.63.46-.99.28-.36-.18-.02-.44.3-.53Z"/>
    </g>
    <g>
      <path class="cls-5" d="M187.79,119.11c-.3.07-1.4-.77-.26-1.02,1.14-.25,1.13.75.67.98l-.41.04Z"/>
      <path class="cls-5" d="M187.76,119.22s-.39-.43-1.03-.48c-.63-.04-1.23.35-.78.74.45.39,1.47.15,1.81-.27Z"/>
      <path class="cls-5" d="M188.09,119.19s.01-.35.59-.6c.58-.25,1.32.08.79.51-.53.44-1.5.36-1.38.09Z"/>
      <path class="cls-5" d="M188.22,119.27s1.15.01,1.36.3c.21.29-.38.69-1.21.25-.83-.44-.42-.62-.15-.54Z"/>
      <path class="cls-5" d="M187.76,119.17s-1.48.98-.34,1.18c1.07.19.91-.93.46-1.12-.5-.22.02-.19-.13-.06Z"/>
      <path class="cls-8" d="M187.76,118.93c.3-.08.62.03.69.25.07.23-.63.46-.99.28-.36-.18-.02-.44.3-.53Z"/>
    </g>
    <g>
      <path class="cls-5" d="M213.91,202.23c-.3.07-1.4-.77-.26-1.02,1.14-.25,1.13.75.67.98l-.41.04Z"/>
      <path class="cls-5" d="M213.87,202.34s-.39-.43-1.03-.48c-.63-.04-1.23.35-.78.74.45.39,1.47.15,1.81-.27Z"/>
      <path class="cls-5" d="M214.21,202.31s.01-.35.59-.6c.58-.25,1.32.08.79.51-.53.44-1.5.36-1.38.09Z"/>
      <path class="cls-5" d="M214.34,202.38s1.15.01,1.36.3c.21.29-.38.69-1.21.25-.83-.44-.42-.62-.15-.54Z"/>
      <path class="cls-5" d="M213.87,202.29s-1.48.98-.34,1.18c1.07.19.91-.93.46-1.12-.5-.22.02-.19-.13-.06Z"/>
      <path class="cls-8" d="M213.87,202.05c.3-.08.62.03.69.25.07.23-.63.46-.99.28-.36-.18-.02-.44.3-.53Z"/>
    </g>
    <g>
      <path class="cls-5" d="M187.79,119.11c-.3.07-1.4-.77-.26-1.02,1.14-.25,1.13.75.67.98l-.41.04Z"/>
      <path class="cls-5" d="M187.76,119.22s-.39-.43-1.03-.48c-.63-.04-1.23.35-.78.74.45.39,1.47.15,1.81-.27Z"/>
      <path class="cls-5" d="M188.09,119.19s.01-.35.59-.6c.58-.25,1.32.08.79.51-.53.44-1.5.36-1.38.09Z"/>
      <path class="cls-5" d="M188.22,119.27s1.15.01,1.36.3c.21.29-.38.69-1.21.25-.83-.44-.42-.62-.15-.54Z"/>
      <path class="cls-5" d="M187.76,119.17s-1.48.98-.34,1.18c1.07.19.91-.93.46-1.12-.5-.22.02-.19-.13-.06Z"/>
      <path class="cls-8" d="M187.76,118.93c.3-.08.62.03.69.25.07.23-.63.46-.99.28-.36-.18-.02-.44.3-.53Z"/>
    </g>
  </g>
  <g id="Layer_3" data-name="Layer 3">
    <g>
      <path class="cls-5" d="M53.22,67.53c-.34.08-1.58-.87-.29-1.15,1.29-.28,1.27.85.76,1.1l-.46.04Z"/>
      <path class="cls-5" d="M53.19,67.65s-.44-.49-1.16-.54c-.71-.05-1.39.4-.88.84.5.44,1.66.16,2.04-.3Z"/>
      <path class="cls-5" d="M53.56,67.61s.01-.4.66-.68c.65-.28,1.49.09.89.58-.6.49-1.7.41-1.56.1Z"/>
      <path class="cls-5" d="M53.71,67.7s1.29.01,1.54.33c.24.32-.42.78-1.36.28-.94-.5-.47-.7-.17-.61Z"/>
      <path class="cls-5" d="M53.19,67.59s-1.67,1.11-.38,1.33c1.21.21,1.03-1.05.52-1.27-.57-.25.02-.22-.14-.07Z"/>
      <path class="cls-8" d="M53.19,67.32c.33-.09.7.03.78.29.08.26-.71.52-1.11.31-.4-.21-.02-.5.34-.6Z"/>
    </g>
    <g>
      <path class="cls-5" d="M222.76,106.32c-.34.07-1.58-.87-.29-1.15,1.29-.28,1.27.85.76,1.1l-.46.04Z"/>
      <path class="cls-5" d="M222.72,106.45s-.44-.49-1.16-.54c-.72-.05-1.39.4-.88.84.51.44,1.66.17,2.04-.3Z"/>
      <path class="cls-5" d="M223.1,106.41s.01-.4.67-.68c.65-.28,1.49.09.89.58-.6.49-1.7.41-1.56.1Z"/>
      <path class="cls-5" d="M223.25,106.5s1.29.01,1.54.33c.24.32-.42.78-1.36.28-.94-.5-.47-.7-.17-.61Z"/>
      <path class="cls-5" d="M222.72,106.39s-1.67,1.11-.38,1.33c1.21.21,1.03-1.05.52-1.27-.57-.25.02-.22-.14-.07Z"/>
      <path class="cls-8" d="M222.72,106.12c.33-.09.7.03.78.29.08.26-.71.52-1.11.31-.4-.21-.02-.5.33-.6Z"/>
    </g>
    <g>
      <path class="cls-5" d="M65.53,226.54c-.34.07-1.58-.87-.29-1.15,1.29-.28,1.27.85.76,1.1l-.46.04Z"/>
      <path class="cls-5" d="M65.49,226.66s-.44-.49-1.16-.54c-.72-.05-1.39.4-.88.84s1.66.17,2.04-.3Z"/>
      <path class="cls-5" d="M65.86,226.63s.01-.4.66-.68c.65-.28,1.49.09.89.58-.6.49-1.7.41-1.56.1Z"/>
      <path class="cls-5" d="M66.01,226.72s1.29.01,1.54.33c.24.32-.42.78-1.36.28-.94-.5-.47-.7-.17-.61Z"/>
      <path class="cls-5" d="M65.49,226.61s-1.67,1.11-.38,1.33c1.21.21,1.03-1.05.52-1.27-.57-.25.02-.22-.14-.07Z"/>
      <path class="cls-8" d="M65.49,226.34c.33-.09.7.03.78.29.08.26-.71.52-1.11.31-.4-.21-.02-.5.33-.6Z"/>
    </g>
    <g>
      <path class="cls-5" d="M130.64,87.22c-.34.08-1.58-.87-.29-1.15,1.29-.28,1.27.85.76,1.1l-.46.04Z"/>
      <path class="cls-5" d="M130.6,87.35s-.44-.49-1.16-.54c-.72-.05-1.39.4-.88.84s1.66.16,2.04-.3Z"/>
      <path class="cls-5" d="M130.98,87.31s.01-.4.66-.68c.65-.28,1.49.09.89.58-.6.49-1.7.41-1.56.1Z"/>
      <path class="cls-5" d="M131.12,87.4s1.29.01,1.54.33c.24.32-.42.78-1.36.28-.94-.5-.47-.7-.17-.61Z"/>
      <path class="cls-5" d="M130.6,87.29s-1.67,1.11-.38,1.33c1.21.21,1.03-1.05.52-1.27-.57-.25.02-.22-.14-.07Z"/>
      <path class="cls-8" d="M130.6,87.02c.33-.09.7.03.78.29.08.26-.71.52-1.11.31-.4-.21-.02-.5.33-.6Z"/>
    </g>
    <g>
      <path class="cls-5" d="M84.46,77.04c-.34.08-1.58-.87-.29-1.15,1.29-.28,1.27.85.76,1.1l-.46.04Z"/>
      <path class="cls-5" d="M84.42,77.16s-.44-.49-1.16-.54c-.72-.05-1.39.4-.88.84.51.44,1.66.16,2.04-.3Z"/>
      <path class="cls-5" d="M84.8,77.13s.01-.4.67-.68c.65-.28,1.49.09.89.58-.6.49-1.7.41-1.56.1Z"/>
      <path class="cls-5" d="M84.95,77.22s1.29.01,1.54.33c.24.32-.42.78-1.36.28-.94-.5-.47-.7-.17-.61Z"/>
      <path class="cls-5" d="M84.42,77.11s-1.67,1.11-.38,1.33c1.21.21,1.03-1.05.52-1.27-.57-.25.02-.22-.14-.07Z"/>
      <path class="cls-8" d="M84.42,76.84c.33-.09.7.03.78.29.08.26-.71.52-1.11.31-.4-.21-.02-.5.33-.6Z"/>
    </g>
    <g>
      <path class="cls-5" d="M52.15,205.02c-.3.07-1.4-.77-.26-1.02,1.14-.25,1.13.75.67.98l-.41.04Z"/>
      <path class="cls-5" d="M52.11,205.13s-.39-.43-1.03-.48c-.63-.04-1.23.35-.78.74.45.39,1.47.15,1.81-.27Z"/>
      <path class="cls-5" d="M52.45,205.1s.01-.35.59-.6c.58-.25,1.32.08.79.51-.53.44-1.5.36-1.38.09Z"/>
      <path class="cls-5" d="M52.58,205.17s1.15.01,1.36.3c.21.29-.38.69-1.21.25-.83-.44-.42-.62-.15-.54Z"/>
      <path class="cls-5" d="M52.11,205.08s-1.48.98-.34,1.18c1.07.19.91-.93.46-1.12-.5-.22.02-.19-.13-.06Z"/>
      <path class="cls-8" d="M52.11,204.84c.3-.08.62.03.69.25.07.23-.63.46-.99.28-.36-.18-.02-.44.3-.53Z"/>
    </g>
    <g>
      <path class="cls-5" d="M277.13,166.52c-.3.07-1.4-.77-.26-1.02,1.14-.25,1.13.75.67.98l-.41.04Z"/>
      <path class="cls-5" d="M277.09,166.63s-.39-.43-1.03-.48c-.63-.04-1.23.35-.78.74.45.39,1.47.15,1.81-.27Z"/>
      <path class="cls-5" d="M277.43,166.59s.01-.35.59-.6c.58-.25,1.32.08.79.51s-1.5.36-1.38.09Z"/>
      <path class="cls-5" d="M277.56,166.67s1.15.01,1.36.3c.21.29-.38.69-1.21.25-.83-.44-.42-.62-.15-.54Z"/>
      <path class="cls-5" d="M277.09,166.58s-1.48.98-.34,1.18c1.07.19.91-.93.46-1.12-.5-.22.02-.19-.13-.06Z"/>
      <path class="cls-8" d="M277.09,166.34c.3-.08.62.03.69.25.07.23-.63.46-.99.28-.36-.18-.02-.44.3-.53Z"/>
    </g>
    <g>
      <path class="cls-5" d="M205.66,82.93c-.3.07-1.4-.77-.26-1.02,1.14-.25,1.13.75.67.98l-.41.04Z"/>
      <path class="cls-5" d="M205.62,83.04s-.39-.43-1.03-.48c-.63-.04-1.23.35-.78.74.45.39,1.47.15,1.81-.27Z"/>
      <path class="cls-5" d="M205.96,83s.01-.35.59-.6c.58-.25,1.32.08.79.51-.53.44-1.5.36-1.38.09Z"/>
      <path class="cls-5" d="M206.09,83.08s1.15.01,1.36.3c.21.29-.38.69-1.21.25-.83-.44-.42-.62-.15-.54Z"/>
      <path class="cls-5" d="M205.62,82.99s-1.48.98-.34,1.18c1.07.19.91-.93.46-1.12-.5-.22.02-.19-.13-.06Z"/>
      <path class="cls-8" d="M205.62,82.74c.3-.08.62.03.69.25.07.23-.63.46-.99.28-.36-.18-.02-.44.3-.53Z"/>
    </g>
    <g>
      <path class="cls-5" d="M236.56,125.38c-.3.07-1.4-.77-.26-1.02,1.14-.25,1.13.75.67.98l-.41.04Z"/>
      <path class="cls-5" d="M236.53,125.49s-.39-.43-1.03-.48c-.63-.04-1.23.35-.78.74.45.39,1.47.15,1.81-.27Z"/>
      <path class="cls-5" d="M236.86,125.45s.01-.35.59-.6c.58-.25,1.32.08.79.51-.53.44-1.5.36-1.38.09Z"/>
      <path class="cls-5" d="M236.99,125.53s1.15.01,1.36.3c.21.29-.38.69-1.21.25-.83-.44-.42-.62-.15-.54Z"/>
      <path class="cls-5" d="M236.53,125.44s-1.48.98-.34,1.18c1.07.19.91-.93.46-1.12-.5-.22.02-.19-.13-.06Z"/>
      <path class="cls-8" d="M236.53,125.19c.3-.08.62.03.69.25.07.23-.63.46-.99.28-.36-.18-.02-.44.3-.53Z"/>
    </g>
    <g>
      <path class="cls-5" d="M205.66,82.93c-.3.07-1.4-.77-.26-1.02,1.14-.25,1.13.75.67.98l-.41.04Z"/>
      <path class="cls-5" d="M205.62,83.04s-.39-.43-1.03-.48c-.63-.04-1.23.35-.78.74.45.39,1.47.15,1.81-.27Z"/>
      <path class="cls-5" d="M205.96,83s.01-.35.59-.6c.58-.25,1.32.08.79.51-.53.44-1.5.36-1.38.09Z"/>
      <path class="cls-5" d="M206.09,83.08s1.15.01,1.36.3c.21.29-.38.69-1.21.25-.83-.44-.42-.62-.15-.54Z"/>
      <path class="cls-5" d="M205.62,82.99s-1.48.98-.34,1.18c1.07.19.91-.93.46-1.12-.5-.22.02-.19-.13-.06Z"/>
      <path class="cls-8" d="M205.62,82.74c.3-.08.62.03.69.25.07.23-.63.46-.99.28-.36-.18-.02-.44.3-.53Z"/>
    </g>
  </g>
</svg>